<!-- Generated by IcoMoon.io -->
<svg version="1.1" xmlns="http://www.w3.org/2000/svg" width="2193" height="1024" viewBox="0 0 2193 1024">
<title></title>
<g id="icomoon-ignore">
</g>
<path fill="#a7dce2" opacity="0.6" d="M854.397 417.206v-325.47h-426.855c-167.293 27.204-163.226 325.47-163.226 325.47z"></path>
<path fill="#fff" d="M2081.537 487.881c15.425 10.517 74.461 52.025 83.296 152.148h-109.518s-25.942-84.137-11.358-98.16c13.306-15.799 25.725-33.355 36.612-51.919l0.969-1.789z"></path>
<path fill="#a7dce2" opacity="0.6" d="M933.626 93.979v320.282h589.942s-191.552-349.87-589.942-320.282z"></path>
<path fill="#fff" d="M150.309 272.77l-16.967 30.85s-56.372 96.617-74.321 267.275h65.627z"></path>
<path fill="#ea6877" d="M111.887 351.298v0 0z"></path>
<path fill="#ea6877" d="M2163.431 627.829c-2.54-20.122-7.464-38.398-14.545-55.557l0.522 1.429c6.703 17.362 11.649 37.539 13.928 58.516l0.095 1.081h-101.947c-1.963-99.282 26.924-140.228 26.924-140.228-95.496-76.284-271.342-100.403-480.704-148.502 0 0-201.368-178.091-263.77-222.684-84.137-60.859-166.872-82.875-339.353-87.082-242.596-5.89-739.145 0-739.145 0v39.264l53.988 14.865s-130.272 77.686-207.679 261.947v220.018h-52.726s-59.036 54.128-59.036 98.16v49.221s39.264 34.496 44.312 54.128v34.496h41.228c0.209-123.059 100.015-222.738 223.103-222.738 123.217 0 223.104 99.887 223.104 223.104 0 20.873-2.866 41.077-8.228 60.24l0.375-1.569h1048.63c-5.518-18.475-8.693-39.703-8.693-61.673 0-123.217 99.887-223.104 223.104-223.104s223.104 99.887 223.104 223.104c0 0.188 0 0.375-0.001 0.562v-0.029c-0.107 11.966-1.124 23.609-2.982 34.968l0.177-1.313c0.010 0.907 0.017 1.978 0.017 3.052 0 8.8-0.413 17.503-1.222 26.091l0.083-1.098s186.925-0.561 157.337-238.669zM854.397 417.486h-590.082s-4.067-298.547 163.226-325.751h426.855zM933.065 414.261v-320.282c398.39-29.588 589.942 320.282 589.942 320.282z"></path>
<path fill="#0d0e1b" d="M273.85 798.768c0 15.49 12.556 28.046 28.046 28.046s28.046-12.556 28.046-28.046c0-15.49-12.556-28.046-28.046-28.046v0c-15.49 0-28.046 12.556-28.046 28.046v0z"></path>
<path fill="#0d0e1b" d="M105.015 798.768c0 108.425 87.896 196.32 196.32 196.32s196.32-87.896 196.32-196.32c0-108.425-87.896-196.32-196.32-196.32v0c-108.425 0-196.32 87.896-196.32 196.32v0z"></path>
<path fill="#fff" d="M301.615 933.948c-74.658 0-135.18-60.522-135.18-135.18s60.522-135.18 135.18-135.18c74.658 0 135.18 60.522 135.18 135.18v0c-0.079 74.626-60.554 135.101-135.173 135.18h-0.007zM301.615 682.658c-64.048 0-115.969 51.921-115.969 115.969s51.921 115.969 115.969 115.969c63.999 0 115.889-51.841 115.969-115.821v-0.007c0-64.076-51.904-116.030-115.962-116.109h-0.007z"></path>
<path fill="#fff" d="M369.767 759.925c-6.738-11.565-10.716-25.456-10.716-40.277 0-11.115 2.237-21.709 6.287-31.353l-0.199 0.534c-14.779 19.181-37.758 31.418-63.594 31.418s-48.814-12.236-63.455-31.23l-0.139-0.187c3.735 8.951 5.904 19.352 5.904 30.258 0 40.801-30.356 74.511-69.716 79.776l-0.412 0.045c39.442 5.475 69.48 38.975 69.48 79.49 0 11.195-2.294 21.854-6.436 31.533l0.199-0.523c14.808-19.13 37.777-31.327 63.594-31.327s48.786 12.197 63.457 31.143l0.137 0.184c-3.783-8.987-5.98-19.432-5.98-30.391 0-40.672 30.273-74.275 69.515-79.504l0.41-0.045c-25.066-3.718-46.056-18.516-58.129-39.162l-0.207-0.382z"></path>
<path fill="#0d0e1b" d="M340.599 798.768c0 21.53-17.454 38.984-38.984 38.984s-38.984-17.454-38.984-38.984c0-21.53 17.454-38.984 38.984-38.984s38.984 17.454 38.984 38.984z"></path>
<path fill="#0d0e1b" d="M1590.317 798.768c0 108.425 87.896 196.32 196.32 196.32s196.32-87.896 196.32-196.32c0-108.425-87.896-196.32-196.32-196.32v0c-108.425 0-196.32 87.896-196.32 196.32v0z"></path>
<path fill="#fff" d="M1786.917 933.948c-74.658 0-135.18-60.522-135.18-135.18s60.522-135.18 135.18-135.18c74.658 0 135.18 60.522 135.18 135.18v0c-0.079 74.626-60.554 135.101-135.173 135.18h-0.007zM1786.917 682.658c-63.927 0.16-115.688 52.019-115.688 115.969 0 64.048 51.921 115.969 115.969 115.969 63.999 0 115.889-51.841 115.969-115.821v-0.007c0-64.125-51.984-116.109-116.109-116.109-0.049 0-0.098 0-0.148 0h0.007z"></path>
<path fill="#fff" d="M1855.068 759.925c-6.738-11.565-10.716-25.456-10.716-40.277 0-11.115 2.237-21.709 6.287-31.353l-0.199 0.534c-14.779 19.181-37.758 31.418-63.594 31.418s-48.814-12.236-63.455-31.23l-0.139-0.187c3.735 8.951 5.904 19.352 5.904 30.258 0 40.801-30.356 74.511-69.716 79.776l-0.412 0.045c39.442 5.475 69.48 38.975 69.48 79.49 0 11.195-2.294 21.854-6.436 31.533l0.199-0.523c14.808-19.13 37.777-31.327 63.594-31.327s48.786 12.197 63.457 31.143l0.137 0.184c-3.783-8.987-5.98-19.432-5.98-30.391 0-40.672 30.273-74.275 69.515-79.504l0.41-0.045c-25.066-3.718-46.056-18.516-58.129-39.162l-0.207-0.382z"></path>
<path fill="#0d0e1b" d="M1825.901 798.768c0 21.53-17.454 38.984-38.984 38.984s-38.984-17.454-38.984-38.984c0-21.53 17.454-38.984 38.984-38.984s38.984 17.454 38.984 38.984z"></path>
</svg>
