<svg id="Layer_1" data-name="Layer 1" xmlns="http://www.w3.org/2000/svg" xmlns:xlink="http://www.w3.org/1999/xlink" viewBox="0 0 93.46 64.85"><defs><style>.cls-1{fill:none;}.cls-2{opacity:0.6;}.cls-3{clip-path:url(#clip-path);}.cls-4{fill:#eaeef0;}.cls-5{fill:#fff;}</style><clipPath id="clip-path"><rect class="cls-1" x="8.63" y="10.26" width="76.19" height="44.33"/></clipPath></defs><title>ก้อนเมฆ</title><g class="cls-2"><g class="cls-3"><path class="cls-4" d="M66.19,27.06l10.72,1.07L64.76,36.36l2.5,15.37L49,52.09s3.35-21.29,8.72-23.8,8.44-1.23,8.44-1.23"/><path class="cls-5" d="M76.91,28.13s8.58,6.08,7.87,8.58-6.44,13.23-6.44,13.23L67.26,51.73l-2.5-15.37Z"/><path class="cls-4" d="M31.51,54.23S18.29,52.8,16.86,51.37s-8.22-11.8-8.22-11.8l10-5L29,20.63l7.15,20L32.94,54.59"/><path class="cls-5" d="M29,20.63s1.07,18.59,5.36,19.66,15-2.14,16.09-1.79,10-16.09,10-16.09l1.07-5.72-2.86-3.93-16.44-2.5Z"/><polygon class="cls-5" points="57.61 38.32 65.11 26.88 61.54 16.7 51.53 36.54 49.39 51.19 57.61 38.32"/><polygon class="cls-4" points="36.16 40.65 51.53 37.79 51.53 51.73 32.94 54.59 36.16 40.65"/><path class="cls-5" d="M29,20.63,17.57,23.85,8.63,39.57s6.08.36,7.86-.72S29,20.63,29,20.63"/></g></g></svg>