<?xml version="1.0" encoding="utf-8"?>
<!-- Generator: Adobe Illustrator 19.0.0, SVG Export Plug-In . SVG Version: 6.00 Build 0)  -->
<svg version="1.1" id="Layer_1" xmlns="http://www.w3.org/2000/svg" xmlns:xlink="http://www.w3.org/1999/xlink" x="0px" y="0px"
	 viewBox="2 340.4 617 104.1" style="enable-background:new 2 340.4 617 104.1;" xml:space="preserve">
<style type="text/css">
	.st0{fill:#ADB6BB;}
	.st1{fill:#98B6B5;}
	.st2{fill:#EAF6F7;}
	.st3{fill:#AFCACA;}
	.st4{fill:#81A6A5;}
	.st5{fill:#CEDEDF;}
	.st6{fill:#95BEBF;}
	.st7{fill:#EEEFEF;}
	.st8{fill:#96C5DC;}
	.st9{fill:#FFFFFF;}
	.st10{fill:#B1DBE7;}
	.st11{fill:#8FA3A3;}
	.st12{fill:#636467;}
	.st13{fill:#F28285;}
	.st14{fill:#E96977;}
	.st15{opacity:0.6;}
	.st16{fill:#A8DDE2;}
	.st17{fill:#12131E;}
	.st18{fill:#5474A5;}
	.st19{fill:#E76977;}
</style>
<title>footer</title>
<path class="st0" d="M157.5,430.7l0.1,11.8c0,0,2.7,1.2,3.5-0.5l-0.8-11.5L157.5,430.7z"/>
<polygon class="st1" points="165,430 175.5,417.1 175.6,419.4 166,430.5 "/>
<path class="st2" d="M141,416.6c1.2-1.9,2.3-3.9,3.3-6c4-7.3,7.9-14.6,11.8-22c0.1-0.2,0.3-0.4,0.4-0.6c0.6,0.6,0.3,1.3,0.1,2
	c-1.6,6.5-3.3,13.1-4.9,19.6c-0.6,2.3-1.1,4.6-1.7,6.9c-0.2,0.8-0.5,1.6-1,2.2c-0.5,0.3-1.1,0.4-1.7,0.3c-1.8-0.2-3.6-0.3-5.4-0.4
	c-0.5-0.1-1-0.3-1.5-0.5C139.8,417.3,140.4,417,141,416.6"/>
<path class="st3" d="M149.1,418.6l7.3-29.3c0.1-0.4,0.1-0.8,0.2-1.1l0.2-0.3c0.9,0.2,1,1,1.3,1.7c0.8,2.2,1.2,4.6,2.1,6.7
	c0.2,0.5,0.3,1,0.1,1.5c-0.5,1.3-0.9,2.7-1.1,4.1c-0.7,3.1-1.4,6.1-2,9.1c-0.1,0.5-0.4,0.9-0.5,1.4c-0.1,0.4-0.3,0.8-0.7,1
	c-1.9,1.5-3.6,3.2-5.6,4.7c-0.3,0.3-0.8,0.5-1.2,0.5L149.1,418.6"/>
<path class="st4" d="M160.1,397.7c-0.1-0.5-0.1-0.9-0.2-1.4c-0.2-2.1,0-4.1,0.4-6.1c0.1-0.4,0.1-0.8,0.1-1.3c0-0.4-0.1-0.9,0.5-1
	c1.9,4.2,3.7,8.4,5.6,12.6c1.8,4.1,3.6,8.2,5.4,12.3c0.1,0.2,0.3,0.5,0.4,0.7c0.9,0.9,1.5,2.1,1.6,3.4c0,0.1,0,0.2-0.1,0.4
	c-0.4,0.6-0.8,0.3-1.1,0c-0.3-0.3-0.9-0.9-1.4-1.4c-2.8-2.7-5.7-5.4-8.4-8.3c-1-2.7-1.9-5.3-2.9-8
	C159.9,399.1,159.8,398.3,160.1,397.7"/>
<path class="st1" d="M161,387.9c-0.3,2.6-0.6,5.2-0.9,7.7c0,0.2-0.1,0.4-0.2,0.6c-0.1-0.3-0.4-0.5-0.4-0.8c-0.3-2.2-1.5-4.1-1.8-6.3
	c-0.1-0.5-0.5-0.9-0.8-1.4c1.2-0.6,2.6-0.4,3.9-0.4C160.8,387.5,160.9,387.8,161,387.9"/>
<path class="st5" d="M140.6,418.6l-0.2-0.6c2.9,0.3,5.8,0.6,8.8,0.7h0.1c0.1,0.1,0.2,0.2,0.3,0.4c0.2,0.9,0.3,1.8,0.2,2.8
	c-0.1,2.7,0.3,5.3,0.2,8c0,0.5,0,1.1-0.1,1.6c-0.2,0.5-0.5,0.5-0.9,0.2c-0.2-0.2-0.4-0.4-0.6-0.7c-2-3.1-4.1-6.2-6-9.3
	c-0.1-0.2-0.2-0.4-0.3-0.5c-0.1-0.2,0-0.6-0.4-0.7C140.9,419.9,140.9,419.1,140.6,418.6"/>
<path class="st1" d="M149.2,418.8c0-0.1,0-0.2,0-0.2c2.5-1.9,4.9-3.9,7.3-5.9c0.1-0.1,0.2-0.1,0.3-0.1c1.1,0.7,2.1,1.6,3.1,2.6
	c1.1,1,2.2,1.8,3.2,2.8c0.3,0.3,0.8,0.4,1.2,0.3c0.6,0.1,0.6,0.5,0.5,1c-0.1,0.4,0,0.8,0.1,1.1c0.2,3.2,0.5,6.4,0.6,9.6
	c0,0.2-0.2,0.4-0.4,0.5c-0.7-0.2-1.3-0.5-1.8-1c-3.9-3-8.1-5.7-12-8.8c-0.4-0.3-0.8-0.5-1.3-0.8
	C149.6,419.5,149.3,419.2,149.2,418.8"/>
<path class="st6" d="M156.6,412.6h-0.2c0.7-2.9,1.3-5.8,1.9-8.7c0.4-1.7,0.8-3.5,1.2-5.2c0.1-0.4,0-0.9,0.6-1c1,2.8,2,5.7,3,8.5
	c0.2,0.5,0.3,1,0.3,1.5c0,0.1,0,0.1,0,0.2c-1,1-2.1,1.9-3.3,2.7c-0.7,0.6-1.5,1.1-2.3,1.6C157.4,412.5,157,412.6,156.6,412.6"/>
<path class="st1" d="M165.4,429.8c-0.4-2.4-0.6-4.9-0.7-7.4c-0.1-0.8-0.1-1.6-0.2-2.4c-0.3-0.6,0.2-0.9,0.6-1.1
	c1-0.7,2.1-1.3,3.2-1.8c0.8-0.3,1.5-0.7,2.1-1.3c0.4-0.3,0.8-0.6,1.4-0.3s1,1,1.5,1.4c0.2,0.2,0.3,0.5,0.6,0.1
	c1.1,0.6,1.3,1.4,0.4,2.5c-1,1.3-2.1,2.5-3.1,3.8c-0.6,0.7-1.1,1.4-1.6,2.2c-1,0.9-2,2-2.7,3.1C166.4,429.3,166.1,429.8,165.4,429.8
	"/>
<path class="st1" d="M171.7,415.6c-0.1,0-0.3,0-0.3,0.1c-2,1.6-4.4,2.4-6.5,3.8c-0.2,0.1-0.3,0.3-0.4,0.5c-0.3-0.3-0.3-0.8-0.1-1.2
	c0.1-0.4,0-0.6-0.4-0.7c-0.3-0.8-0.5-1.6-0.4-2.5c0-2.2-0.4-4.4-0.6-6.6c0-0.4,0.1-0.7,0.1-1.1c0-0.1,0-0.2,0.1-0.3l0,0
	c0.7,0.1,1.1,0.7,1.6,1.2c2,2.2,4.3,4.1,6.4,6.2C171.5,415.3,171.6,415.4,171.7,415.6"/>
<path class="st6" d="M155.2,430.7l-4.7,0.9c-0.4,0.1-0.7,0.2-1.1,0.1c0-4.3-0.4-8.5-0.2-12.8c0.4,0.1,0.7,0.4,0.9,0.7
	c2.7,2.7,4.4,6.2,6.9,9.1c1,1.1,0.9,1.3-0.5,1.5c-0.3,0.1-0.6,0.2-0.8,0.4C155.5,430.7,155.3,430.8,155.2,430.7"/>
<path class="st6" d="M163.6,408.9c0.3,1.7,0.4,3.3,0.5,5c0,1.4,0.6,2.9,0,4.3c0,0.3,0.1,0.6-0.2,0.7s-0.3-0.2-0.5-0.4
	c-2.1-1.6-4.1-3.4-6.1-5.2c-0.3-0.2-0.6-0.4-0.6-0.8c2.2-1.7,4.4-3.4,6.8-4.9c0,0.1,0,0.2,0,0.2
	C163.5,408.2,163.4,408.6,163.6,408.9"/>
<path class="st6" d="M155.4,430.5c0.3-0.9,1.1-0.6,1.9-0.8c-2.3-2.6-4.1-5.6-6.2-8.4c-0.4-0.5-1.1-0.9-1-1.8
	c4.8,3.2,9.5,6.6,14.3,9.9c0.2,0.1,0.4,0.3,0.6,0.5l-6,0.3c-0.4,0.4-1,0.3-1.4,0.5c-0.5,0.1-1,0.1-1.5,0.1c-0.1,0-0.2,0-0.4-0.1
	C155.6,430.7,155.5,430.6,155.4,430.5"/>
<polygon class="st4" points="168.1,404.1 175.4,416.7 174.3,419.7 169.6,411.5 "/>
<polygon class="st2" points="141.6,418.1 139.6,417.7 156.8,387.9 "/>
<path class="st5" d="M139.6,417.7l7.9,13.5l1.3,0.3c0,0-7.1-13.8-7.2-13.5S139.6,417.7,139.6,417.7"/>
<polyline class="st6" points="149.4,431.7 166,430.5 163.7,429.1 149.7,431.3 "/>
<path class="st7" d="M156.1,430.9l0.2,10.8c0,0,0.8,1.3,1.4,0.9l0.2-11.3L156.1,430.9z"/>
<path class="st0" d="M178.8,433.4l0.1,8.1c0,0,1.8,0.8,2.4-0.3l-0.6-7.9L178.8,433.4z"/>
<polygon class="st1" points="183.9,432.9 191.1,424.1 191.1,425.6 184.6,433.2 "/>
<path class="st2" d="M167.5,423.7c0.8-1.3,1.6-2.7,2.3-4.1c2.7-5,5.4-10,8.1-15c0.1-0.1,0.2-0.3,0.3-0.4c0.4,0.4,0.2,0.9,0.1,1.4
	c-1.1,4.5-2.2,8.9-3.4,13.4c-0.4,1.6-0.8,3.1-1.2,4.7c-0.1,0.5-0.3,1.1-0.7,1.5c-0.3,0.2-0.8,0.3-1.1,0.2c-1.2-0.1-2.5-0.2-3.7-0.3
	c-0.4-0.1-0.7-0.2-1.1-0.3C166.7,424.3,167.1,424,167.5,423.7"/>
<path class="st3" d="M173,425.1l5-20.1c0.1-0.3,0.1-0.5,0.1-0.8l0.1-0.2c0.6,0.1,0.7,0.7,0.9,1.2c0.6,1.5,0.8,3.1,1.4,4.6
	c0.2,0.3,0.2,0.7,0.1,1c-0.4,0.9-0.6,1.9-0.7,2.8c-0.5,2.1-1,4.2-1.4,6.3c-0.1,0.3-0.2,0.6-0.3,1c-0.1,0.3-0.2,0.5-0.5,0.7
	c-1.3,1-2.5,2.2-3.8,3.2c-0.2,0.2-0.5,0.4-0.8,0.4L173,425.1"/>
<path class="st4" d="M180.6,410.8l-0.2-1c-0.1-1.4,0-2.8,0.3-4.2c0.1-0.3,0.1-0.6,0.1-0.9c0-0.3-0.1-0.6,0.4-0.7
	c1.3,2.9,2.6,5.8,3.8,8.7c1.2,2.8,2.5,5.6,3.7,8.4c0.1,0.2,0.2,0.3,0.3,0.5c0.6,0.6,1,1.5,1.1,2.3c0,0.1,0,0.2,0,0.2
	c-0.3,0.4-0.5,0.2-0.8,0c-0.2-0.2-0.6-0.6-0.9-0.9c-1.9-1.9-3.9-3.7-5.8-5.6c-0.7-1.8-1.3-3.6-2-5.4
	C180.4,411.7,180.4,411.2,180.6,410.8"/>
<path class="st1" d="M181.2,404.1c-0.2,1.8-0.4,3.5-0.6,5.3c0,0.2-0.1,0.3-0.2,0.4c-0.1-0.2-0.3-0.3-0.3-0.5c-0.2-1.5-1-2.8-1.2-4.3
	c0-0.3-0.4-0.6-0.6-0.9c0.9-0.3,1.8-0.4,2.6-0.3C181,403.8,181.1,404,181.2,404.1"/>
<path class="st5" d="M167.2,425l-0.1-0.4c2,0.2,4,0.4,6,0.5l0,0c0.1,0.1,0.1,0.1,0.2,0.2c0.1,0.6,0.2,1.3,0.1,1.9
	c-0.1,1.8,0.2,3.6,0.2,5.5c0,0.4,0,0.7-0.1,1.1c-0.1,0.3-0.4,0.4-0.6,0.1c-0.2-0.1-0.3-0.3-0.4-0.5c-1.4-2.1-2.8-4.2-4.1-6.4
	c-0.1-0.1-0.1-0.2-0.2-0.4s0-0.4-0.3-0.5C167.4,425.9,167.4,425.4,167.2,425"/>
<path class="st1" d="M173.1,425.2c0,0,0-0.1,0-0.2c1.7-1.3,3.4-2.7,5-4.1c0.1-0.1,0.1-0.1,0.2-0.1c0.8,0.5,1.5,1.1,2.1,1.8
	c0.7,0.7,1.5,1.3,2.2,1.9c0.2,0.2,0.5,0.3,0.8,0.2c0.4,0.1,0.4,0.4,0.4,0.7c0,0.3,0,0.5,0.1,0.8c0.2,2.2,0.3,4.4,0.4,6.6
	c0,0.2-0.2,0.3-0.3,0.3c-0.5-0.1-0.9-0.4-1.2-0.7c-2.7-2-5.5-3.9-8.2-6c-0.3-0.2-0.6-0.4-0.9-0.6
	C173.4,425.7,173.2,425.4,173.1,425.2"/>
<path class="st6" d="M178.2,421H178c0.4-2,0.9-4,1.3-6c0.3-1.2,0.5-2.4,0.8-3.5c0.1-0.3,0-0.6,0.4-0.7c0.7,1.9,1.4,3.9,2.1,5.8
	c0.1,0.3,0.2,0.7,0.2,1c0,0,0,0.1,0,0.1c-0.7,0.7-1.4,1.3-2.3,1.8c-0.5,0.4-1,0.7-1.5,1.1C178.8,420.9,178.5,421,178.2,421"/>
<path class="st1" d="M184.2,432.7c-0.3-1.7-0.4-3.3-0.5-5c0-0.5-0.1-1.1-0.1-1.6s0.1-0.6,0.4-0.8c0.7-0.5,1.4-0.9,2.2-1.2
	c0.5-0.2,1-0.5,1.4-0.9c0.3-0.2,0.6-0.4,0.9-0.2s0.7,0.6,1,1c0.1,0.1,0.2,0.3,0.4,0.1c0.8,0.4,0.9,1,0.3,1.7s-1.4,1.7-2.1,2.6
	c-0.4,0.5-0.8,0.9-1.1,1.5c-0.7,0.6-1.3,1.3-1.9,2.1C184.9,432.4,184.6,432.8,184.2,432.7"/>
<path class="st1" d="M188.5,423c-0.1,0-0.2,0-0.2,0.1c-1.3,1.1-3,1.6-4.4,2.6c-0.1,0.1-0.2,0.2-0.3,0.4c-0.2-0.2-0.2-0.6-0.1-0.8
	c0.1-0.2,0-0.4-0.2-0.5c-0.2-0.5-0.3-1.1-0.2-1.7c0-1.5-0.3-3-0.4-4.5c0-0.3,0.1-0.5,0.1-0.7c0-0.1,0-0.2,0.1-0.2l0,0
	c0.5,0.1,0.8,0.5,1.1,0.8c1.4,1.5,2.9,2.8,4.4,4.3C188.3,422.8,188.4,422.9,188.5,423"/>
<path class="st6" d="M177.2,433.4L174,434c-0.2,0.1-0.5,0.1-0.8,0.1c0-2.9-0.2-5.8-0.1-8.7c0.3,0.1,0.5,0.2,0.6,0.5
	c1.8,1.9,3,4.2,4.7,6.2c0.7,0.8,0.6,0.9-0.4,1c-0.2,0-0.4,0.2-0.5,0.3C177.4,433.3,177.3,433.4,177.2,433.4"/>
<path class="st6" d="M182.9,418.4c0.2,1.1,0.3,2.3,0.3,3.4c0,1,0.4,2,0,2.9c0,0.2,0.1,0.4-0.1,0.5s-0.2-0.2-0.4-0.3
	c-1.4-1.1-2.8-2.3-4.2-3.5c-0.2-0.2-0.4-0.3-0.4-0.5c1.5-1.2,3-2.3,4.6-3.3c0,0.1,0,0.1,0,0.2C182.8,417.8,182.8,418.2,182.9,418.4"
	/>
<path class="st6" d="M177.4,433.2c0.2-0.6,0.8-0.4,1.3-0.5c-1.6-1.8-2.8-3.8-4.3-5.7c-0.3-0.3-0.8-0.6-0.7-1.2
	c3.3,2.2,6.5,4.5,9.8,6.8c0.1,0.1,0.3,0.2,0.4,0.3l-4.1,0.2c-0.3,0.3-0.6,0.2-1,0.3c-0.3,0.1-0.7,0.1-1,0.1c-0.1,0-0.2,0-0.3-0.1
	C177.4,433.3,177.4,433.3,177.4,433.2"/>
<polygon class="st4" points="186,415.2 191,423.8 190.3,425.8 187.1,420.2 "/>
<polygon class="st2" points="167.9,424.7 166.5,424.5 178.3,404 "/>
<path class="st5" d="M166.5,424.5l5.5,9.2l0.9,0.2c0,0-4.9-9.4-5-9.2S166.5,424.5,166.5,424.5"/>
<polyline class="st6" points="173.2,434 184.6,433.2 183,432.3 173.5,433.8 "/>
<path class="st7" d="M177.8,433.4l0.1,7.3c0,0,0.6,0.9,1,0.6l0.2-7.7L177.8,433.4z"/>
<rect x="118.2" y="349.9" class="st7" width="28.8" height="93.6"/>
<rect x="120.2" y="356.7" class="st8" width="6.5" height="6.2"/>
<rect x="120.2" y="365.2" class="st8" width="6.5" height="6.2"/>
<rect x="120.2" y="373.8" class="st8" width="6.5" height="6.2"/>
<rect x="120.2" y="382.4" class="st8" width="6.5" height="6.2"/>
<rect x="120.2" y="390.9" class="st8" width="6.5" height="6.2"/>
<rect x="120.2" y="399.5" class="st8" width="6.5" height="6.2"/>
<rect x="120.2" y="408.1" class="st8" width="6.5" height="6.2"/>
<rect x="129.4" y="356.7" class="st8" width="6.5" height="6.2"/>
<rect x="129.4" y="365.2" class="st8" width="6.5" height="6.2"/>
<rect x="129.4" y="373.8" class="st8" width="6.5" height="6.2"/>
<rect x="129.4" y="382.4" class="st8" width="6.5" height="6.2"/>
<rect x="129.4" y="390.9" class="st8" width="6.5" height="6.2"/>
<rect x="129.4" y="399.5" class="st8" width="6.5" height="6.2"/>
<rect x="129.4" y="408.1" class="st8" width="6.5" height="6.2"/>
<rect x="138.6" y="356.7" class="st8" width="6.5" height="6.2"/>
<rect x="138.6" y="365.2" class="st8" width="6.5" height="6.2"/>
<rect x="138.6" y="373.8" class="st8" width="6.5" height="6.2"/>
<rect x="138.6" y="382.4" class="st8" width="6.5" height="6.2"/>
<rect x="138.6" y="390.9" class="st8" width="6.5" height="6.2"/>
<rect x="138.6" y="399.5" class="st8" width="6.5" height="6.2"/>
<rect x="138.6" y="408.1" class="st8" width="6.5" height="6.2"/>
<path class="st0" d="M158,431.6l0.1,11.8c0,0,2.7,1.2,3.5-0.5l-0.8-11.5L158,431.6z"/>
<polygon class="st1" points="165.5,430.9 176,418 176.1,420.3 166.5,431.4 "/>
<path class="st2" d="M141.5,417.5c1.2-1.9,2.3-3.9,3.3-6c4-7.3,7.9-14.6,11.8-22c0.1-0.2,0.3-0.4,0.4-0.6c0.6,0.6,0.3,1.3,0.1,2
	c-1.6,6.5-3.3,13.1-4.9,19.6c-0.6,2.3-1.1,4.6-1.7,6.9c-0.2,0.8-0.5,1.6-1,2.2c-0.5,0.3-1.1,0.4-1.7,0.3c-1.8-0.2-3.6-0.3-5.4-0.4
	c-0.5-0.1-1-0.2-1.5-0.4C140.4,418.3,141,417.9,141.5,417.5"/>
<path class="st3" d="M149.6,419.5l7.3-29.3c0.1-0.4,0.1-0.8,0.2-1.1l0.2-0.3c0.9,0.2,1,1,1.3,1.7c0.8,2.2,1.2,4.5,2.1,6.7
	c0.2,0.5,0.3,1,0.1,1.5c-0.5,1.3-0.9,2.7-1.1,4.1c-0.7,3-1.4,6.1-2,9.1c-0.1,0.5-0.4,0.9-0.5,1.4c-0.1,0.4-0.3,0.8-0.7,1
	c-1.9,1.5-3.6,3.2-5.6,4.7c-0.3,0.3-0.8,0.5-1.2,0.5L149.6,419.5"/>
<path class="st4" d="M160.6,398.6c-0.1-0.5-0.1-0.9-0.2-1.4c-0.2-2.1,0-4.1,0.4-6.1c0.1-0.4,0.1-0.8,0.1-1.3c0-0.4-0.1-0.9,0.5-1
	c1.9,4.2,3.7,8.4,5.6,12.6c1.8,4.1,3.6,8.2,5.4,12.3c0.1,0.2,0.3,0.5,0.4,0.7c0.9,0.9,1.5,2.1,1.6,3.4c0,0.1,0,0.2-0.1,0.4
	c-0.4,0.6-0.8,0.3-1.1,0c-0.3-0.3-0.9-0.9-1.4-1.4c-2.8-2.7-5.7-5.4-8.4-8.3c-1-2.7-1.9-5.3-2.9-8
	C160.4,399.9,160.3,399.2,160.6,398.6"/>
<path class="st1" d="M161.5,388.8c-0.3,2.6-0.6,5.2-0.9,7.7c0,0.2-0.1,0.4-0.2,0.6c-0.1-0.3-0.4-0.5-0.4-0.8
	c-0.3-2.2-1.5-4.1-1.8-6.3c-0.1-0.5-0.5-0.9-0.8-1.4c1.2-0.6,2.6-0.4,3.9-0.4C161.3,388.4,161.4,388.6,161.5,388.8"/>
<path class="st5" d="M141,419.5l-0.2-0.6c2.9,0.3,5.8,0.6,8.8,0.7h0.1c0.1,0.1,0.2,0.2,0.3,0.4c0.2,0.9,0.3,1.8,0.2,2.8
	c-0.1,2.7,0.3,5.3,0.2,8c0,0.5,0,1.1-0.1,1.6c-0.2,0.5-0.5,0.5-0.9,0.2c-0.2-0.2-0.4-0.4-0.6-0.7c-2-3.1-4.1-6.2-6-9.3
	c-0.1-0.2-0.2-0.4-0.3-0.5c-0.1-0.2,0-0.6-0.4-0.7C141.3,420.8,141.4,420,141,419.5"/>
<path class="st1" d="M149.7,419.6c0-0.1,0-0.2,0-0.2c2.5-1.9,4.9-3.9,7.3-5.9c0.1-0.1,0.2-0.1,0.3-0.1c1.1,0.7,2.1,1.6,3.1,2.6
	c1.1,1,2.2,1.8,3.2,2.8c0.3,0.3,0.8,0.4,1.2,0.3c0.6,0.1,0.6,0.5,0.5,1c-0.1,0.4,0,0.8,0.1,1.1c0.2,3.2,0.5,6.4,0.6,9.6
	c0,0.3-0.2,0.5-0.5,0.5c-0.7-0.2-1.3-0.5-1.8-1c-3.9-3-8.1-5.7-12-8.8c-0.4-0.3-0.8-0.5-1.3-0.8
	C150.1,420.4,149.8,420.1,149.7,419.6"/>
<path class="st6" d="M157.1,413.5h-0.2c0.7-2.9,1.3-5.8,1.9-8.7c0.4-1.7,0.8-3.5,1.2-5.2c0.1-0.4,0-0.9,0.6-1c1,2.8,2,5.7,3,8.5
	c0.2,0.5,0.3,1,0.3,1.5c0,0,0,0.1,0,0.2c-1,1-2.1,1.9-3.3,2.6c-0.7,0.6-1.5,1.1-2.3,1.6C158,413.3,157.5,413.5,157.1,413.5"/>
<path class="st1" d="M165.9,430.7c-0.4-2.4-0.6-4.9-0.7-7.4c-0.1-0.8-0.1-1.6-0.2-2.4c-0.3-0.6,0.2-0.9,0.6-1.1
	c1-0.7,2.1-1.3,3.2-1.8c0.8-0.3,1.5-0.7,2.1-1.3c0.4-0.3,0.8-0.6,1.4-0.3c0.5,0.4,1,1,1.5,1.4c0.2,0.2,0.3,0.5,0.6,0.1
	c1.1,0.6,1.3,1.4,0.4,2.5c-1,1.3-2.1,2.5-3.1,3.8c-0.6,0.7-1.1,1.4-1.6,2.2c-1,0.9-2,2-2.7,3.1C166.9,430.2,166.6,430.7,165.9,430.7
	"/>
<path class="st1" d="M172.2,416.5c-0.1,0-0.3,0-0.3,0.1c-2,1.6-4.4,2.4-6.5,3.8c-0.2,0.1-0.3,0.3-0.4,0.5c-0.3-0.3-0.3-0.8-0.1-1.2
	c0.1-0.4,0-0.6-0.4-0.7c-0.3-0.8-0.5-1.6-0.4-2.5c0-2.2-0.4-4.4-0.6-6.6c0-0.4,0.1-0.7,0.1-1.1c0-0.1,0-0.2,0.1-0.3l0,0
	c0.7,0.1,1.1,0.7,1.6,1.2c2,2.2,4.3,4.1,6.4,6.2C171.9,416.1,172.1,416.3,172.2,416.5"/>
<path class="st6" d="M155.7,431.6l-4.7,0.9c-0.4,0.1-0.7,0.2-1.1,0.1c0-4.3-0.4-8.5-0.2-12.8c0.4,0.1,0.7,0.4,0.9,0.7
	c2.7,2.7,4.4,6.2,6.9,9.1c1,1.1,0.9,1.3-0.5,1.5c-0.3,0.1-0.6,0.2-0.8,0.4C156,431.6,155.8,431.6,155.7,431.6"/>
<path class="st6" d="M164.1,409.7c0.3,1.7,0.4,3.3,0.5,5c0,1.4,0.6,2.9,0,4.3c0,0.3,0.1,0.6-0.2,0.7s-0.3-0.2-0.5-0.4
	c-2.1-1.6-4.1-3.4-6.1-5.2c-0.3-0.2-0.6-0.4-0.6-0.8c2.2-1.7,4.4-3.4,6.8-4.9c0,0.1,0,0.2,0,0.2C164,409.1,163.9,409.5,164.1,409.7"
	/>
<path class="st6" d="M155.9,431.4c0.3-0.9,1.1-0.6,1.9-0.8c-2.3-2.6-4.1-5.6-6.2-8.4c-0.4-0.5-1.1-0.9-1-1.8
	c4.8,3.2,9.5,6.6,14.3,9.9c0.2,0.1,0.4,0.3,0.6,0.5l-6,0.3c-0.4,0.4-1,0.3-1.4,0.4c-0.5,0.1-1,0.1-1.5,0.1c-0.1,0-0.2,0-0.4-0.1
	C156.1,431.6,156,431.5,155.9,431.4"/>
<polygon class="st4" points="168.6,405 175.9,417.6 174.8,420.6 170.1,412.3 "/>
<polygon class="st2" points="142.1,419 140.1,418.6 157.3,388.8 "/>
<path class="st5" d="M140.1,418.6l7.9,13.5l1.3,0.3c0,0-7.1-13.8-7.2-13.5S140.1,418.6,140.1,418.6"/>
<polyline class="st6" points="149.9,432.5 166.5,431.4 164.2,430 150.2,432.2 "/>
<path class="st7" d="M156.6,431.7l0.2,10.8c0,0,0.8,1.3,1.4,0.9l0.2-11.3L156.6,431.7z"/>
<path class="st0" d="M179.3,435.4l0.1,8.1c0,0,1.8,0.8,2.4-0.3l-0.6-7.9L179.3,435.4z"/>
<polygon class="st1" points="184.4,434.9 191.6,426.1 191.6,427.6 185.1,435.3 "/>
<path class="st2" d="M168,425.8c0.8-1.3,1.6-2.7,2.3-4.1c2.7-5,5.4-10,8.1-15c0.1-0.1,0.2-0.3,0.3-0.4c0.4,0.4,0.2,0.9,0.1,1.3
	c-1.1,4.5-2.2,8.9-3.4,13.4c-0.4,1.6-0.8,3.1-1.2,4.7c-0.1,0.5-0.3,1.1-0.7,1.5c-0.3,0.2-0.8,0.3-1.1,0.2c-1.2-0.1-2.5-0.2-3.7-0.3
	c-0.4-0.1-0.7-0.2-1.1-0.3C167.2,426.3,167.6,426.1,168,425.8"/>
<path class="st3" d="M173.5,427.1l5-20.1c0.1-0.3,0.1-0.5,0.1-0.8l0.1-0.2c0.6,0.1,0.7,0.7,0.9,1.2c0.6,1.5,0.8,3.1,1.4,4.6
	c0.2,0.3,0.2,0.7,0.1,1c-0.4,0.9-0.6,1.9-0.7,2.8c-0.5,2.1-1,4.2-1.4,6.3c-0.1,0.3-0.2,0.6-0.3,1c-0.1,0.3-0.2,0.5-0.5,0.7
	c-1.3,1-2.5,2.2-3.8,3.2c-0.2,0.2-0.5,0.4-0.8,0.4L173.5,427.1"/>
<path class="st4" d="M181,412.8l-0.2-1c-0.1-1.4,0-2.8,0.3-4.2c0.1-0.3,0.1-0.6,0.1-0.9c0-0.3-0.1-0.6,0.4-0.7
	c1.3,2.9,2.6,5.8,3.9,8.6c1.2,2.8,2.5,5.6,3.7,8.4c0.1,0.2,0.2,0.3,0.3,0.5c0.6,0.6,1,1.5,1.1,2.4c0,0.1,0,0.2,0,0.2
	c-0.3,0.4-0.5,0.2-0.8,0c-0.2-0.2-0.6-0.6-0.9-0.9c-1.9-1.9-3.9-3.7-5.8-5.6c-0.7-1.8-1.3-3.6-2-5.4
	C180.9,413.7,180.8,413.2,181,412.8"/>
<path class="st1" d="M181.7,406.1c-0.2,1.8-0.4,3.5-0.6,5.3c0,0.2-0.1,0.3-0.2,0.4c-0.1-0.2-0.3-0.3-0.3-0.5c-0.2-1.5-1-2.8-1.2-4.3
	c0-0.3-0.4-0.6-0.6-0.9c0.9-0.3,1.8-0.4,2.6-0.3C181.5,405.8,181.6,406,181.7,406.1"/>
<path class="st5" d="M167.7,427.1l-0.1-0.4c2,0.2,4,0.4,6,0.5l0,0c0.1,0.1,0.1,0.1,0.2,0.2c0.1,0.6,0.2,1.3,0.1,1.9
	c-0.1,1.8,0.2,3.6,0.2,5.4c0,0.4,0,0.7-0.1,1.1c-0.1,0.3-0.4,0.4-0.6,0.1c-0.2-0.1-0.3-0.3-0.4-0.5c-1.4-2.1-2.8-4.2-4.1-6.4
	c-0.1-0.1-0.1-0.2-0.2-0.4s0-0.5-0.3-0.5C167.8,428,167.9,427.4,167.7,427.1"/>
<path class="st1" d="M173.6,427.2c0-0.1,0-0.1,0-0.2c1.7-1.3,3.4-2.7,5-4.1c0.1-0.1,0.1-0.1,0.2-0.1c0.8,0.5,1.5,1.1,2.1,1.8
	c0.7,0.7,1.5,1.3,2.2,1.9c0.2,0.2,0.5,0.3,0.8,0.2c0.4,0.1,0.4,0.4,0.4,0.7c0,0.3,0,0.5,0.1,0.8c0.2,2.2,0.3,4.4,0.4,6.6
	c0,0.2-0.2,0.3-0.3,0.3c-0.5-0.1-0.9-0.4-1.2-0.7c-2.7-2-5.5-3.9-8.2-6c-0.3-0.2-0.6-0.4-0.9-0.6
	C173.9,427.7,173.7,427.5,173.6,427.2"/>
<path class="st6" d="M178.7,423h-0.2c0.4-2,0.9-4,1.3-6c0.3-1.2,0.5-2.4,0.8-3.5c0.1-0.3,0-0.6,0.4-0.7c0.7,1.9,1.4,3.9,2.1,5.8
	c0.1,0.3,0.2,0.7,0.2,1c0,0,0,0.1,0,0.1c-0.7,0.7-1.4,1.3-2.3,1.9c-0.5,0.4-1,0.7-1.5,1.1C179.3,422.9,179,423,178.7,423"/>
<path class="st1" d="M184.7,434.8c-0.3-1.7-0.4-3.3-0.5-5c0-0.6-0.1-1.1-0.1-1.6c0-0.6,0.1-0.6,0.4-0.8c0.7-0.5,1.4-0.9,2.2-1.2
	c0.5-0.2,1-0.5,1.4-0.9c0.3-0.2,0.6-0.4,0.9-0.2s0.7,0.7,1,1c0.1,0.1,0.2,0.3,0.4,0.1c0.8,0.4,0.9,1,0.3,1.7
	c-0.6,0.7-1.4,1.7-2.1,2.6c-0.4,0.5-0.8,1-1.1,1.5c-0.7,0.6-1.3,1.3-1.9,2.1C185.4,434.5,185.1,434.9,184.7,434.8"/>
<path class="st1" d="M189,425.1c-0.1,0-0.2,0-0.2,0c-1.3,1.1-3,1.6-4.4,2.6c-0.1,0.1-0.2,0.2-0.3,0.4c-0.2-0.2-0.2-0.6-0.1-0.8
	c0.1-0.2,0-0.4-0.2-0.5c-0.2-0.5-0.3-1.1-0.2-1.7c0-1.5-0.3-3-0.4-4.5c0-0.3,0.1-0.5,0.1-0.7c0-0.1,0-0.2,0.1-0.2l0,0
	c0.5,0.1,0.8,0.5,1.1,0.8c1.4,1.5,2.9,2.8,4.4,4.3C188.8,424.8,188.9,425,189,425.1"/>
<path class="st6" d="M177.7,435.4l-3.2,0.6c-0.2,0.1-0.5,0.1-0.8,0.1c0-2.9-0.2-5.8-0.1-8.7c0.3,0.1,0.5,0.2,0.6,0.5
	c1.8,1.9,3,4.2,4.7,6.2c0.7,0.8,0.6,0.9-0.4,1c-0.2,0-0.4,0.2-0.5,0.3C177.9,435.3,177.8,435.4,177.7,435.4"/>
<path class="st6" d="M183.4,420.5c0.2,1.1,0.3,2.3,0.3,3.4c0,1,0.4,2,0,2.9c0,0.2,0.1,0.4-0.1,0.5s-0.2-0.2-0.4-0.3
	c-1.4-1.1-2.8-2.3-4.2-3.6c-0.2-0.2-0.4-0.3-0.4-0.5c1.5-1.2,3-2.3,4.6-3.3c0,0.1,0,0.1,0,0.2C183.3,419.9,183.3,420.3,183.4,420.5"
	/>
<path class="st6" d="M177.9,435.3c0.2-0.6,0.8-0.4,1.3-0.5c-1.6-1.8-2.8-3.8-4.3-5.7c-0.3-0.3-0.8-0.6-0.7-1.2
	c3.3,2.2,6.5,4.5,9.8,6.8c0.1,0.1,0.3,0.2,0.4,0.3l-4.1,0.2c-0.3,0.3-0.6,0.2-1,0.3c-0.3,0.1-0.7,0.1-1,0.1c-0.1,0-0.2,0-0.3-0.1
	C177.9,435.4,177.9,435.3,177.9,435.3"/>
<polygon class="st4" points="186.5,417.2 191.5,425.8 190.8,427.9 187.6,422.2 "/>
<polygon class="st2" points="168.4,426.8 167,426.5 178.8,406.1 "/>
<path class="st5" d="M167,426.5l5.4,9.2l0.9,0.2c0,0-4.9-9.4-5-9.2C168.2,427,167,426.5,167,426.5"/>
<polyline class="st6" points="173.7,436 185.1,435.3 183.5,434.3 174,435.8 "/>
<path class="st7" d="M178.3,435.5l0.1,7.3c0,0,0.6,0.9,1,0.6l0.2-7.7L178.3,435.5z"/>
<polygon class="st9" points="104.7,394.7 104.7,363 79,363 79,443.3 103.7,443.3 104.7,443.3 129.4,443.3 129.4,394.7 "/>
<rect x="82.7" y="366.4" class="st10" width="17.8" height="3.9"/>
<rect x="82.7" y="372.7" class="st10" width="17.8" height="3.9"/>
<rect x="82.7" y="379" class="st10" width="17.8" height="3.9"/>
<rect x="82.7" y="385.2" class="st10" width="17.8" height="3.9"/>
<rect x="82.7" y="391.5" class="st10" width="17.8" height="3.9"/>
<rect x="82.7" y="397.8" class="st10" width="43.3" height="3.9"/>
<rect x="82.7" y="404" class="st10" width="43.3" height="3.9"/>
<rect x="82.7" y="410.3" class="st10" width="43.3" height="3.9"/>
<rect x="82.7" y="416.5" class="st10" width="43.3" height="3.9"/>
<rect x="82.7" y="422.8" class="st10" width="43.3" height="3.9"/>
<polygon class="st9" points="588.5,404.8 588.5,382.6 564.6,382.6 564.6,365.6 540,365.6 540,444 560.5,444 564.6,444 577.7,444 
	588.5,444 607.8,444 607.8,404.8 "/>
<rect x="546" y="370.9" class="st10" width="2.6" height="10.1"/>
<rect x="555.9" y="370.9" class="st10" width="2.6" height="10.1"/>
<rect x="546" y="389.6" class="st10" width="2.6" height="10.1"/>
<rect x="555.9" y="389.6" class="st10" width="2.6" height="10.1"/>
<rect x="546" y="408.3" class="st10" width="2.6" height="10.1"/>
<rect x="555.9" y="408.3" class="st10" width="2.6" height="10.1"/>
<rect x="546" y="427" class="st10" width="2.6" height="10.1"/>
<rect x="555.9" y="427" class="st10" width="2.6" height="10.1"/>
<rect x="565.6" y="389.6" class="st10" width="2.6" height="10.1"/>
<rect x="565.6" y="408.3" class="st10" width="2.6" height="10.1"/>
<rect x="565.6" y="427" class="st10" width="2.6" height="10.1"/>
<rect x="575.3" y="389.6" class="st10" width="2.6" height="10.1"/>
<rect x="575.3" y="408.3" class="st10" width="2.6" height="10.1"/>
<rect x="575.3" y="427" class="st10" width="2.6" height="10.1"/>
<rect x="585.1" y="408.3" class="st10" width="2.6" height="10.1"/>
<rect x="585.1" y="427" class="st10" width="2.6" height="10.1"/>
<rect x="594.8" y="408.3" class="st10" width="2.6" height="10.1"/>
<rect x="594.8" y="427" class="st10" width="2.6" height="10.1"/>
<rect x="569.3" y="402.1" class="st7" width="45.2" height="41.9"/>
<rect x="572.2" y="405.2" class="st8" width="14.6" height="14.6"/>
<rect x="588.1" y="405.2" class="st8" width="14.6" height="14.6"/>
<rect x="604.1" y="405.2" class="st8" width="6.7" height="14.6"/>
<rect x="572.2" y="422.3" class="st8" width="14.6" height="14.6"/>
<rect x="588.1" y="422.3" class="st8" width="14.6" height="14.6"/>
<rect x="604.1" y="422.3" class="st8" width="6.7" height="14.6"/>
<polygon class="st9" points="54.9,404.8 54.9,382.6 31,382.6 31,365.6 6.5,365.6 6.5,444 26.9,444 31,444 44.1,444 54.9,444 
	74.3,444 74.3,404.8 "/>
<rect x="12.5" y="370.9" class="st10" width="2.6" height="10.1"/>
<rect x="22.3" y="370.9" class="st10" width="2.6" height="10.1"/>
<rect x="12.5" y="389.6" class="st10" width="2.6" height="10.1"/>
<rect x="22.3" y="389.6" class="st10" width="2.6" height="10.1"/>
<rect x="12.5" y="408.3" class="st10" width="2.6" height="10.1"/>
<rect x="22.3" y="408.3" class="st10" width="2.6" height="10.1"/>
<rect x="12.5" y="427" class="st10" width="2.6" height="10.1"/>
<rect x="22.3" y="427" class="st10" width="2.6" height="10.1"/>
<rect x="32" y="389.6" class="st10" width="2.6" height="10.1"/>
<rect x="32" y="408.3" class="st10" width="2.6" height="10.1"/>
<rect x="32" y="427" class="st10" width="2.6" height="10.1"/>
<rect x="41.8" y="389.6" class="st10" width="2.6" height="10.1"/>
<rect x="41.8" y="408.3" class="st10" width="2.6" height="10.1"/>
<rect x="41.8" y="427" class="st10" width="2.6" height="10.1"/>
<rect x="51.5" y="408.3" class="st10" width="2.6" height="10.1"/>
<rect x="51.5" y="427" class="st10" width="2.6" height="10.1"/>
<rect x="61.3" y="408.3" class="st10" width="2.6" height="10.1"/>
<rect x="61.3" y="427" class="st10" width="2.6" height="10.1"/>
<rect x="35.7" y="402.1" class="st7" width="45.2" height="41.9"/>
<rect x="38.7" y="405.2" class="st8" width="14.6" height="14.6"/>
<rect x="54.5" y="405.2" class="st8" width="14.6" height="14.6"/>
<rect x="70.5" y="405.2" class="st8" width="6.7" height="14.6"/>
<rect x="38.7" y="422.3" class="st8" width="14.6" height="14.6"/>
<rect x="54.5" y="422.3" class="st8" width="14.6" height="14.6"/>
<rect x="70.5" y="422.3" class="st8" width="6.7" height="14.6"/>
<path class="st0" d="M518.8,438.5l0.1,5.3c0,0,1.2,0.5,1.6-0.2l-0.4-5.2L518.8,438.5z"/>
<polygon class="st1" points="522.2,438.2 526.9,432.4 526.9,433.4 522.7,438.4 "/>
<path class="st2" d="M511.4,432.2c0.5-0.9,1-1.8,1.5-2.7c1.8-3.3,3.5-6.6,5.3-9.9c0.1-0.1,0.1-0.2,0.2-0.3c0.3,0.3,0.1,0.6,0,0.9
	c-0.7,2.9-1.5,5.9-2.2,8.8c-0.3,1-0.5,2.1-0.8,3.1c-0.1,0.4-0.2,0.7-0.4,1c-0.2,0.1-0.5,0.2-0.8,0.1c-0.8-0.1-1.6-0.2-2.4-0.2
	c-0.2,0-0.5-0.1-0.7-0.2C510.9,432.5,511.2,432.4,511.4,432.2"/>
<path class="st3" d="M515.1,433.1l3.3-13.2c0-0.2,0.1-0.3,0.1-0.5l0.1-0.1c0.4,0.1,0.5,0.4,0.6,0.8c0.4,1,0.5,2,0.9,3
	c0.1,0.2,0.1,0.4,0,0.7c-0.2,0.6-0.4,1.2-0.5,1.8c-0.3,1.4-0.7,2.7-0.9,4.1c0,0.2-0.2,0.4-0.2,0.6c0,0.2-0.1,0.4-0.3,0.5
	c-0.8,0.7-1.6,1.4-2.5,2.1C515.5,433,515.3,433.1,515.1,433.1L515.1,433.1"/>
<path class="st4" d="M520,423.7l-0.1-0.6c-0.1-0.9,0-1.9,0.2-2.8c0-0.2,0.1-0.4,0.1-0.6c0-0.2,0-0.4,0.2-0.4
	c0.8,1.9,1.7,3.8,2.5,5.7c0.8,1.8,1.6,3.7,2.4,5.5c0.1,0.1,0.1,0.2,0.2,0.3c0.4,0.4,0.7,1,0.7,1.5c0,0.1,0,0.1,0,0.2
	c-0.2,0.3-0.3,0.1-0.5,0s-0.4-0.4-0.6-0.6c-1.3-1.2-2.6-2.4-3.8-3.7c-0.4-1.2-0.9-2.4-1.3-3.6C519.9,424.3,519.9,424,520,423.7"/>
<path class="st1" d="M520.4,419.3c-0.1,1.2-0.3,2.3-0.4,3.5c0,0.1-0.1,0.2-0.1,0.3c-0.1-0.1-0.2-0.2-0.2-0.3c-0.1-1-0.7-1.8-0.8-2.8
	c0-0.2-0.2-0.4-0.4-0.6c0.6-0.2,1.2-0.2,1.7-0.2C520.3,419.1,520.4,419.2,520.4,419.3"/>
<path class="st5" d="M511.2,433l-0.1-0.3c1.3,0.1,2.6,0.3,3.9,0.3l0,0c0.1,0,0.1,0.1,0.1,0.2c0.1,0.4,0.1,0.8,0.1,1.2
	c-0.1,1.2,0.1,2.4,0.1,3.6c0,0.2,0,0.5-0.1,0.7c-0.1,0.2-0.2,0.2-0.4,0.1c-0.1-0.1-0.2-0.2-0.3-0.3c-0.9-1.4-1.8-2.8-2.7-4.2
	l-0.1-0.2c-0.1-0.1,0-0.3-0.2-0.3C511.3,433.6,511.4,433.3,511.2,433"/>
<path class="st1" d="M515.1,433.1c0,0,0-0.1,0-0.1c1.1-0.8,2.2-1.7,3.3-2.7c0,0,0.1,0,0.1,0c0.5,0.3,1,0.7,1.4,1.2
	c0.5,0.4,1,0.8,1.5,1.2c0.1,0.1,0.3,0.2,0.5,0.1c0.3,0.1,0.3,0.2,0.2,0.4c0,0.2,0,0.3,0.1,0.5c0.1,1.4,0.2,2.9,0.3,4.3
	c0,0.1-0.1,0.2-0.2,0.2c-0.3-0.1-0.6-0.2-0.8-0.4c-1.8-1.3-3.6-2.6-5.4-3.9c-0.2-0.1-0.4-0.2-0.6-0.4
	C515.3,433.5,515.2,433.3,515.1,433.1"/>
<path class="st6" d="M518.4,430.4L518.4,430.4l0.8-3.9c0.2-0.8,0.3-1.6,0.5-2.3c0-0.2,0-0.4,0.3-0.5c0.5,1.3,0.9,2.6,1.3,3.8
	c0.1,0.2,0.1,0.4,0.1,0.7c0,0,0,0,0,0.1c-0.4,0.5-0.9,0.9-1.5,1.2c-0.3,0.3-0.7,0.5-1,0.7C518.9,430.3,518.7,430.4,518.4,430.4"/>
<path class="st1" d="M522.4,438.1c-0.2-1.1-0.3-2.2-0.3-3.3c0-0.4,0-0.7-0.1-1.1c-0.1-0.4,0.1-0.4,0.3-0.5c0.5-0.3,0.9-0.6,1.5-0.8
	c0.3-0.1,0.6-0.3,0.9-0.6c0.2-0.1,0.4-0.3,0.6-0.1c0.2,0.2,0.5,0.4,0.7,0.6s0.2,0.2,0.3,0.1c0.5,0.3,0.6,0.6,0.2,1.1
	s-0.9,1.1-1.4,1.7c-0.3,0.3-0.5,0.6-0.7,1c-0.5,0.4-0.9,0.9-1.2,1.4C522.9,437.9,522.7,438.1,522.4,438.1"/>
<path class="st1" d="M525.2,431.7c0,0-0.1,0-0.2,0c-0.9,0.7-2,1.1-2.9,1.7c-0.1,0.1-0.2,0.1-0.2,0.2c-0.1-0.2-0.1-0.4,0-0.5
	c0-0.2,0-0.3-0.2-0.3c-0.2-0.4-0.2-0.7-0.2-1.1c0-1-0.2-2-0.3-3c0-0.2,0.1-0.3,0.1-0.5c0-0.1,0-0.1,0-0.1l0,0c0.3,0,0.5,0.3,0.7,0.5
	c0.9,1,1.9,1.9,2.9,2.8C525.2,431.5,525.2,431.6,525.2,431.7"/>
<path class="st6" d="M517.8,438.5l-2.1,0.4c-0.2,0-0.3,0-0.5,0c0-1.9-0.2-3.8-0.1-5.7c0.2,0.1,0.3,0.2,0.4,0.3
	c1.2,1.2,2,2.8,3.1,4.1c0.4,0.5,0.4,0.6-0.2,0.7c-0.1,0-0.3,0.1-0.3,0.2C517.9,438.4,517.9,438.4,517.8,438.5"/>
<path class="st6" d="M521.6,428.7c0.1,0.7,0.2,1.5,0.2,2.3c0.1,0.6,0.1,1.3,0,1.9c0,0.1,0,0.3-0.1,0.3c-0.1,0.1-0.2-0.1-0.2-0.2
	c-1-0.7-1.9-1.5-2.7-2.3c-0.1-0.1-0.3-0.2-0.3-0.4c1-0.8,2-1.5,3-2.2c0,0,0,0.1,0,0.1S521.5,428.6,521.6,428.7"/>
<path class="st6" d="M517.9,438.4c0.1-0.4,0.5-0.3,0.8-0.4c-1-1.2-1.8-2.5-2.8-3.8c-0.2-0.2-0.5-0.4-0.5-0.8c2.2,1.4,4.3,3,6.4,4.5
	c0.1,0.1,0.2,0.1,0.3,0.2l-2.7,0.1c-0.2,0.2-0.4,0.1-0.6,0.2c-0.2,0-0.4,0.1-0.7,0.1H518C518,438.5,517.9,438.4,517.9,438.4"/>
<polygon class="st4" points="523.6,426.6 526.9,432.2 526.4,433.6 524.3,429.9 "/>
<polygon class="st2" points="511.7,432.8 510.8,432.7 518.5,419.3 "/>
<path class="st5" d="M510.8,432.7l3.6,6.1l0.6,0.1c0,0-3.2-6.2-3.3-6C511.6,433.1,510.8,432.7,510.8,432.7"/>
<polyline class="st6" points="515.2,438.9 522.7,438.4 521.6,437.8 515.3,438.8 "/>
<path class="st7" d="M518.2,438.6l0.1,4.8c0,0,0.4,0.6,0.6,0.4l0.1-5.1L518.2,438.6z"/>
<path class="st0" d="M539.8,432.5l0.1,11.2c0,0,2.5,1.1,3.3-0.4l-0.8-10.9L539.8,432.5z"/>
<polygon class="st1" points="546.8,431.8 556.7,419.6 556.8,421.7 547.8,432.3 "/>
<path class="st2" d="M524.2,419.1c1.2-1.8,2.2-3.7,3.2-5.7c3.8-6.9,7.5-13.8,11.2-20.8c0.1-0.2,0.2-0.4,0.4-0.5
	c0.6,0.6,0.2,1.3,0.1,1.9c-1.5,6.2-3.1,12.4-4.6,18.5c-0.5,2.2-1.1,4.3-1.6,6.5c-0.1,0.8-0.5,1.5-0.9,2.1c-0.5,0.3-1.1,0.4-1.6,0.3
	c-1.7-0.2-3.4-0.3-5.1-0.4c-0.5-0.1-1-0.2-1.5-0.4C523,419.8,523.6,419.5,524.2,419.1"/>
<path class="st3" d="M531.8,421l6.9-27.7c0.1-0.4,0.1-0.7,0.2-1.1l0.2-0.3c0.9,0.2,1,0.9,1.2,1.6c0.8,2.1,1.1,4.3,2,6.4
	c0.2,0.4,0.2,0.9,0.1,1.4c-0.5,1.3-0.8,2.6-1,3.9c-0.6,2.9-1.4,5.8-1.9,8.6c-0.1,0.5-0.3,0.9-0.5,1.4c-0.1,0.4-0.3,0.8-0.6,1
	c-1.8,1.4-3.4,3-5.3,4.4c-0.3,0.3-0.7,0.5-1.2,0.5L531.8,421"/>
<path class="st4" d="M542.2,401.2l-0.2-1.3c-0.2-2,0-3.9,0.4-5.8c0.1-0.4,0.1-0.8,0.1-1.2c0-0.4-0.1-0.9,0.5-0.9c1.8,4,3.5,8,5.3,12
	c1.7,3.9,3.4,7.7,5.1,11.6c0.1,0.2,0.2,0.4,0.4,0.7c0.8,0.9,1.4,2,1.5,3.2c0,0.1,0,0.2,0,0.3c-0.4,0.6-0.7,0.3-1.1,0
	c-0.3-0.3-0.9-0.9-1.3-1.3c-2.7-2.6-5.4-5.1-8-7.8c-0.9-2.5-1.8-5-2.7-7.5C542,402.5,542,401.8,542.2,401.2"/>
<path class="st1" d="M543,392c-0.3,2.4-0.6,4.9-0.8,7.3c0,0.2-0.1,0.4-0.2,0.6c-0.1-0.3-0.4-0.5-0.4-0.7c-0.3-2-1.4-3.9-1.7-5.9
	c-0.1-0.5-0.5-0.9-0.8-1.3c1.2-0.4,2.4-0.5,3.7-0.4C542.8,391.6,542.9,391.8,543,392"/>
<path class="st5" d="M523.7,421l-0.2-0.6c2.8,0.3,5.5,0.5,8.3,0.7h0c0.1,0.1,0.2,0.2,0.2,0.3c0.2,0.9,0.2,1.7,0.2,2.6
	c-0.1,2.5,0.3,5,0.2,7.5c0,0.5,0,1-0.1,1.5c-0.2,0.4-0.5,0.5-0.9,0.2c-0.2-0.2-0.4-0.4-0.6-0.7c-1.9-2.9-3.8-5.9-5.7-8.8
	c-0.1-0.2-0.2-0.3-0.3-0.5s0-0.6-0.4-0.6C524,422.2,524,421.4,523.7,421"/>
<path class="st1" d="M531.9,421.1c0-0.1,0-0.2,0-0.2c2.4-1.8,4.7-3.7,6.9-5.6c0.1-0.1,0.2-0.1,0.3-0.1c1.1,0.7,2.1,1.5,2.9,2.5
	c1,0.9,2,1.7,3,2.6c0.3,0.3,0.7,0.4,1.1,0.3c0.5,0.1,0.6,0.5,0.5,0.9c-0.1,0.4,0,0.7,0.1,1.1c0.2,3,0.5,6.1,0.5,9.1
	c0,0.2-0.2,0.5-0.5,0.5c-0.6-0.2-1.2-0.5-1.7-0.9c-3.7-2.8-7.6-5.4-11.3-8.3c-0.4-0.2-0.8-0.5-1.2-0.8
	C532.3,421.8,532,421.5,531.9,421.1"/>
<path class="st6" d="M538.9,415.3h-0.2c0.6-2.7,1.2-5.5,1.8-8.2c0.4-1.6,0.7-3.3,1.1-4.9c0.1-0.3,0-0.9,0.6-1
	c0.9,2.7,1.9,5.4,2.8,8.1c0.2,0.4,0.3,0.9,0.2,1.4c0,0,0,0.1,0,0.2c-0.9,1-2,1.9-3.1,2.6c-0.7,0.5-1.4,1-2.1,1.5
	C539.7,415.2,539.3,415.4,538.9,415.3"/>
<path class="st1" d="M547.2,431.6c-0.4-2.3-0.6-4.7-0.7-7c-0.1-0.8-0.1-1.5-0.2-2.3c-0.2-0.5,0.2-0.8,0.5-1c1-0.7,2-1.3,3-1.7
	c0.7-0.3,1.4-0.7,2-1.2c0.4-0.3,0.8-0.6,1.3-0.2s1,0.9,1.4,1.4c0.2,0.2,0.3,0.4,0.6,0.1c1,0.6,1.2,1.3,0.4,2.4
	c-0.9,1.2-2,2.4-2.9,3.5c-0.6,0.7-1.1,1.4-1.5,2.1c-1,0.9-1.9,1.9-2.6,3C548.2,431.2,547.9,431.7,547.2,431.6"/>
<path class="st1" d="M553.2,418.2c-0.1,0-0.2,0-0.3,0.1c-1.8,1.6-4.2,2.3-6.2,3.6c-0.2,0.1-0.3,0.3-0.4,0.5
	c-0.3-0.3-0.3-0.8-0.1-1.1c0.1-0.3,0-0.6-0.3-0.6c-0.3-0.7-0.4-1.6-0.3-2.4c0-2.1-0.3-4.2-0.5-6.2c0-0.3,0.1-0.7,0.1-1
	c0-0.1,0-0.2,0.1-0.3l0,0c0.7,0.1,1.1,0.7,1.5,1.1c1.9,2.1,4.1,3.9,6.1,5.9C552.9,417.8,553.1,418,553.2,418.2"/>
<path class="st6" d="M537.5,432.4l-4.5,0.8c-0.3,0.1-0.7,0.2-1.1,0.1c0-4-0.3-8-0.2-12.1c0.4,0.1,0.7,0.3,0.9,0.6
	c2.5,2.6,4.2,5.9,6.5,8.6c0.9,1.1,0.8,1.2-0.5,1.4c-0.3,0.1-0.5,0.2-0.7,0.4C537.9,432.5,537.7,432.5,537.5,432.4"/>
<path class="st6" d="M545.5,411.8c0.3,1.6,0.4,3.2,0.5,4.8c0,1.4,0.5,2.7,0,4.1c0,0.2,0.1,0.6-0.2,0.7s-0.3-0.2-0.5-0.3
	c-2-1.5-3.9-3.2-5.8-4.9c-0.2-0.2-0.6-0.3-0.6-0.7c2.1-1.6,4.2-3.2,6.4-4.6c0,0.1,0,0.1,0,0.2C545.5,411.2,545.3,411.5,545.5,411.8"
	/>
<path class="st6" d="M537.8,432.3c0.3-0.9,1.1-0.6,1.8-0.7c-2.2-2.5-3.9-5.3-5.9-7.9c-0.3-0.5-1.1-0.9-1-1.7c4.6,3,9,6.2,13.5,9.4
	c0.2,0.1,0.4,0.3,0.6,0.5l-5.7,0.3c-0.4,0.4-0.9,0.3-1.4,0.4c-0.5,0.1-0.9,0.1-1.4,0.1c-0.1,0-0.2,0-0.3-0.1
	C537.9,432.4,537.8,432.4,537.8,432.3"/>
<polygon class="st4" points="549.7,407.3 556.6,419.2 555.6,422 551.2,414.2 "/>
<polygon class="st2" points="524.7,420.5 522.8,420.2 539.1,391.9 "/>
<path class="st5" d="M522.8,420.2l7.5,12.8l1.2,0.3c0,0-6.7-13.1-6.8-12.7S522.8,420.2,522.8,420.2"/>
<polyline class="st6" points="532,433.3 547.8,432.3 545.6,431 532.4,433 "/>
<path class="st7" d="M538.4,432.6l0.2,10.2c0,0,0.8,1.2,1.3,0.9l0.2-10.7L538.4,432.6z"/>
<path class="st0" d="M564.6,436.2l0.1,7.3c0,0,1.7,0.7,2.2-0.3l-0.5-7.1L564.6,436.2z"/>
<polygon class="st1" points="569.2,435.8 575.6,427.8 575.7,429.2 569.8,436.1 "/>
<path class="st2" d="M554.4,427.5c0.8-1.2,1.4-2.4,2.1-3.7c2.5-4.5,4.9-9,7.3-13.5c0.1-0.1,0.2-0.2,0.3-0.4c0.4,0.4,0.2,0.8,0.1,1.2
	c-1,4-2,8.1-3,12.1c-0.3,1.4-0.7,2.8-1.1,4.2c-0.1,0.5-0.3,1-0.6,1.4c-0.3,0.2-0.7,0.2-1,0.2c-1.1-0.1-2.2-0.2-3.3-0.3
	c-0.3-0.1-0.6-0.2-1-0.3C553.7,428,554.1,427.7,554.4,427.5"/>
<path class="st3" d="M559.4,428.7l4.5-18.1c0.1-0.2,0.1-0.5,0.1-0.7l0.1-0.2c0.6,0.1,0.6,0.6,0.8,1.1c0.5,1.4,0.7,2.8,1.3,4.1
	c0.1,0.3,0.2,0.6,0.1,0.9c-0.3,0.8-0.5,1.7-0.7,2.6c-0.4,1.9-0.9,3.8-1.3,5.6c-0.1,0.3-0.2,0.6-0.3,0.9c0,0.3-0.2,0.5-0.4,0.6
	c-1.2,0.9-2.2,2-3.4,2.9c-0.2,0.2-0.5,0.3-0.8,0.3L559.4,428.7"/>
<path class="st4" d="M566.2,415.8l-0.1-0.9c-0.1-1.3,0-2.5,0.3-3.8c0.1-0.3,0.1-0.5,0.1-0.8c0-0.2,0-0.5,0.3-0.6
	c1.2,2.6,2.3,5.2,3.5,7.8c1.1,2.5,2.2,5,3.3,7.6c0.1,0.1,0.2,0.3,0.3,0.4c0.5,0.6,0.9,1.3,1,2.1c0,0.1,0,0.1,0,0.2
	c-0.2,0.4-0.5,0.2-0.7,0s-0.6-0.6-0.8-0.9c-1.7-1.7-3.5-3.3-5.2-5.1c-0.6-1.6-1.2-3.3-1.8-4.9C566.1,416.7,566,416.2,566.2,415.8"/>
<path class="st1" d="M566.7,409.8c-0.2,1.6-0.4,3.2-0.6,4.8c0,0.1-0.1,0.3-0.1,0.4c-0.1-0.2-0.3-0.3-0.3-0.5
	c-0.2-1.3-0.9-2.5-1.1-3.9c0-0.3-0.3-0.6-0.5-0.9c0.8-0.3,1.6-0.3,2.4-0.2C566.6,409.5,566.7,409.7,566.7,409.8"/>
<path class="st5" d="M554.1,428.7l-0.1-0.4c1.8,0.2,3.6,0.4,5.4,0.4l0,0c0.1,0.1,0.1,0.1,0.2,0.2c0.1,0.6,0.2,1.1,0.1,1.7
	c-0.1,1.6,0.2,3.3,0.1,4.9c0,0.3,0,0.7-0.1,1c-0.1,0.3-0.3,0.3-0.6,0.1c-0.1-0.1-0.3-0.3-0.4-0.4c-1.2-1.9-2.5-3.8-3.7-5.8
	c-0.1-0.1-0.1-0.2-0.2-0.3s0-0.4-0.3-0.4C554.3,429.5,554.3,429,554.1,428.7"/>
<path class="st1" d="M559.4,428.8c0,0,0-0.1,0-0.1c1.6-1.1,3-2.4,4.5-3.7c0.1,0,0.1-0.1,0.2,0c0.7,0.5,1.3,1,1.9,1.6
	c0.7,0.6,1.3,1.1,2,1.7c0.2,0.2,0.5,0.2,0.7,0.2c0.3,0.1,0.4,0.3,0.3,0.6c0,0.2,0,0.5,0.1,0.7c0.2,2,0.3,4,0.3,5.9
	c0,0.2-0.1,0.3-0.3,0.3c-0.4-0.1-0.8-0.3-1.1-0.6c-2.4-1.8-5-3.5-7.4-5.4c-0.3-0.2-0.5-0.3-0.8-0.5
	C559.7,429.3,559.5,429,559.4,428.8"/>
<path class="st6" d="M564,425h-0.1l1.2-5.4c0.2-1.1,0.5-2.1,0.7-3.2c0.1-0.2,0-0.6,0.4-0.6c0.6,1.8,1.2,3.5,1.8,5.3
	c0.1,0.3,0.2,0.6,0.2,0.9c0,0,0,0.1,0,0.1c-0.6,0.6-1.3,1.2-2,1.7c-0.4,0.4-0.9,0.7-1.4,1C564.6,424.9,564.3,425,564,425"/>
<path class="st1" d="M569.4,435.6c-0.3-1.5-0.4-3-0.4-4.6c0-0.5-0.1-1-0.1-1.5c0-0.5,0.1-0.5,0.3-0.7c0.6-0.4,1.3-0.8,2-1.1
	c0.5-0.2,0.9-0.5,1.3-0.8c0.3-0.2,0.5-0.4,0.8-0.2s0.6,0.6,0.9,0.9c0.1,0.1,0.2,0.3,0.4,0.1c0.7,0.4,0.8,0.9,0.3,1.6
	s-1.3,1.5-1.9,2.3c-0.4,0.4-0.7,0.9-1,1.4c-0.6,0.6-1.2,1.2-1.7,1.9C570.1,435.3,569.9,435.6,569.4,435.6"/>
<path class="st1" d="M573.3,426.9c-0.1,0-0.2,0-0.2,0c-1.2,1-2.7,1.5-4,2.4c-0.1,0.1-0.2,0.2-0.2,0.3c-0.2-0.2-0.2-0.5-0.1-0.7
	c0.1-0.2,0-0.4-0.2-0.4c-0.2-0.5-0.3-1-0.2-1.5c0-1.4-0.2-2.7-0.4-4.1c0-0.2,0.1-0.4,0.1-0.7c0-0.1,0-0.1,0.1-0.2l0,0
	c0.5,0.1,0.7,0.4,1,0.7c1.2,1.4,2.7,2.5,4,3.8c0.1,0.1,0.2,0.2,0.3,0.3"/>
<path class="st6" d="M563.1,436.2l-2.9,0.5c-0.2,0.1-0.5,0.1-0.7,0c0-2.6-0.2-5.3-0.1-7.9c0.2,0.1,0.4,0.2,0.6,0.4
	c1.7,1.7,2.7,3.8,4.2,5.6c0.6,0.7,0.5,0.8-0.3,0.9c-0.2,0-0.4,0.1-0.5,0.3C563.3,436.1,563.2,436.2,563.1,436.2"/>
<path class="st6" d="M568.3,422.7c0.2,1,0.3,2.1,0.3,3.1c0,0.9,0.3,1.8,0,2.7c0,0.2,0.1,0.4-0.1,0.4s-0.2-0.1-0.3-0.2
	c-1.3-1-2.6-2.1-3.8-3.2c-0.2-0.1-0.4-0.2-0.4-0.5c1.4-1,2.7-2.1,4.2-3c0,0,0,0.1,0,0.1S568.2,422.6,568.3,422.7"/>
<path class="st6" d="M563.3,436.1c0.2-0.6,0.7-0.4,1.2-0.5c-1.4-1.6-2.5-3.5-3.8-5.2c-0.2-0.3-0.7-0.6-0.6-1.1c3,2,5.9,4.1,8.8,6.1
	c0.1,0.1,0.3,0.2,0.4,0.3l-3.7,0.2c-0.2,0.3-0.6,0.2-0.9,0.3c-0.3,0.1-0.6,0.1-0.9,0.1c-0.1,0-0.1,0-0.2,0
	C563.4,436.2,563.3,436.1,563.3,436.1"/>
<polygon class="st4" points="571.1,419.8 575.6,427.6 574.9,429.4 572,424.3 "/>
<polygon class="st2" points="554.7,428.4 553.5,428.2 564.1,409.8 "/>
<path class="st5" d="M553.5,428.2l4.9,8.3l0.8,0.2c0,0-4.4-8.5-4.5-8.3S553.5,428.2,553.5,428.2"/>
<polyline class="st6" points="559.5,436.8 569.8,436.1 568.4,435.2 559.8,436.6 "/>
<path class="st7" d="M563.7,436.3l0.1,6.6c0,0,0.5,0.8,0.9,0.6l0.1-7L563.7,436.3z"/>
<path class="st0" d="M86.5,438.1l0.1,5.5c0,0,1.3,0.5,1.6-0.2l-0.4-5.4L86.5,438.1z"/>
<polygon class="st1" points="90,437.7 94.9,431.7 94.9,432.8 90.5,438 "/>
<path class="st2" d="M78.8,431.5c0.6-0.9,1.1-1.8,1.6-2.8c1.9-3.4,3.7-6.9,5.5-10.3c0.1-0.1,0.1-0.2,0.2-0.3c0.3,0.3,0.1,0.6,0,0.9
	c-0.7,3.1-1.5,6.2-2.3,9.2c-0.3,1.1-0.5,2.1-0.8,3.2c-0.1,0.4-0.2,0.7-0.4,1c-0.2,0.1-0.5,0.2-0.8,0.1c-0.8-0.1-1.7-0.2-2.5-0.2
	c-0.2,0-0.5-0.1-0.7-0.2C78.2,431.8,78.5,431.6,78.8,431.5"/>
<path class="st3" d="M82.6,432.4l3.4-13.7c0-0.2,0.1-0.4,0.1-0.5l0.1-0.1c0.4,0.1,0.5,0.5,0.6,0.8c0.4,1,0.6,2.1,1,3.1
	c0.1,0.2,0.1,0.5,0,0.7c-0.2,0.6-0.4,1.3-0.5,1.9c-0.3,1.4-0.7,2.8-1,4.3c0,0.2-0.2,0.4-0.2,0.7c0,0.2-0.1,0.4-0.3,0.5
	c-0.9,0.7-1.7,1.5-2.6,2.2C83,432.4,82.8,432.5,82.6,432.4L82.6,432.4"/>
<path class="st4" d="M87.7,422.6l-0.1-0.7c-0.1-1,0-1.9,0.2-2.9c0-0.2,0.1-0.4,0.1-0.6c0-0.2,0-0.4,0.3-0.4c0.9,2,1.8,4,2.6,5.9
	c0.8,1.9,1.7,3.8,2.5,5.7c0.1,0.1,0.1,0.2,0.2,0.3c0.4,0.4,0.7,1,0.8,1.6c0,0.1,0,0.1,0,0.2c-0.2,0.3-0.4,0.1-0.5,0
	c-0.2-0.1-0.4-0.4-0.6-0.6c-1.3-1.3-2.7-2.5-3.9-3.9c-0.5-1.2-0.9-2.5-1.3-3.7C87.6,423.3,87.6,422.9,87.7,422.6"/>
<path class="st1" d="M88.1,418c-0.1,1.2-0.3,2.4-0.4,3.6c0,0.1-0.1,0.2-0.1,0.3c-0.1-0.1-0.2-0.2-0.2-0.4c-0.1-1-0.7-1.9-0.8-2.9
	c0-0.2-0.3-0.4-0.4-0.6c0.6-0.2,1.2-0.3,1.8-0.2C88,417.8,88.1,418,88.1,418"/>
<path class="st5" d="M78.6,432.4l-0.1-0.3c1.4,0.2,2.7,0.3,4.1,0.3l0,0c0.1,0,0.1,0.1,0.1,0.2c0.1,0.4,0.1,0.9,0.1,1.3
	c-0.1,1.3,0.1,2.5,0.1,3.7c0,0.3,0,0.5-0.1,0.8c-0.1,0.2-0.2,0.3-0.4,0.1c-0.1-0.1-0.2-0.2-0.3-0.3c-0.9-1.4-1.9-2.9-2.8-4.4
	l-0.2-0.3c-0.1-0.1,0-0.3-0.2-0.3C78.7,433,78.7,432.6,78.6,432.4"/>
<path class="st1" d="M82.6,432.5c0,0,0-0.1,0-0.1c1.2-0.9,2.3-1.8,3.4-2.8c0,0,0.1,0,0.1,0c0.5,0.3,1,0.8,1.4,1.2
	c0.5,0.5,1,0.9,1.5,1.3c0.1,0.1,0.4,0.2,0.6,0.1c0.3,0.1,0.3,0.3,0.3,0.5c0,0.2,0,0.4,0.1,0.5c0.1,1.5,0.2,3,0.3,4.5
	c0,0.1-0.1,0.2-0.2,0.2c-0.3-0.1-0.6-0.2-0.8-0.5c-1.8-1.4-3.8-2.7-5.6-4.1c-0.2-0.1-0.4-0.2-0.6-0.4
	C82.8,432.9,82.7,432.7,82.6,432.5"/>
<path class="st6" d="M86.1,429.6L86.1,429.6l0.8-4.1c0.2-0.8,0.4-1.6,0.6-2.4c0-0.2,0-0.4,0.3-0.5c0.5,1.3,0.9,2.7,1.4,4
	c0.1,0.2,0.1,0.5,0.1,0.7c0,0,0,0.1,0,0.1c-0.5,0.5-1,0.9-1.6,1.3c-0.3,0.3-0.7,0.5-1.1,0.8C86.5,429.5,86.3,429.6,86.1,429.6"/>
<path class="st1" d="M90.2,437.6c-0.2-1.1-0.3-2.3-0.3-3.4c0-0.4-0.1-0.8-0.1-1.1c0-0.4,0.1-0.4,0.3-0.5c0.5-0.3,1-0.6,1.5-0.9
	c0.4-0.1,0.7-0.3,1-0.6c0.2-0.1,0.4-0.3,0.6-0.1c0.3,0.2,0.5,0.4,0.7,0.7c0.2,0.2,0.2,0.2,0.3,0.1c0.5,0.3,0.6,0.7,0.2,1.2
	c-0.4,0.5-1,1.2-1.4,1.8c-0.3,0.3-0.5,0.6-0.8,1c-0.5,0.4-0.9,0.9-1.3,1.5C90.7,437.4,90.5,437.6,90.2,437.6"/>
<path class="st1" d="M93.2,431c-0.1,0-0.1,0-0.2,0c-0.9,0.8-2.1,1.1-3,1.8c-0.1,0.1-0.2,0.1-0.2,0.3c-0.1-0.2-0.1-0.4-0.1-0.5
	c0.1-0.2,0-0.3-0.2-0.3c-0.2-0.4-0.2-0.8-0.2-1.2c0-1-0.2-2.1-0.3-3.1c0-0.2,0.1-0.3,0.1-0.5c0-0.1,0-0.1,0.1-0.1l0,0
	c0.3,0,0.5,0.3,0.7,0.5c0.9,1,2,1.9,3,2.9C93.1,430.8,93.1,430.9,93.2,431"/>
<path class="st6" d="M85.4,438.1l-2.2,0.4c-0.2,0-0.3,0-0.5,0c0-2-0.2-4-0.1-6c0.2,0.1,0.3,0.2,0.4,0.3c1.3,1.3,2.1,2.9,3.2,4.3
	c0.4,0.5,0.4,0.6-0.2,0.7c-0.1,0-0.3,0.1-0.4,0.2C85.6,438,85.5,438,85.4,438.1"/>
<path class="st6" d="M89.3,427.8c0.1,0.8,0.2,1.6,0.2,2.4c0.1,0.7,0.1,1.3,0,2c0,0.1,0,0.3-0.1,0.3s-0.2-0.1-0.2-0.2
	c-1-0.8-1.9-1.6-2.9-2.4c-0.1-0.1-0.3-0.2-0.3-0.4c1-0.8,2.1-1.6,3.2-2.3c0,0,0,0.1,0,0.1C89.3,427.4,89.3,427.7,89.3,427.8"/>
<path class="st6" d="M85.5,438c0.1-0.4,0.5-0.3,0.9-0.4c-1.1-1.2-1.9-2.6-2.9-3.9c-0.2-0.2-0.5-0.4-0.5-0.8c2.3,1.5,4.5,3.1,6.7,4.6
	c0.1,0.1,0.2,0.2,0.3,0.2l-2.8,0.1c-0.2,0.2-0.4,0.1-0.7,0.2c-0.2,0-0.5,0.1-0.7,0.1h-0.2C85.6,438.1,85.5,438.1,85.5,438"/>
<polygon class="st4" points="91.4,425.6 94.9,431.5 94.3,432.9 92.2,429 "/>
<polygon class="st2" points="79,432.1 78.1,432 86.2,418 "/>
<path class="st5" d="M78.1,432l3.7,6.3l0.6,0.1c0,0-3.3-6.5-3.4-6.3S78.1,432,78.1,432"/>
<polyline class="st6" points="82.7,438.5 90.5,438 89.4,437.3 82.9,438.4 "/>
<path class="st7" d="M85.8,438.1l0.1,5c0,0,0.4,0.6,0.7,0.4l0.1-5.3L85.8,438.1z"/>
<path class="st0" d="M141.6,438.1l0.1,5.5c0,0,1.3,0.5,1.6-0.2l-0.4-5.4L141.6,438.1z"/>
<polygon class="st1" points="145.1,437.7 150,431.7 150.1,432.8 145.6,438 "/>
<path class="st2" d="M133.9,431.5c0.6-0.9,1.1-1.8,1.6-2.8c1.9-3.4,3.7-6.9,5.5-10.3c0.1-0.1,0.1-0.2,0.2-0.3c0.3,0.3,0.1,0.6,0,0.9
	c-0.8,3.1-1.5,6.1-2.3,9.2c-0.3,1.1-0.5,2.1-0.8,3.2c-0.1,0.4-0.2,0.7-0.4,1c-0.2,0.1-0.5,0.2-0.8,0.1c-0.8-0.1-1.7-0.2-2.5-0.2
	c-0.2,0-0.5-0.1-0.7-0.2C133.3,431.8,133.6,431.6,133.9,431.5"/>
<path class="st3" d="M137.7,432.4l3.4-13.7c0-0.2,0.1-0.4,0.1-0.5l0.1-0.1c0.4,0.1,0.5,0.5,0.6,0.8c0.4,1,0.6,2.1,1,3.1
	c0.1,0.2,0.1,0.5,0,0.7c-0.2,0.6-0.4,1.3-0.5,1.9c-0.3,1.4-0.7,2.8-1,4.3c0,0.2-0.2,0.4-0.2,0.7c0,0.2-0.1,0.4-0.3,0.5
	c-0.9,0.7-1.7,1.5-2.6,2.2C138.1,432.3,137.9,432.4,137.7,432.4L137.7,432.4"/>
<path class="st4" d="M142.8,422.6l-0.1-0.7c-0.1-1,0-1.9,0.2-2.9c0-0.2,0.1-0.4,0.1-0.6c0-0.2,0-0.4,0.3-0.4c0.9,2,1.8,4,2.6,5.9
	c0.9,1.9,1.7,3.8,2.5,5.7c0.1,0.1,0.1,0.2,0.2,0.3c0.4,0.4,0.7,1,0.8,1.6c0,0.1,0,0.1,0,0.2c-0.2,0.3-0.4,0.1-0.5,0
	c-0.2-0.1-0.4-0.4-0.6-0.6c-1.3-1.3-2.7-2.5-3.9-3.9c-0.5-1.2-0.9-2.5-1.3-3.7C142.8,423.3,142.7,422.9,142.8,422.6"/>
<path class="st1" d="M143.2,418c-0.1,1.2-0.3,2.4-0.4,3.6c0,0.1-0.1,0.2-0.1,0.3c-0.1-0.1-0.2-0.2-0.2-0.4c-0.1-1-0.7-1.9-0.8-2.9
	c0-0.2-0.3-0.4-0.4-0.6c0.6-0.2,1.2-0.3,1.8-0.2C143.1,417.8,143.2,418,143.2,418"/>
<path class="st5" d="M133.7,432.4l-0.1-0.3c1.4,0.2,2.7,0.3,4.1,0.3l0,0c0.1,0,0.1,0.1,0.1,0.2c0.1,0.4,0.1,0.9,0.1,1.3
	c-0.1,1.3,0.1,2.5,0.1,3.7c0,0.3,0,0.5,0,0.8c-0.1,0.2-0.2,0.3-0.4,0.1c-0.1-0.1-0.2-0.2-0.3-0.3c-0.9-1.4-1.9-2.9-2.8-4.4l-0.1-0.3
	c-0.1-0.1,0-0.3-0.2-0.3C133.8,433,133.9,432.6,133.7,432.4"/>
<path class="st1" d="M137.7,432.5c0,0,0-0.1,0-0.1c1.2-0.9,2.3-1.8,3.4-2.8c0,0,0.1,0,0.1,0c0.5,0.3,1,0.8,1.4,1.2
	c0.5,0.5,1,0.9,1.5,1.3c0.1,0.1,0.4,0.2,0.6,0.1c0.3,0.1,0.3,0.3,0.3,0.5c0,0.2,0,0.4,0.1,0.5c0.1,1.5,0.2,3,0.3,4.5
	c0,0.1-0.1,0.2-0.2,0.2c-0.3-0.1-0.6-0.2-0.9-0.5c-1.8-1.4-3.8-2.7-5.6-4.1c-0.2-0.1-0.4-0.2-0.6-0.4
	C137.9,432.9,137.8,432.7,137.7,432.5"/>
<path class="st6" d="M141.2,429.6h-0.1l0.9-4.1c0.2-0.8,0.4-1.6,0.6-2.4c0-0.2,0-0.4,0.3-0.5c0.5,1.3,0.9,2.7,1.4,4
	c0.1,0.2,0.1,0.5,0.1,0.7c0,0,0,0.1,0,0.1c-0.5,0.5-1,0.9-1.6,1.3c-0.3,0.3-0.7,0.5-1.1,0.8C141.6,429.5,141.4,429.6,141.2,429.6"/>
<path class="st1" d="M145.3,437.6c-0.2-1.1-0.3-2.3-0.3-3.4c0-0.4-0.1-0.8-0.1-1.1c0-0.4,0.1-0.4,0.3-0.5c0.5-0.3,1-0.6,1.5-0.9
	c0.4-0.1,0.7-0.3,1-0.6c0.2-0.1,0.4-0.3,0.6-0.1c0.3,0.2,0.5,0.4,0.7,0.7c0.2,0.2,0.2,0.2,0.3,0.1c0.5,0.3,0.6,0.7,0.2,1.2
	c-0.4,0.5-1,1.2-1.4,1.8c-0.3,0.3-0.5,0.6-0.8,1c-0.5,0.4-0.9,0.9-1.3,1.5C145.8,437.4,145.7,437.7,145.3,437.6"/>
<path class="st1" d="M148.3,431c-0.1,0-0.1,0-0.1,0c-0.9,0.8-2.1,1.1-3,1.8c-0.1,0.1-0.2,0.1-0.2,0.3c-0.1-0.2-0.1-0.4-0.1-0.5
	c0.1-0.2,0-0.3-0.2-0.3c-0.2-0.4-0.2-0.8-0.2-1.2c0-1-0.2-2.1-0.3-3.1c0-0.2,0.1-0.3,0.1-0.5c0-0.1,0-0.1,0.1-0.1l0,0
	c0.3,0,0.5,0.3,0.7,0.5c0.9,1,2,1.9,3,2.9C148.2,430.8,148.2,430.9,148.3,431"/>
<path class="st6" d="M140.5,438.1l-2.2,0.4c-0.2,0-0.3,0-0.5,0c0-2-0.2-4-0.1-6c0.2,0.1,0.3,0.2,0.4,0.3c1.3,1.3,2.1,2.9,3.2,4.3
	c0.4,0.5,0.4,0.6-0.2,0.7c-0.1,0-0.3,0.1-0.4,0.2C140.7,438,140.6,438,140.5,438.1"/>
<path class="st6" d="M144.4,427.8c0.1,0.8,0.2,1.6,0.2,2.4c0.1,0.7,0.1,1.3,0,2c0,0.1,0,0.3-0.1,0.3s-0.2-0.1-0.2-0.2
	c-1-0.8-1.9-1.6-2.9-2.4c-0.1-0.1-0.3-0.2-0.3-0.4c1-0.8,2.1-1.6,3.2-2.3c0,0,0,0.1,0,0.1C144.4,427.4,144.4,427.7,144.4,427.8"/>
<path class="st6" d="M140.6,438c0.1-0.4,0.5-0.3,0.9-0.4c-1.1-1.2-1.9-2.6-2.9-3.9c-0.2-0.2-0.5-0.4-0.5-0.8
	c2.3,1.5,4.5,3.1,6.7,4.6c0.1,0.1,0.2,0.2,0.3,0.2l-2.8,0.1c-0.2,0.2-0.4,0.1-0.7,0.2c-0.2,0-0.5,0.1-0.7,0.1h-0.2
	C140.7,438.1,140.7,438.1,140.6,438"/>
<polygon class="st4" points="146.6,425.6 150,431.5 149.5,432.9 147.3,429 "/>
<polygon class="st2" points="134.1,432.1 133.2,432 141.3,418 "/>
<path class="st5" d="M133.2,432l3.7,6.3l0.6,0.1c0,0-3.3-6.5-3.4-6.3S133.2,432,133.2,432"/>
<polyline class="st6" points="137.8,438.5 145.6,438 144.5,437.3 138,438.4 "/>
<path class="st7" d="M140.9,438.1l0.1,5c0,0,0.4,0.6,0.6,0.4l0.1-5.3L140.9,438.1z"/>
<rect x="403.1" y="396.1" class="st11" width="24.1" height="47.6"/>
<rect x="427.3" y="406.6" class="st11" width="3.9" height="7.8"/>
<rect x="407.4" y="400.7" class="st9" width="15.5" height="21.3"/>
<path class="st12" d="M427.3,439.1v-0.2c3.4-0.3,5.4-1.3,6.3-2.9c0.9-1.6,0.5-4.2-1.4-7.5c-2.7-5.3-3.8-11.3-3.1-17.1h0.2
	c-0.7,5.8,0.4,11.8,3,17c1.9,3.5,2.3,6,1.4,7.8S430.7,438.7,427.3,439.1z"/>
<polygon class="st13" points="416,406.2 419.4,407 415.4,410.7 418.9,412 411.6,416.4 414,412.8 410.9,412 "/>
<rect x="329.1" y="396.1" class="st11" width="24.1" height="47.6"/>
<rect x="353.3" y="406.6" class="st11" width="3.9" height="7.8"/>
<rect x="333.4" y="400.7" class="st9" width="15.5" height="21.3"/>
<path class="st12" d="M353.3,439.1v-0.2c3.4-0.3,5.4-1.3,6.3-2.9c0.9-1.6,0.5-4.2-1.4-7.5c-2.7-5.3-3.8-11.3-3.1-17.1h0.2
	c-0.7,5.8,0.4,11.8,3,17c1.9,3.5,2.3,6,1.4,7.8S356.7,438.7,353.3,439.1z"/>
<polygon class="st13" points="342,406.2 345.4,407 341.4,410.7 344.9,412 337.6,416.4 340,412.8 336.9,412 "/>
<rect x="255.1" y="396.1" class="st11" width="24.1" height="47.6"/>
<rect x="279.3" y="406.6" class="st11" width="3.9" height="7.8"/>
<rect x="259.4" y="400.7" class="st9" width="15.5" height="21.3"/>
<path class="st12" d="M279.3,439.1v-0.2c3.4-0.3,5.4-1.3,6.3-2.9c0.9-1.6,0.5-4.2-1.4-7.5c-2.7-5.3-3.8-11.3-3.1-17.1h0.2
	c-0.7,5.8,0.4,11.8,3,17c1.9,3.5,2.3,6,1.4,7.8S282.7,438.7,279.3,439.1z"/>
<polygon class="st13" points="268,406.2 271.4,407 267.4,410.7 271,412 263.6,416.4 266,412.8 263,412 "/>
<rect x="467.6" y="377" class="st11" width="6.9" height="66.9"/>
<rect x="212.7" y="377" class="st11" width="6.9" height="66.9"/>
<rect x="163.6" y="367.1" class="st14" width="360.4" height="14.1"/>
<path class="st9" d="M170.3,372.6c-0.4-0.3-0.6-0.7-0.7-1.2c-0.6,1-0.4,2.2,0.5,2.9c0.2,0.1,0.4,0.3,0.6,0.4l0.4-1.8
	C170.8,372.9,170.5,372.8,170.3,372.6L170.3,372.6 M171.6,370.4c-0.2,0-0.5,0-0.7,0.1c0.2-0.3,0.5-0.5,0.8-0.6c-0.7,0-1.3,0.4-1.6,1
	l0,0l0,0l0,0c-0.1,0.3-0.1,0.6,0.1,0.8h1.1l0.1-0.3c0-0.1,0.1-0.2,0.2-0.2s0.2,0.1,0.2,0.2l0.1,0.3h1.3c0.2,0.2,0.3,0.5,0.3,0.8
	c-0.1,1.3-1.1,2.3-2.4,2.4c0.1,0,0.2,0.3,0.3,0.3c1.3-0.1,2.4-1.2,2.4-2.5C173.8,371.4,172.8,370.4,171.6,370.4 M173,372.4
	c-0.3,0.2-0.6,0.4-1,0.5l0.2,1.1C172.7,373.6,173,373,173,372.4"/>
<path class="st9" d="M184.6,370.8c0,0.2,0,0.4-0.1,0.6l-0.6,2.2l0,0l-1.1-3.4l0,0l-1.1,3.4l-0.6-2.2c-0.1-0.2-0.1-0.4-0.1-0.6
	c0-0.2,0-0.3,0.1-0.5h-1.1c0.1,0.1,0.2,0.3,0.2,0.5c0.1,0.2,0.2,0.5,0.3,0.9l0.9,3.2h0.5l0.9-2.6l0.9,2.6h0.6l0.9-3.2
	c0.1-0.4,0.2-0.7,0.3-0.9c0.1-0.2,0.1-0.3,0.2-0.5h-1.1C184.6,370.5,184.6,370.6,184.6,370.8 M188.4,373.9v-1.2
	c0-0.3-0.1-0.6-0.2-0.8c-0.2-0.2-0.4-0.3-0.6-0.3c-0.1,0-0.3,0-0.4,0.1l-0.5,0.6v-0.7c0-0.2,0-0.5,0-0.7c0-0.2,0-0.3,0.1-0.5
	l-0.4,0.1l-0.4,0.1c0.1,0.1,0.1,0.3,0.1,0.4c0,0.2,0,0.3,0,0.5v2.5c0,0.2,0,0.4,0,0.6c0,0.1-0.1,0.2-0.1,0.4h0.9
	c-0.1-0.1-0.1-0.2-0.1-0.4c0-0.2,0-0.4,0-0.6v-1.5l0.1-0.1c0.1-0.1,0.3-0.1,0.5-0.1c0.1,0,0.3,0,0.4,0.1c0.1,0.1,0.1,0.3,0.1,0.4
	v1.2c0,0.2,0,0.4,0,0.6c0,0.1,0,0.2-0.1,0.4h0.9c0-0.1-0.1-0.2-0.1-0.3C188.4,374.4,188.4,374.2,188.4,373.9 M189.5,372.1
	c0-0.1,0.1-0.2,0.1-0.4h-0.9c0,0.2,0.1,0.3,0.1,0.5c0,0.2,0,0.3,0,0.5v1.3c0,0.2,0,0.4,0,0.6c0,0.1-0.1,0.2-0.1,0.4h0.9
	c-0.1-0.1-0.1-0.2-0.1-0.4c0-0.2,0-0.4,0-0.6v-1.3C189.5,372.5,189.5,372.3,189.5,372.1 M189.2,371.4c0.1,0,0.2-0.1,0.3-0.1
	c0.2-0.2,0.2-0.5,0-0.7c-0.1-0.2-0.4-0.2-0.5-0.1c0,0,0,0-0.1,0.1c-0.2,0.2-0.2,0.5,0,0.7C189,371.3,189.1,371.4,189.2,371.4
	 M192.3,373.6c-0.1,0.3-0.2,0.5-0.4,0.7c-0.1,0-0.2,0.1-0.3,0.1c-0.3,0-0.5,0.1-0.8,0.1l0,0l0.5-1.2c0.2-0.4,0.4-1,0.7-1.6h-1.9
	c-0.2,0.3-0.3,0.7-0.4,1.1c0,0.1,0,0.1,0,0.2c0.1-0.3,0.2-0.6,0.4-0.8l0.2-0.1c0.2,0,0.5-0.1,0.7,0c-0.2,0.4-0.4,0.8-0.5,1.2
	c-0.1,0.3-0.5,1-0.8,1.6h2c0.2-0.3,0.4-0.7,0.4-1.1C192.4,373.7,192.4,373.6,192.3,373.6"/>
<path class="st9" d="M175.8,371.6c-0.1,0-0.3,0-0.4,0.1l-0.5,0.5v-0.1c-0.1-0.6-0.5-1.1-1-1.5c-0.1-0.1-0.4-0.2-0.6-0.3
	c0.5,0.5,0.8,1.2,0.9,1.9c0,0.1,0,0.2,0,0.3v1.3c0,0.2,0,0.4,0,0.6c0,0.1-0.1,0.2-0.1,0.4h0.9c-0.1-0.1-0.1-0.2-0.1-0.4
	c0-0.2,0-0.4,0-0.6v-1.5l0.1-0.1c0.1-0.1,0.3-0.1,0.5-0.1c0.2,0,0.3,0,0.4,0.1l0,0C176,372.4,176,371.6,175.8,371.6 M176.9,372.1
	c0-0.1,0.1-0.2,0.1-0.4h-0.9c0,0.2,0.1,0.3,0.1,0.5c0,0.2,0,0.3,0,0.5v1.3c0,0.2,0,0.4,0,0.6c0,0.1,0,0.2-0.1,0.4h0.9
	c-0.1-0.1-0.1-0.2-0.1-0.4c0-0.2,0-0.4,0-0.6v-1.3C176.9,372.5,176.9,372.3,176.9,372.1 M176.6,371.4c0.1,0,0.2-0.1,0.3-0.1
	c0.2-0.2,0.2-0.5,0-0.7c-0.1-0.2-0.4-0.2-0.5-0.1c0,0,0,0-0.1,0.1c-0.2,0.2-0.2,0.5,0,0.7C176.3,371.3,176.4,371.4,176.6,371.4
	 M179.9,374.9c-0.1-0.1-0.1-0.2-0.1-0.4c0-0.2,0-0.4,0-0.6v-2.4c0-0.2,0-0.5,0-0.8c0-0.2,0-0.3,0.1-0.5l-0.4,0.1l-0.4,0.1
	c0,0.1,0.1,0.3,0.1,0.4c0,0.2,0,0.3,0,0.5v0.3c-0.1,0-0.2-0.1-0.4-0.1c-0.5,0-0.9,0.2-1.2,0.6c-0.3,0.4-0.5,0.9-0.5,1.4
	c0,0.4,0.1,0.7,0.3,1c0.2,0.3,0.6,0.4,0.9,0.4c0.1,0,0.3,0,0.4-0.1l0.4-0.4v0.4L179.9,374.9z M178.9,374.4c-0.1,0-0.2,0.1-0.3,0.1
	c-0.2,0-0.5-0.1-0.6-0.3c-0.2-0.2-0.2-0.5-0.2-0.8c0-0.3,0-0.6,0.2-0.9c0.1-0.2,0.4-0.3,0.6-0.3c0.2,0,0.4,0.1,0.6,0.2v2
	L178.9,374.4z"/>
<path class="st9" d="M170.2,378.1c-0.4-0.7-0.1-1.7,0.6-2c0.1,0,0.1-0.1,0.2-0.1c0.4-0.1,0.8,0,1,0.4c0.2,0.3,0.1,0.6-0.1,0.8
	c-0.1,0.1-0.2,0.1-0.3,0.1c0.2,0.2,0.5,0.3,0.7,0.1c0,0,0,0,0.1-0.1c0.2-0.2,0.3-0.4,0.3-0.6c0-0.5-0.3-1-0.8-1.2
	c-0.5-0.2-1.1-0.1-1.6,0.2c-0.8,0.6-1,1.8-0.3,2.7c0,0,0,0,0,0c0.5,0.7,1.3,1,2.1,1C171.3,379.3,170.6,378.8,170.2,378.1
	 M173.4,375.4c0.4,0.7,0.3,1.6-0.1,2.3c-0.1,0.1-0.2,0.2-0.3,0.3c-0.4,0.4-1,0.5-1.5,0.3c-0.5-0.2-0.8-0.7-0.6-1.2
	c0.1-0.3,0.4-0.5,0.8-0.4c0.1,0,0.2,0.1,0.3,0.2c0.1-0.3,0-0.6-0.3-0.7c0,0,0,0-0.1,0c-0.3-0.1-0.7-0.1-0.9,0.2
	c-0.3,0.3-0.5,0.7-0.4,1.1c0.1,0.6,0.5,1,1,1.2c1,0.4,2.2-0.2,2.5-1.2C174,376.8,173.9,376,173.4,375.4 M171.4,375.2
	c0.1,0,0.3,0,0.4,0.1c0.5,0.1,0.9,0.5,1,1c0.1,0.4,0,0.9-0.3,1.1c-0.3,0.3-0.8,0.2-1-0.1c0,0,0,0,0-0.1c-0.1-0.2-0.1-0.4,0-0.5
	c-0.3,0-0.5,0.3-0.5,0.5c0,0.1,0,0.1,0,0.2c0.2,0.4,0.6,0.7,1,0.7c0.6,0,1.1-0.4,1.3-0.9c0.3-0.9-0.1-1.9-1-2.3
	c-1.1-0.4-2.4,0.1-2.9,1.2C169.7,375.5,170.5,375.1,171.4,375.2"/>
<g class="st15">
	<path class="st16" d="M441.2,422.5v-12.2h-16c-6.3,1-6.1,12.2-6.1,12.2H441.2z"/>
</g>
<path class="st9" d="M487.3,425.1c1.9,1.3,3,3.4,3.1,5.7h-4.1c0,0-1-3.1-0.4-3.7C486.4,426.5,486.9,425.8,487.3,425.1"/>
<g class="st15">
	<path class="st16" d="M444.1,410.3v12h22.2C466.3,422.4,459.1,409.2,444.1,410.3z"/>
</g>
<path class="st9" d="M414.7,417l-0.6,1.2c-1.6,3.1-2.5,6.5-2.8,10h2.5L414.7,417z"/>
<path class="st14" d="M413.3,420L413.3,420z"/>
<path class="st14" d="M490.4,430.4c-0.1-0.7-0.3-1.4-0.5-2c0.3,0.7,0.4,1.5,0.5,2.2h-3.8c-0.1-3.7,1-5.3,1-5.3
	c-3.6-2.9-10.2-3.8-18.1-5.6c0,0-7.6-6.7-9.9-8.4c-3.2-2.3-6.3-3.1-12.8-3.3c-9.1-0.2-27.8,0-27.8,0v1.5l2,0.6
	c-3.5,2.4-6.2,5.9-7.8,9.8v8.3h-2c0,0-2.2,2-2.2,3.7v1.9c0,0,1.5,1.3,1.7,2v1.3h1.5c0-4.6,3.8-8.4,8.4-8.3c4.6,0,8.4,3.8,8.3,8.4
	c0,0.7-0.1,1.4-0.3,2.2h39.4c-1.3-4.5,1.3-9.1,5.8-10.4s9.1,1.3,10.4,5.8c0.2,0.7,0.3,1.5,0.3,2.3c0,0.4,0,0.8-0.1,1.3
	c0,0.3,0,0.7,0,1C484.4,439.3,491.5,439.3,490.4,430.4z M441.2,422.5H419c0,0-0.1-11.2,6.1-12.2h16L441.2,422.5z M444.2,422.3v-12
	c15-1.1,22.2,12,22.2,12H444.2z"/>
<path class="st17" d="M419.4,436.8c0,0.6,0.4,1,1,1s1-0.4,1-1c0-0.6-0.4-1-1-1S419.4,436.2,419.4,436.8"/>
<path class="st17" d="M413,436.8c0,4.1,3.3,7.4,7.4,7.3c4.1,0,7.4-3.3,7.3-7.4c0-4.1-3.3-7.3-7.4-7.3
	C416.3,429.4,413,432.7,413,436.8C413,436.8,413,436.8,413,436.8"/>
<path class="st9" d="M420.4,441.9c-2.8,0-5.1-2.3-5.1-5.1s2.3-5.1,5.1-5.1s5.1,2.3,5.1,5.1l0,0C425.5,439.6,423.2,441.9,420.4,441.9
	z M420.4,432.4c-2.4,0-4.4,2-4.4,4.4s2,4.4,4.4,4.4s4.4-2,4.4-4.4c0,0,0,0,0,0C424.8,434.4,422.8,432.4,420.4,432.4z"/>
<path class="st9" d="M423,435.4c-0.5-0.8-0.5-1.8-0.2-2.7c-1,1.3-2.9,1.6-4.2,0.6c-0.2-0.2-0.4-0.4-0.6-0.6c0.6,1.5-0.1,3.3-1.6,3.9
	c-0.3,0.1-0.5,0.2-0.8,0.2c1.6,0.2,2.8,1.7,2.6,3.4c0,0.3-0.1,0.5-0.2,0.8c1-1.3,2.9-1.6,4.2-0.6c0.2,0.2,0.4,0.4,0.6,0.6
	c-0.6-1.5,0.1-3.3,1.6-3.9c0.3-0.1,0.5-0.2,0.8-0.2C424.3,436.7,423.5,436.2,423,435.4z"/>
<circle class="st17" cx="420.4" cy="436.8" r="1.5"/>
<path class="st17" d="M468.8,436.8c0,4.1,3.3,7.4,7.4,7.3s7.4-3.3,7.3-7.4c0-4.1-3.3-7.3-7.4-7.4
	C472.1,429.4,468.8,432.7,468.8,436.8C468.8,436.8,468.8,436.8,468.8,436.8"/>
<path class="st9" d="M476.2,441.9c-2.8,0-5.1-2.3-5.1-5.1s2.3-5.1,5.1-5.1s5.1,2.3,5.1,5.1l0,0C481.3,439.6,479,441.9,476.2,441.9z
	 M476.2,432.4c-2.4,0-4.4,2-4.4,4.4s2,4.4,4.4,4.4s4.4-2,4.4-4.4c0,0,0,0,0,0C480.6,434.4,478.6,432.4,476.2,432.4z"/>
<path class="st9" d="M478.8,435.4c-0.5-0.8-0.5-1.8-0.2-2.7c-1,1.3-2.9,1.6-4.2,0.6c-0.2-0.2-0.4-0.4-0.6-0.6
	c0.6,1.5-0.1,3.3-1.6,3.9c-0.3,0.1-0.5,0.2-0.8,0.2c1.6,0.2,2.8,1.7,2.6,3.4c0,0.3-0.1,0.5-0.2,0.8c1-1.3,2.9-1.6,4.2-0.6
	c0.2,0.2,0.4,0.4,0.6,0.6c-0.6-1.5,0.1-3.3,1.6-3.9c0.3-0.1,0.5-0.2,0.8-0.2C480,436.7,479.2,436.2,478.8,435.4z"/>
<circle class="st17" cx="476.2" cy="436.8" r="1.5"/>
<path class="st0" d="M597.1,436.5l0.1,6.3c0,0,1.4,0.6,1.9-0.3l-0.4-6.1L597.1,436.5z"/>
<polygon class="st1" points="601.1,436.1 606.7,429.2 606.7,430.4 601.6,436.4 "/>
<path class="st2" d="M588.3,429c0.6-1,1.2-2.1,1.8-3.2c2.1-3.9,4.2-7.8,6.3-11.7c0.1-0.1,0.1-0.2,0.2-0.3c0.3,0.3,0.1,0.7,0,1.1
	c-0.9,3.5-1.7,7-2.6,10.4c-0.3,1.2-0.6,2.4-0.9,3.7c-0.1,0.4-0.3,0.8-0.5,1.2c-0.3,0.2-0.6,0.2-0.9,0.1c-1-0.1-1.9-0.2-2.9-0.2
	c-0.3-0.1-0.6-0.1-0.8-0.3C587.6,429.3,588,429.1,588.3,429"/>
<path class="st3" d="M592.6,430l3.9-15.6c0-0.2,0.1-0.4,0.1-0.6l0.1-0.2c0.5,0.1,0.5,0.5,0.7,0.9c0.4,1.2,0.6,2.4,1.1,3.6
	c0.1,0.2,0.1,0.5,0,0.8c-0.3,0.7-0.5,1.4-0.6,2.2c-0.4,1.6-0.8,3.2-1.1,4.9c0,0.3-0.2,0.5-0.3,0.8c0,0.2-0.2,0.4-0.3,0.6
	c-1,0.8-1.9,1.7-3,2.5C593.1,429.9,592.9,430,592.6,430L592.6,430"/>
<path class="st4" d="M598.5,418.9l-0.1-0.8c-0.1-1.1,0-2.2,0.2-3.3c0-0.2,0.1-0.4,0.1-0.7c0-0.2,0-0.5,0.3-0.5c1,2.2,2,4.5,3,6.7
	c1,2.2,1.9,4.4,2.9,6.5c0.1,0.1,0.1,0.3,0.2,0.4c0.5,0.5,0.8,1.1,0.9,1.8c0,0.1,0,0.1,0,0.2c-0.2,0.3-0.4,0.1-0.6,0
	s-0.5-0.5-0.7-0.7c-1.5-1.5-3-2.9-4.5-4.4c-0.5-1.4-1-2.8-1.5-4.2C598.4,419.6,598.4,419.2,598.5,418.9"/>
<path class="st1" d="M599,413.6c-0.2,1.4-0.3,2.8-0.5,4.1c0,0.1-0.1,0.2-0.1,0.3c-0.1-0.1-0.2-0.3-0.2-0.4c-0.2-1.1-0.8-2.2-1-3.3
	c0-0.3-0.3-0.5-0.4-0.7c0.7-0.2,1.4-0.3,2.1-0.2C598.9,413.4,598.9,413.6,599,413.6"/>
<path class="st5" d="M588.1,430l-0.1-0.3c1.5,0.2,3.1,0.3,4.7,0.4l0,0c0.1,0.1,0.1,0.1,0.1,0.2c0.1,0.5,0.1,1,0.1,1.5
	c-0.1,1.4,0.1,2.8,0.1,4.3c0,0.3,0,0.6-0.1,0.9c-0.1,0.2-0.3,0.3-0.5,0.1c-0.1-0.1-0.2-0.2-0.3-0.4c-1.1-1.6-2.2-3.3-3.2-5
	c-0.1-0.1-0.1-0.2-0.2-0.3s0-0.4-0.2-0.4C588.2,430.6,588.2,430.2,588.1,430"/>
<path class="st1" d="M592.7,430.1c0,0,0-0.1,0-0.1c1.3-1,2.6-2.1,3.9-3.2c0.1,0,0.1,0,0.2,0c0.6,0.4,1.1,0.9,1.6,1.4
	c0.6,0.5,1.2,1,1.7,1.5c0.2,0.2,0.4,0.2,0.6,0.1c0.3,0.1,0.3,0.3,0.3,0.5c0,0.2,0,0.4,0.1,0.6c0.1,1.7,0.3,3.4,0.3,5.1
	c0,0.1-0.1,0.3-0.3,0.3c-0.4-0.1-0.7-0.3-1-0.5c-2.1-1.6-4.3-3-6.4-4.7c-0.2-0.1-0.5-0.3-0.7-0.4
	C592.9,430.5,592.7,430.3,592.7,430.1"/>
<path class="st6" d="M596.6,426.8h-0.1l1-4.6c0.2-0.9,0.4-1.8,0.6-2.8c0-0.2,0-0.5,0.3-0.5c0.5,1.5,1.1,3,1.6,4.5
	c0.1,0.2,0.1,0.5,0.1,0.8c0,0,0,0.1,0,0.1c-0.5,0.5-1.1,1-1.8,1.4c-0.4,0.3-0.8,0.6-1.2,0.9C597,426.7,596.8,426.8,596.6,426.8"/>
<path class="st1" d="M601.3,436c-0.2-1.3-0.3-2.6-0.4-3.9c0-0.4-0.1-0.9-0.1-1.3s0.1-0.5,0.3-0.6c0.5-0.4,1.1-0.7,1.7-1
	c0.4-0.2,0.8-0.4,1.1-0.7c0.2-0.2,0.4-0.3,0.7-0.1s0.5,0.5,0.8,0.8c0.1,0.1,0.2,0.3,0.3,0.1c0.6,0.3,0.7,0.8,0.2,1.4s-1.1,1.3-1.6,2
	c-0.3,0.4-0.6,0.8-0.9,1.2c-0.6,0.5-1,1-1.5,1.7C601.9,435.7,601.7,436,601.3,436"/>
<path class="st1" d="M604.7,428.4c-0.1,0-0.1,0-0.2,0c-1,0.9-2.4,1.3-3.5,2c-0.1,0.1-0.2,0.2-0.2,0.3c-0.1-0.2-0.2-0.4-0.1-0.6
	c0.1-0.2,0-0.3-0.2-0.4c-0.2-0.4-0.3-0.9-0.2-1.3c0-1.2-0.2-2.3-0.3-3.5c0-0.2,0.1-0.4,0.1-0.6c0-0.1,0-0.1,0.1-0.2l0,0
	c0.4,0.1,0.6,0.4,0.8,0.6c1.1,1.2,2.3,2.2,3.4,3.3C604.5,428.1,604.6,428.2,604.7,428.4"/>
<path class="st6" d="M595.9,436.4l-2.5,0.5c-0.2,0.1-0.4,0.1-0.6,0c0-2.3-0.2-4.5-0.1-6.8c0.2,0.1,0.4,0.2,0.5,0.4
	c1.4,1.5,2.3,3.3,3.7,4.9c0.5,0.6,0.5,0.7-0.3,0.8c-0.2,0-0.3,0.1-0.4,0.2C596,436.4,595.9,436.4,595.9,436.4"/>
<path class="st6" d="M600.3,424.8c0.1,0.9,0.2,1.8,0.3,2.7c0.2,0.8,0.2,1.5,0,2.3c0,0.1,0.1,0.3-0.1,0.4s-0.2-0.1-0.3-0.2
	c-1.1-0.9-2.2-1.8-3.3-2.8c-0.1-0.1-0.3-0.2-0.3-0.4c1.2-0.9,2.3-1.8,3.6-2.6c0,0,0,0.1,0,0.1C600.2,424.4,600.2,424.7,600.3,424.8"
	/>
<path class="st6" d="M596,436.4c0.2-0.5,0.6-0.3,1-0.4c-1.2-1.4-2.2-3-3.3-4.5c-0.2-0.3-0.6-0.5-0.5-0.9c2.6,1.7,5.1,3.5,7.6,5.3
	c0.1,0.1,0.2,0.2,0.3,0.3l-3.2,0.2c-0.2,0.2-0.5,0.2-0.8,0.2c-0.3,0.1-0.5,0.1-0.8,0.1h-0.2C596.1,436.5,596,436.4,596,436.4"/>
<polygon class="st4" points="602.7,422.3 606.6,429 606,430.6 603.6,426.2 "/>
<polygon class="st2" points="588.6,429.7 587.5,429.5 596.7,413.6 "/>
<path class="st5" d="M587.5,429.5l4.2,7.2l0.7,0.2c0,0-3.8-7.4-3.9-7.2S587.5,429.5,587.5,429.5"/>
<polyline class="st6" points="592.8,436.9 601.6,436.4 600.4,435.6 593,436.8 "/>
<path class="st7" d="M596.3,436.5l0.1,5.7c0,0,0.4,0.7,0.7,0.5l0.1-6L596.3,436.5z"/>
<path class="st0" d="M597.3,437.4l0.1,6.3c0,0,1.4,0.6,1.9-0.3l-0.4-6.1L597.3,437.4z"/>
<polygon class="st1" points="601.3,437 606.9,430.2 607,431.3 601.9,437.3 "/>
<path class="st2" d="M588.5,429.9c0.6-1,1.2-2.1,1.8-3.2c2.1-3.9,4.2-7.8,6.3-11.7c0.1-0.1,0.1-0.2,0.2-0.3c0.3,0.3,0.1,0.7,0,1.1
	c-0.9,3.5-1.7,7-2.6,10.4c-0.3,1.2-0.6,2.4-0.9,3.7c-0.1,0.4-0.3,0.8-0.5,1.2c-0.3,0.2-0.6,0.2-0.9,0.1c-1-0.1-1.9-0.2-2.9-0.2
	c-0.3-0.1-0.6-0.1-0.8-0.3C587.9,430.3,588.2,430.1,588.5,429.9L588.5,429.9z"/>
<path class="st3" d="M592.8,431l3.9-15.6c0-0.2,0.1-0.4,0.1-0.6l0.1-0.2c0.5,0.1,0.5,0.5,0.7,0.9c0.4,1.2,0.6,2.4,1.1,3.6
	c0.1,0.2,0.1,0.5,0,0.8c-0.3,0.7-0.5,1.4-0.6,2.2c-0.4,1.6-0.8,3.2-1.1,4.9c0,0.3-0.2,0.5-0.3,0.8c0,0.2-0.2,0.4-0.3,0.6
	c-1,0.8-1.9,1.7-3,2.5C593.4,430.9,593.1,431,592.8,431L592.8,431L592.8,431z"/>
<path class="st4" d="M598.7,419.8l-0.1-0.8c-0.1-1.1,0-2.2,0.2-3.3c0-0.2,0.1-0.4,0.1-0.7c0-0.2,0-0.5,0.3-0.5c1,2.2,2,4.5,3,6.7
	c1,2.2,1.9,4.3,2.9,6.5c0.1,0.1,0.1,0.3,0.2,0.4c0.5,0.5,0.8,1.1,0.9,1.8c0,0.1,0,0.1,0,0.2c-0.2,0.3-0.4,0.1-0.6,0
	s-0.5-0.5-0.7-0.7c-1.5-1.5-3-2.9-4.5-4.4c-0.5-1.4-1-2.8-1.5-4.2C598.7,420.6,598.6,420.2,598.7,419.8L598.7,419.8z"/>
<path class="st1" d="M599.2,414.6c-0.2,1.4-0.3,2.8-0.5,4.1c0,0.1-0.1,0.2-0.1,0.3c-0.1-0.1-0.2-0.3-0.2-0.4c-0.2-1.2-0.8-2.2-1-3.3
	c0-0.3-0.3-0.5-0.4-0.7c0.7-0.2,1.4-0.3,2.1-0.2C599,414.4,599.1,414.5,599.2,414.6L599.2,414.6z"/>
<path class="st5" d="M588.3,430.9l-0.1-0.3c1.5,0.2,3.1,0.3,4.7,0.4l0,0c0.1,0.1,0.1,0.1,0.1,0.2c0.1,0.5,0.1,1,0.1,1.5
	c-0.1,1.4,0.1,2.8,0.1,4.3c0,0.3,0,0.6-0.1,0.9c-0.1,0.2-0.3,0.3-0.5,0.1c-0.1-0.1-0.2-0.2-0.3-0.4c-1.1-1.7-2.2-3.3-3.2-5
	c-0.1-0.1-0.1-0.2-0.2-0.3s0-0.4-0.2-0.4C588.4,431.6,588.4,431.2,588.3,430.9L588.3,430.9z"/>
<path class="st1" d="M592.9,431c0,0,0-0.1,0-0.1c1.3-1,2.6-2.1,3.9-3.2c0.1,0,0.1,0,0.2,0c0.6,0.4,1.1,0.9,1.6,1.4
	c0.6,0.5,1.2,1,1.7,1.5c0.2,0.2,0.4,0.2,0.6,0.1c0.3,0.1,0.3,0.3,0.3,0.5c0,0.2,0,0.4,0.1,0.6c0.1,1.7,0.3,3.4,0.3,5.1
	c0,0.1-0.1,0.3-0.3,0.3c-0.4-0.1-0.7-0.3-1-0.5c-2.1-1.6-4.3-3-6.4-4.7c-0.2-0.1-0.5-0.3-0.7-0.4C593.1,431.4,592.9,431.3,592.9,431
	L592.9,431z"/>
<path class="st6" d="M596.8,427.7h-0.1l1-4.6c0.2-0.9,0.4-1.8,0.6-2.8c0-0.2,0-0.5,0.3-0.5c0.5,1.5,1.1,3,1.6,4.5
	c0.1,0.2,0.1,0.5,0.1,0.8c0,0,0,0.1,0,0.1c-0.5,0.5-1.1,1-1.8,1.4c-0.4,0.3-0.8,0.6-1.2,0.9C597.3,427.7,597,427.8,596.8,427.7
	L596.8,427.7z"/>
<path class="st1" d="M601.5,436.9c-0.2-1.3-0.3-2.6-0.4-3.9c0-0.4-0.1-0.8-0.1-1.3c0-0.4,0.1-0.5,0.3-0.6c0.5-0.4,1.1-0.7,1.7-1
	c0.4-0.2,0.8-0.4,1.1-0.7c0.2-0.2,0.4-0.3,0.7-0.1s0.5,0.5,0.8,0.8c0.1,0.1,0.2,0.3,0.3,0.1c0.6,0.3,0.7,0.8,0.2,1.4
	c-0.5,0.6-1.1,1.3-1.6,2c-0.3,0.4-0.6,0.8-0.9,1.2c-0.6,0.5-1,1.1-1.5,1.7C602.1,436.6,601.9,436.9,601.5,436.9L601.5,436.9z"/>
<path class="st1" d="M604.9,429.4c-0.1,0-0.1,0-0.2,0c-1,0.9-2.4,1.3-3.5,2c-0.1,0.1-0.2,0.2-0.2,0.3c-0.1-0.2-0.2-0.4-0.1-0.6
	c0.1-0.2,0-0.3-0.2-0.4c-0.2-0.4-0.3-0.9-0.2-1.3c0-1.2-0.2-2.3-0.3-3.5c0-0.2,0.1-0.4,0.1-0.6c0-0.1,0-0.1,0.1-0.2l0,0
	c0.4,0.1,0.6,0.4,0.8,0.6c1.1,1.2,2.3,2.2,3.4,3.3C604.7,429.1,604.8,429.2,604.9,429.4L604.9,429.4z"/>
<path class="st6" d="M596.1,437.4l-2.5,0.5c-0.2,0.1-0.4,0.1-0.6,0c0-2.3-0.2-4.5-0.1-6.8c0.2,0.1,0.4,0.2,0.5,0.4
	c1.4,1.5,2.3,3.3,3.7,4.9c0.5,0.6,0.5,0.7-0.3,0.8c-0.2,0-0.3,0.1-0.4,0.2C596.3,437.3,596.2,437.4,596.1,437.4L596.1,437.4z"/>
<path class="st6" d="M600.6,425.8c0.1,0.9,0.2,1.8,0.3,2.7c0.2,0.8,0.2,1.5,0,2.3c0,0.1,0.1,0.3-0.1,0.4c-0.2,0.1-0.2-0.1-0.3-0.2
	c-1.1-0.9-2.2-1.8-3.3-2.8c-0.1-0.1-0.3-0.2-0.3-0.4c1.2-0.9,2.3-1.8,3.6-2.6c0,0,0,0.1,0,0.1S600.5,425.6,600.6,425.8L600.6,425.8z
	"/>
<path class="st6" d="M596.2,437.3c0.2-0.5,0.6-0.3,1-0.4c-1.2-1.4-2.2-3-3.3-4.5c-0.2-0.3-0.6-0.5-0.5-0.9c2.6,1.7,5.1,3.5,7.6,5.3
	c0.1,0.1,0.2,0.2,0.3,0.3l-3.2,0.1c-0.2,0.2-0.5,0.2-0.8,0.2c-0.3,0.1-0.5,0.1-0.8,0.1h-0.2C596.3,437.4,596.3,437.4,596.2,437.3
	L596.2,437.3z"/>
<polygon class="st4" points="603,423.2 606.8,429.9 606.3,431.5 603.8,427.1 "/>
<polygon class="st2" points="588.8,430.7 587.8,430.5 597,414.6 "/>
<path class="st5" d="M587.8,430.5l4.2,7.2l0.7,0.2c0,0-3.8-7.4-3.9-7.2S587.8,430.5,587.8,430.5z"/>
<polygon class="st6" points="593,437.9 601.9,437.3 600.6,436.5 593.2,437.7 "/>
<path class="st7" d="M596.5,437.5l0.1,5.7c0,0,0.4,0.7,0.7,0.5l0.1-6L596.5,437.5z"/>
<rect x="77" y="443.7" class="st18" width="536.8" height="0.8"/>
<path class="st19" d="M390.2,356.6c0.1,1.4-0.5,2.7-1.5,3.6c-1.3,0.9-2.8,1.4-4.4,1.3h-1.6v5.6h-2.5v-15h4.3c1.5-0.1,3,0.3,4.2,1.1
	C389.8,354,390.3,355.3,390.2,356.6z M382.7,359.4h1.3c1,0.1,1.9-0.2,2.8-0.7c0.6-0.5,0.9-1.3,0.9-2.1c0.1-0.7-0.2-1.4-0.8-1.9
	c-0.7-0.5-1.6-0.7-2.5-0.6h-1.7L382.7,359.4z"/>
<path class="st19" d="M405,351.9v9.7c0,1-0.2,2-0.7,2.9c-0.5,0.8-1.2,1.5-2.1,1.9c-1,0.5-2.1,0.7-3.2,0.7c-1.6,0.1-3.2-0.4-4.4-1.5
	c-1.1-1.1-1.6-2.6-1.5-4.1v-9.7h2.5v9.5c-0.1,1,0.2,2,0.9,2.7c0.7,0.6,1.7,1,2.6,0.9c2.3,0,3.5-1.2,3.5-3.6v-9.5H405z"/>
<path class="st19" d="M415.3,367l-4.3-12.6h-0.1c0.1,1.9,0.2,3.6,0.2,5.2v7.3h-2.2v-15h3.5l4.2,12h0.1l4.3-12h3.5v15H422v-7.4
	c0-0.7,0-1.7,0.1-2.9c0-1.2,0.1-1.9,0.1-2.2H422l-4.5,12.5H415.3z"/>
<path class="st19" d="M438.2,356.6c0.1,1.4-0.5,2.7-1.5,3.6c-1.3,0.9-2.8,1.4-4.4,1.3h-1.6v5.6h-2.5v-15h4.3c1.5-0.1,3,0.3,4.2,1.1
	C437.8,354,438.3,355.3,438.2,356.6z M430.7,359.4h1.3c1,0.1,1.9-0.2,2.8-0.7c0.6-0.5,0.9-1.3,0.9-2.1c0.1-0.7-0.2-1.4-0.8-1.9
	c-0.7-0.5-1.6-0.7-2.5-0.6h-1.7L430.7,359.4z"/>
<path class="st19" d="M469,367h-2.5v-6.8h-6.9v6.8h-2.5v-15h2.5v6.1h6.9V352h2.5V367z"/>
<path class="st19" d="M482.8,367.1l-1.5-4.2h-5.7l-1.5,4.2h-2.6l5.6-15.1h2.7l5.6,15.1H482.8z M480.6,360.8l-1.4-4.1
	c-0.1-0.3-0.2-0.7-0.4-1.3c-0.2-0.6-0.3-1-0.4-1.3c-0.2,0.9-0.5,1.9-0.8,2.8l-1.4,3.9L480.6,360.8z"/>
<path class="st19" d="M489.3,361v6h-2.5v-15h4.2c1.5-0.1,3,0.3,4.3,1.1c1,0.8,1.5,2,1.4,3.3c0,1.8-1.2,3.5-2.9,4l4.2,6.7h-2.8
	l-3.6-6L489.3,361z M489.3,359h1.7c0.9,0.1,1.8-0.2,2.5-0.6c0.5-0.5,0.8-1.2,0.8-1.9c0.1-0.7-0.2-1.4-0.8-1.8
	c-0.8-0.4-1.6-0.6-2.5-0.5h-1.6L489.3,359z"/>
<path class="st19" d="M506.4,358.9h5.6v7.5c-0.8,0.3-1.7,0.5-2.6,0.6c-0.9,0.1-1.8,0.2-2.7,0.2c-2,0.1-3.9-0.6-5.3-2
	c-1.3-1.6-2-3.6-1.9-5.7c-0.1-2.1,0.6-4.2,2.1-5.7c1.6-1.4,3.6-2.1,5.7-2c1.5,0,3.1,0.3,4.5,0.9l-0.9,2c-1.1-0.5-2.4-0.8-3.7-0.8
	c-1.4-0.1-2.8,0.5-3.8,1.5c-1,1.1-1.5,2.6-1.4,4.1c-0.1,1.5,0.3,3,1.3,4.2c0.9,1,2.2,1.5,3.6,1.4c0.9,0,1.7-0.1,2.5-0.3V361h-3.1
	L506.4,358.9z"/>
<path class="st19" d="M524.1,367h-8.5v-15h8.5v2.1h-6v4.1h5.7v2.1H518v4.7h6L524.1,367z"/>
<path class="st19" d="M453.4,362.1l-0.1,0.3c-1.6,2.7-5,3.7-7.7,2.1s-3.7-5-2.1-7.7c1.6-2.7,5-3.7,7.7-2.1c0.8,0.5,1.5,1.1,2,1.9
	l0.2,0.3l1.7-1.3l-0.1-0.2c-1.5-2.1-3.9-3.5-6.5-3.5c-4.3,0-7.8,3.4-7.9,7.8c0,4.3,3.4,7.8,7.8,7.9c2.8,0,5.4-1.5,6.8-3.9l0.1-0.2
	L453.4,362.1z"/>
<path class="st0" d="M38.6,435.7l0.1,7.7c0,0,1.8,0.8,2.3-0.3l-0.5-7.5L38.6,435.7z"/>
<polygon class="st1" points="43.5,435.2 50.3,426.8 50.4,428.3 44.2,435.6 "/>
<path class="st2" d="M27.9,426.5c0.8-1.3,1.5-2.6,2.1-3.9c2.6-4.8,5.2-9.5,7.7-14.3c0.1-0.1,0.2-0.3,0.3-0.4
	c0.4,0.4,0.2,0.9,0.1,1.3c-1.1,4.3-2.1,8.5-3.2,12.8c-0.4,1.5-0.7,3-1.1,4.5c-0.1,0.5-0.3,1-0.6,1.4c-0.3,0.2-0.7,0.2-1.1,0.2
	c-1.2-0.1-2.3-0.2-3.5-0.3c-0.3-0.1-0.7-0.2-1-0.3C27.1,427,27.5,426.7,27.9,426.5"/>
<path class="st3" d="M33.1,427.8l4.8-19.1c0.1-0.2,0.1-0.5,0.1-0.7l0.1-0.2c0.6,0.1,0.7,0.6,0.8,1.1c0.5,1.4,0.8,3,1.3,4.4
	c0.1,0.3,0.2,0.6,0.1,1c-0.3,0.9-0.6,1.8-0.7,2.7c-0.4,2-0.9,4-1.3,6c-0.1,0.3-0.2,0.6-0.3,0.9c0,0.3-0.2,0.5-0.4,0.7
	c-1.2,1-2.4,2.1-3.6,3C33.8,427.7,33.5,427.8,33.1,427.8L33.1,427.8"/>
<path class="st4" d="M40.3,414.1l-0.2-0.9c-0.1-1.3,0-2.7,0.3-4c0.1-0.3,0.1-0.5,0.1-0.8c0-0.3,0-0.6,0.4-0.6
	c1.2,2.7,2.4,5.5,3.7,8.2c1.2,2.7,2.3,5.3,3.5,8c0.1,0.2,0.2,0.3,0.3,0.5c0.6,0.6,1,1.4,1.1,2.2c0,0.1,0,0.2,0,0.2
	c-0.3,0.4-0.5,0.2-0.7,0s-0.6-0.6-0.9-0.9c-1.8-1.8-3.7-3.5-5.5-5.4c-0.7-1.7-1.3-3.4-1.9-5.2C40.2,415.1,40.2,414.6,40.3,414.1"/>
<path class="st1" d="M40.9,407.8c-0.2,1.7-0.4,3.4-0.6,5c0,0.1-0.1,0.3-0.2,0.4c-0.1-0.2-0.3-0.3-0.3-0.5c-0.2-1.4-1-2.7-1.2-4.1
	c0-0.3-0.3-0.6-0.5-0.9c0.8-0.3,1.7-0.4,2.5-0.3C40.7,407.4,40.8,407.6,40.9,407.8"/>
<path class="st5" d="M27.5,427.8l-0.1-0.4c1.9,0.2,3.8,0.4,5.7,0.5l0,0c0.1,0.1,0.1,0.1,0.2,0.2c0.1,0.6,0.2,1.2,0.1,1.8
	c-0.1,1.7,0.2,3.5,0.1,5.2c0,0.3,0,0.7-0.1,1c-0.1,0.3-0.3,0.4-0.6,0.1c-0.2-0.1-0.3-0.3-0.4-0.5c-1.3-2-2.7-4-3.9-6.1
	c-0.1-0.1-0.1-0.2-0.2-0.4s0-0.4-0.3-0.4C27.7,428.6,27.7,428.1,27.5,427.8"/>
<path class="st1" d="M33.2,427.9c0-0.1,0-0.1,0-0.2c1.6-1.2,3.2-2.5,4.8-3.9c0.1-0.1,0.1-0.1,0.2-0.1c0.7,0.5,1.4,1.1,2,1.7
	c0.7,0.6,1.4,1.2,2.1,1.8c0.2,0.2,0.5,0.3,0.8,0.2c0.4,0.1,0.4,0.4,0.3,0.6c0,0.2,0,0.5,0.1,0.7c0.2,2.1,0.3,4.2,0.4,6.3
	c0,0.2-0.1,0.3-0.3,0.3c-0.4-0.1-0.8-0.3-1.2-0.6c-2.6-2-5.3-3.7-7.8-5.7c-0.3-0.2-0.6-0.3-0.8-0.5
	C33.5,428.3,33.3,428.1,33.2,427.9"/>
<path class="st6" d="M38,423.9h-0.2c0.4-1.9,0.8-3.8,1.3-5.7c0.3-1.1,0.5-2.3,0.8-3.4c0.1-0.2,0-0.6,0.4-0.7c0.7,1.9,1.3,3.7,2,5.6
	c0.1,0.3,0.2,0.7,0.2,1c0,0,0,0.1,0,0.1c-0.6,0.7-1.4,1.3-2.2,1.8c-0.5,0.4-1,0.7-1.5,1.1C38.6,423.8,38.3,423.9,38,423.9"/>
<path class="st1" d="M43.7,435.1c-0.3-1.6-0.4-3.2-0.5-4.8c0-0.5-0.1-1-0.1-1.6s0.1-0.6,0.4-0.7c0.7-0.5,1.4-0.9,2.1-1.2
	c0.5-0.2,0.9-0.5,1.3-0.8c0.3-0.2,0.5-0.4,0.9-0.2c0.3,0.2,0.7,0.6,1,0.9c0.1,0.1,0.2,0.3,0.4,0.1c0.7,0.4,0.8,0.9,0.3,1.7
	s-1.3,1.6-2,2.4c-0.4,0.5-0.7,0.9-1.1,1.5c-0.7,0.6-1.3,1.3-1.8,2C44.5,434.8,44.2,435.1,43.7,435.1"/>
<path class="st1" d="M47.9,425.8c-0.1,0-0.2,0-0.2,0c-1.3,1.1-2.9,1.6-4.2,2.5c-0.1,0.1-0.2,0.2-0.3,0.3c-0.2-0.2-0.2-0.5-0.1-0.8
	c0.1-0.2,0-0.4-0.2-0.4c-0.2-0.5-0.3-1.1-0.2-1.6c0-1.4-0.2-2.9-0.4-4.3c0-0.2,0.1-0.5,0.1-0.7c0-0.1,0-0.1,0.1-0.2l0,0
	c0.5,0.1,0.7,0.5,1,0.8c1.3,1.4,2.8,2.7,4.2,4.1C47.7,425.6,47.8,425.7,47.9,425.8"/>
<path class="st6" d="M37.1,435.7l-3.1,0.6c-0.2,0.1-0.5,0.1-0.7,0.1c0-2.8-0.2-5.6-0.1-8.3c0.2,0.1,0.5,0.2,0.6,0.4
	c1.8,1.8,2.9,4,4.5,5.9c0.6,0.7,0.6,0.8-0.3,1c-0.2,0-0.4,0.1-0.5,0.3C37.3,435.7,37.2,435.7,37.1,435.7"/>
<path class="st6" d="M42.6,421.4c0.2,1.1,0.3,2.2,0.3,3.3c0,0.9,0.4,1.9,0,2.8c0,0.2,0.1,0.4-0.1,0.5c-0.2,0.1-0.2-0.1-0.3-0.2
	c-1.4-1.1-2.7-2.2-4-3.4c-0.2-0.1-0.4-0.2-0.4-0.5c1.4-1.1,2.9-2.2,4.4-3.2c0,0,0,0.1,0,0.2S42.4,421.3,42.6,421.4"/>
<path class="st6" d="M37.3,435.5c0.2-0.6,0.8-0.4,1.2-0.5c-1.5-1.7-2.7-3.7-4-5.5c-0.2-0.3-0.8-0.6-0.7-1.2c3.2,2.1,6.2,4.3,9.3,6.5
	c0.1,0.1,0.3,0.2,0.4,0.3l-4,0.2c-0.3,0.3-0.6,0.2-0.9,0.3c-0.3,0.1-0.7,0.1-1,0.1c-0.1,0-0.2,0-0.2,0
	C37.3,435.7,37.2,435.6,37.3,435.5"/>
<polygon class="st4" points="45.5,418.4 50.3,426.6 49.5,428.5 46.5,423.1 "/>
<polygon class="st2" points="28.2,427.5 26.9,427.2 38.2,407.8 "/>
<path class="st5" d="M26.9,427.2l5.2,8.8l0.8,0.2c0,0-4.6-9-4.7-8.8S26.9,427.2,26.9,427.2"/>
<polyline class="st6" points="33.3,436.3 44.2,435.6 42.6,434.7 33.5,436.1 "/>
<path class="st7" d="M37.7,435.8l0.1,7c0,0,0.5,0.8,0.9,0.6l0.2-7.4L37.7,435.8z"/>
</svg>
