<svg id="Layer_1" data-name="Layer 1" xmlns="http://www.w3.org/2000/svg" viewBox="0 0 446 446"><defs><style>.cls-1{fill:#fff;}</style></defs><title>Artboard 2</title><path class="cls-1" d="M425.67,445.17H20.33a10,10,0,0,1-10-10V29.83a10,10,0,0,1,10-10H425.67a10,10,0,0,1,10,10V435.17A10,10,0,0,1,425.67,445.17Zm-395.33-20H415.67V39.83H30.33Z"/><rect class="cls-1" x="62.5" y="72" width="87.45" height="87.45"/><rect class="cls-1" x="179.27" y="72" width="87.45" height="87.45"/><rect class="cls-1" x="296.05" y="72" width="87.45" height="87.45"/><rect class="cls-1" x="62.5" y="188.77" width="87.45" height="87.45"/><rect class="cls-1" x="179.27" y="188.77" width="87.45" height="87.45"/><rect class="cls-1" x="296.05" y="188.77" width="87.45" height="87.45"/><rect class="cls-1" x="62.5" y="305.55" width="87.45" height="87.45"/><rect class="cls-1" x="179.27" y="305.55" width="87.45" height="87.45"/><rect class="cls-1" x="296.05" y="305.55" width="87.45" height="87.45"/><rect class="cls-1" x="312.78" y="0.83" width="30.64" height="52"/><rect class="cls-1" x="102.58" y="0.83" width="30.64" height="52"/></svg>