<svg id="Layer_1" data-name="Layer 1" xmlns="http://www.w3.org/2000/svg" viewBox="0 0 21.42 20.58"><defs><style>.cls-1{fill:#e76876;}</style></defs><title>Artboard 27 copy</title><path class="cls-1" d="M11.15,9.79v0l0,0L10,9.77H9.8l.46-.52c.5-.57.87-1,1.19-1.48l.48-.66-.68.45c-.46.31-.93.66-1.52,1.14-.4.33-.82.69-1.28,1.1h0l-.13.11-.89.8,1.22,0h.19v0l1.15,0h.17l-.45.49c-.5.56-.86,1-1.19,1.46L8,13.41,8.72,13c.46-.3.93-.65,1.52-1.11.41-.32.83-.68,1.28-1.08h0l.12-.11.91-.8L11.33,9.8Z"/><path class="cls-1" d="M20.11,7.38h-1V5.68a.3.3,0,0,0-.3-.3H1.31a.3.3,0,0,0-.3.3V14.9a.3.3,0,0,0,.3.3H18.8a.3.3,0,0,0,.3-.3V13.2h1a.3.3,0,0,0,.3-.3V7.68A.3.3,0,0,0,20.11,7.38Zm-2,5.14v1.7H2V6.36H18.11v1.7a.3.3,0,0,0,.3.3h1v3.86h-1A.3.3,0,0,0,18.12,12.52Z"/></svg>