<svg id="Layer_1" data-name="Layer 1" xmlns="http://www.w3.org/2000/svg" viewBox="0 0 23.33 22.71"><defs><style>.cls-1{fill:#a4d9df;}</style></defs><title>Artboard 3</title><path class="cls-1" d="M11.67,1.36a10,10,0,1,0,10,10A10,10,0,0,0,11.67,1.36Zm6.18,7.38a8.88,8.88,0,0,1-1.05,1,7.24,7.24,0,0,1-.69.44A1.23,1.23,0,0,1,14.5,10a5.29,5.29,0,0,0-.69-.62A.73.73,0,0,0,13,9.24a2.63,2.63,0,0,0-1.31.84c-.44.44-.84.95-1.24,1.38a6.15,6.15,0,0,0-.62,1.05,1.11,1.11,0,0,0,0,.84.58.58,0,0,0,.33.33,3.38,3.38,0,0,1,.84.76,1.07,1.07,0,0,1,.25,1.13,2.92,2.92,0,0,1-.55,1.05,7.24,7.24,0,0,0-.44.69,1.08,1.08,0,0,1-.69.55.78.78,0,0,1-.69-.07,13.76,13.76,0,0,1-1.05-.95,2.83,2.83,0,0,1-.76-1.45C7,15.13,7,15,6.91,14.77A5.91,5.91,0,0,1,7,13.17a5.61,5.61,0,0,1,.62-1.53c.15-.33.36-.62.55-.95a7.79,7.79,0,0,1,.69-.95A10.43,10.43,0,0,1,9.89,8.63,12.69,12.69,0,0,1,11.12,7.5a6.68,6.68,0,0,1,2.07-1.24c.33-.07.62-.15,1-.25a4.55,4.55,0,0,1,1.74.15,3.66,3.66,0,0,1,.95.44,6,6,0,0,1,1,.95A.85.85,0,0,1,17.85,8.74Z"/></svg>