<svg id="Layer_1" data-name="Layer 1" xmlns="http://www.w3.org/2000/svg" viewBox="0 0 31.05 38.62"><defs><style>.cls-1{fill:#e76876;}</style></defs><title>Artboard 30</title><path class="cls-1" d="M28.53,37.84h-26A.89.89,0,0,1,1.59,37V13.76a.89.89,0,0,1,.92-.86H10a.86.86,0,1,1,0,1.71H3.43v21.5H27.61V14.62H21.06a.86.86,0,1,1,0-1.71h7.47a.89.89,0,0,1,.92.86V37A.89.89,0,0,1,28.53,37.84Z"/><path class="cls-1" d="M21.61,9.62,16,1a.53.53,0,0,0-.86,0L9.44,9.62a.52.52,0,0,0,.43.8h3.57v13.7a.74.74,0,0,0,.74.74h2.7a.74.74,0,0,0,.74-.74V10.42h3.57a.52.52,0,0,0,.43-.8Z"/></svg>