<svg id="Layer_1" data-name="Layer 1" xmlns="http://www.w3.org/2000/svg" viewBox="0 0 23.33 22.71"><defs><style>.cls-1{fill:#a4d9df;}</style></defs><title>Artboard 3 copy 2</title><path class="cls-1" d="M20.39,6.8a9.63,9.63,0,0,0-8.14-5.38H11.12a9.74,9.74,0,0,0-8.76,6.8c-.22.62-.29,1.2-.55,1.89v2.62c.15.07.07.29.15.44a9.86,9.86,0,0,0,11.27,8.11A10,10,0,0,0,20.39,6.8m-5.56.4c-.22.22-.62-.15-.91-.15S13.71,7,13.56,7a1,1,0,0,0-1.27,1,4.15,4.15,0,0,0-.07,1c0,.29.07.29.36.29h1.34c.22,0,.29.07.29.29.07,1.05.07,1.05-1,1.05s-1,0-1,1v5.27c0,.22-.07.36-.29.36H10.54c-.29,0-.36-.07-.36-.36V11.13c0-.36-.07-.55-.44-.55-.69,0-.62.07-.62-.62V9.89c0-.69,0-.69.69-.69.36,0,.44-.07.44-.44V8.15A2.42,2.42,0,0,1,12.8,5.6a6,6,0,0,1,2,.15c.22.07.29.15.29.36-.22.4-.07.84-.22,1.09"/><path class="cls-1" d="M11.09,1.39h1.05V1.31l-1.05.07h0"/></svg>