<svg id="Layer_1" data-name="Layer 1" xmlns="http://www.w3.org/2000/svg" viewBox="0 0 19.62 20.58"><defs><style>.cls-1{fill:#ea6877;}.cls-2,.cls-3{fill:#fff;}.cls-2{fill-rule:evenodd;}</style></defs><title>Artboard 27</title><polygon class="cls-1" points="13.74 18.54 9.81 14.22 5.88 18.54 5.88 2.04 13.74 2.04 13.74 18.54"/><path class="cls-2" d="M12.06,5.33a.7.7,0,0,0-.21-.08l-1-.18a.11.11,0,0,1-.1-.07c-.13-.28-.27-.56-.41-.84a1.21,1.21,0,0,0-.22-.3.34.34,0,0,0-.5,0,1.13,1.13,0,0,0-.21.28c-.15.28-.29.57-.44.85a.14.14,0,0,1-.09.06l-.91.13a1.31,1.31,0,0,0-.35.1.36.36,0,0,0-.18.52A1,1,0,0,0,7.58,6l.68.69a.11.11,0,0,1,0,.11c0,.16-.06.32-.09.48L8.1,8h0s0,.05,0,.08a.38.38,0,0,0,.5.39,1.16,1.16,0,0,0,.26-.09l.86-.43a.11.11,0,0,1,.12,0l.85.45a1.23,1.23,0,0,0,.3.1.35.35,0,0,0,.44-.28,1.17,1.17,0,0,0,0-.37c0-.31-.09-.62-.14-.92a.13.13,0,0,1,0-.12L12,6.13a1.24,1.24,0,0,0,.22-.29A.36.36,0,0,0,12.06,5.33Z"/><path class="cls-3" d="M11.08,8.66h-.13a1.38,1.38,0,0,1-.34-.12l-.78-.41-.05,0-.83.42a1.31,1.31,0,0,1-.3.11.6.6,0,0,1-.49-.09.58.58,0,0,1-.21-.39H7.88l0-.18L8,7.3c0-.15.05-.3.08-.46L8,6.78l-.6-.61a1.17,1.17,0,0,1-.21-.3.54.54,0,0,1,.27-.76A1.44,1.44,0,0,1,7.9,5l.51-.07.37-.05.17-.32.27-.51a1.32,1.32,0,0,1,.25-.32.52.52,0,0,1,.75,0,1.38,1.38,0,0,1,.25.35c.12.22.23.45.33.68l.07.14,1,.17a.86.86,0,0,1,.26.1.53.53,0,0,1,.23.75,1.42,1.42,0,0,1-.25.33l-.59.58-.07.07,0,.17c0,.24.08.48.11.72a1.34,1.34,0,0,1,0,.43.54.54,0,0,1-.24.36A.54.54,0,0,1,11.08,8.66Zm-1.3-.94a.3.3,0,0,1,.15,0l.07,0,.77.41A1,1,0,0,0,11,8.3a.2.2,0,0,0,.15,0,.19.19,0,0,0,.08-.12,1,1,0,0,0,0-.31c0-.24-.07-.47-.11-.71l0-.21a.3.3,0,0,1,.1-.28l.07-.07L11.88,6a1,1,0,0,0,.19-.24A.18.18,0,0,0,12,5.49h0l-.15-.06-1-.18a.29.29,0,0,1-.23-.17l-.08-.16c-.11-.22-.21-.45-.33-.67A1,1,0,0,0,10,4,.16.16,0,0,0,9.7,4a.93.93,0,0,0-.18.23l-.26.5-.18.35a.31.31,0,0,1-.22.16l-.41.06L8,5.36a1.12,1.12,0,0,0-.3.08.22.22,0,0,0-.12.11.23.23,0,0,0,0,.17.85.85,0,0,0,.15.2l.59.6.09.09a.29.29,0,0,1,.08.27c0,.16-.06.32-.08.48L8.29,8V8h0L8.11,8h.18a.26.26,0,0,0,.08.19.24.24,0,0,0,.2,0,1,1,0,0,0,.22-.08l.85-.43A.3.3,0,0,1,9.78,7.72Z"/></svg>