<svg id="Layer_1" data-name="Layer 1" xmlns="http://www.w3.org/2000/svg" xmlns:xlink="http://www.w3.org/1999/xlink" viewBox="0 0 256 256"><defs><style>.cls-1{fill:#f5891f;}.cls-2{fill:#f05a29;}.cls-3{fill:url(#radial-gradient);}.cls-4{fill:url(#radial-gradient-2);}</style><radialGradient id="radial-gradient" cx="31.28" cy="120.51" r="25.81" gradientUnits="userSpaceOnUse"><stop offset="0" stop-color="#fff"/><stop offset="0.31" stop-color="#2eaae1"/><stop offset="1" stop-color="#2a3e90"/></radialGradient><radialGradient id="radial-gradient-2" cx="30.99" cy="168.88" r="23.66" xlink:href="#radial-gradient"/></defs><title>Gridwhiz_logo</title><path class="cls-1" d="M167.84,102.88A24.29,24.29,0,0,1,167,109l-5.81,23.07h0L149.78,97h0l-11.55,35.2L132.48,109a25.61,25.61,0,0,1-.84-6.22,12,12,0,0,1,.78-4.84H120.75a21.33,21.33,0,0,1,2.39,4.84q1.15,3,2.77,9l9,33.92h5.79l8.91-27.43,9.23,27.43h5.79l9.05-33.92q1.65-6,2.77-9a22.23,22.23,0,0,1,2.35-4.79h-11.7A12.56,12.56,0,0,1,167.84,102.88ZM207.57,136V122.85q0-5.38-2.34-8.21a8.43,8.43,0,0,0-6.86-2.82,16.66,16.66,0,0,0-4.27.7l-5,5.79v-7.56a70.35,70.35,0,0,1,.32-7.55,23.42,23.42,0,0,1,1.11-5l-4.72,1-4.72,1a22,22,0,0,1,1.1,4.33,39.59,39.59,0,0,1,.3,5.36V136a46.08,46.08,0,0,1-.3,6,11.59,11.59,0,0,1-1.1,3.66h9.44a12.54,12.54,0,0,1-1.11-3.71,43,43,0,0,1-.32-6V120.11l1.49-.67a12.74,12.74,0,0,1,4.94-1.4,5.42,5.42,0,0,1,4.12,1.42,6.08,6.08,0,0,1,1.34,4.31V136a44.06,44.06,0,0,1-.31,6,11.59,11.59,0,0,1-1.09,3.66h9.2a10.22,10.22,0,0,1-.93-3.43A56.48,56.48,0,0,1,207.57,136Zm11.78-19.72a12.31,12.31,0,0,1,1.12-3.72H211a37.43,37.43,0,0,1,1.1,4.88,34.81,34.81,0,0,1,.3,4.81V136a46.08,46.08,0,0,1-.3,6,11.59,11.59,0,0,1-1.1,3.66h9.45a12.25,12.25,0,0,1-1.12-3.71,43,43,0,0,1-.32-6V122.24A43.18,43.18,0,0,1,219.35,116.27ZM215.58,109a4,4,0,0,0,3.16-1.48,5.29,5.29,0,0,0,1.3-3.64,5.36,5.36,0,0,0-1.3-3.66,4.11,4.11,0,0,0-6.33,0,5.36,5.36,0,0,0-1.3,3.66,5.29,5.29,0,0,0,1.3,3.64A4.05,4.05,0,0,0,215.58,109Zm33.16,22.84a16.92,16.92,0,0,1-4.45,7.75,14.32,14.32,0,0,1-2.86.91,42.1,42.1,0,0,1-8,.59h-.3l5.36-12q3.14-6.95,7.62-16.48v0H226.81c-2.16,2.32-3.59,8.15-4,11.65a21.91,21.91,0,0,0-.1,2.32,17.47,17.47,0,0,1,4.57-8.09h0a12.29,12.29,0,0,1,2.48-.74,40.89,40.89,0,0,1,7.54-.53c-1.92,4.62-3.72,8.7-5.41,12.21q-3.26,6.94-8.29,16.3h20.81l.21-.16c2.22-2.25,3.61-7.81,4-11.36A22,22,0,0,0,248.74,131.83Z"/><path class="cls-2" d="M75.92,111.82a13.09,13.09,0,0,0-4.38.82l-5,5.66-.2-1c-1.55-6.89-3.72-10-10.33-15.21-1.34-1.06-4.69-2.3-6.25-3.31,5.2,6.08,8.81,13.38,9.9,19.9.1,1.09.15,2.26.15,3.53V136a46.08,46.08,0,0,1-.3,6,11.34,11.34,0,0,1-1.1,3.66h9.45A12.54,12.54,0,0,1,66.7,142a43.24,43.24,0,0,1-.31-6V120.11l1.49-.67a12.7,12.7,0,0,1,4.93-1.4,7.31,7.31,0,0,1,4.43,1.37l.3.21S77.08,111.82,75.92,111.82Zm11.15,4.45a12.91,12.91,0,0,1,1.11-3.72H78.74a37.43,37.43,0,0,1,1.1,4.88,34.81,34.81,0,0,1,.3,4.81V136a46.08,46.08,0,0,1-.3,6,11.59,11.59,0,0,1-1.1,3.66h9.44A12.84,12.84,0,0,1,87.07,142a43,43,0,0,1-.32-6V122.24A43.18,43.18,0,0,1,87.07,116.27ZM83.29,109a4.05,4.05,0,0,0,3.17-1.48,5.29,5.29,0,0,0,1.3-3.64,5.36,5.36,0,0,0-1.3-3.66,4.11,4.11,0,0,0-6.33,0,5.36,5.36,0,0,0-1.3,3.66,5.29,5.29,0,0,0,1.3,3.64A4,4,0,0,0,83.29,109Zm35.1,36.69a12.54,12.54,0,0,1-1.12-3.71,43,43,0,0,1-.32-6V110.75q0-5,.28-7.8a19.48,19.48,0,0,1,1-4.78l-4.66,1-4.63,1a22,22,0,0,1,1.1,4.33,39.59,39.59,0,0,1,.3,5.36v2.59a12.28,12.28,0,0,0-3.75-.55,15.62,15.62,0,0,0-12.42,5.81q-5,5.81-5,14.55,0,6.56,3.58,10.39t9.71,3.84a11.26,11.26,0,0,0,3.9-.79l3.93-4.45v4.51Zm-10-5.3a9.12,9.12,0,0,1-3.63.73,7.53,7.53,0,0,1-6.38-3.18Q96,134.74,96,129.31c0-4.53.66-7.79,2-9.79s3.42-3,6.37-3a9.1,9.1,0,0,1,6,1.93v20.9Z"/><path class="cls-3" d="M18.28,121.85a18.27,18.27,0,0,1-7.22-12.53,23.75,23.75,0,0,0,5,30.73c1.72,1.78,5.16,3.29,5.91,3.8l3.69-18.54a18.51,18.51,0,0,1-7.34-3.46C18.34,121.93,18.21,121.77,18.28,121.85Zm13-23.8a23.68,23.68,0,0,0-7,1,15.4,15.4,0,0,1,8.27-6.28s-11-.7-16.54,10.77h0a0,0,0,0,1,0,0l-.09.19.05,0c-1.72,5,.75,7.67.82,8.47H28.24l.57-2.81a2.33,2.33,0,0,1,4.59,0l.55,2.82h14a10.55,10.55,0,0,1,3.19,8.11c0,14.85-12.61,23.5-24.74,25.25.87.1,2.37,2.6,3.27,2.6,13.13,0,25.41-13.25,25.41-26.38A23.78,23.78,0,0,0,31.28,98.05Zm15.31,21.47a31.41,31.41,0,0,1-10.09,5.77l2,11.23C42.12,134,47.49,126.12,46.59,119.52Z"/><path class="cls-4" d="M16.72,179a14.53,14.53,0,0,1-1.47-4.17c-1.87-7.6,2.08-15.88,10-18,4-.72,7.92,0,10.08,4s.72,9-4.32,9.36c2.16,2.52,5.19,3.35,8.28.72a9.74,9.74,0,0,0,3.25-6.12c.35-5.4-3.25-10.44-8.29-12.6A17.2,17.2,0,0,0,17.7,154.3c-9,6.84-10.08,19.08-3.6,28.08,5.39,7.2,13.67,10.08,22.31,10.08C28.14,191.38,20.21,187.06,16.72,179Zm33.37-28.69a22.76,22.76,0,0,1-1.49,23.89,14.46,14.46,0,0,1-2.86,3.37c-4.65,3.7-10.77,5.5-16.16,3.34-4.68-2.16-9-7.2-6.84-12.6,1.79-4.68,7.91-6.48,11.15-2.16a5.35,5.35,0,0,0-3.6-7.2c-3.44-1-6.83-.72-9.71,1.8a13.15,13.15,0,0,0-4,11.88c.71,6.12,4.67,10.44,10.07,13,10.44,4.68,22.68-1.8,26.64-12.24C56.21,165.82,54.41,157.18,50.09,150.34ZM28.52,149a14.77,14.77,0,0,1,4.34.8c5.35,1.24,9.31,5.92,10.75,11A11.41,11.41,0,0,1,40,172.66a7.66,7.66,0,0,1-11.16-1.44c-1.08-1.8-.36-3.6.37-5.4-3.24.36-5.84,3-4.69,7.56.82,3.24,5.76,7.2,10.44,7.2,6.12,0,11.16-4.32,13.32-9.72,3.6-9.36-1.44-20.52-10.8-24.12-11.51-4.32-25.19,1.44-30.23,13A22.37,22.37,0,0,1,28.52,149Z"/></svg>