<svg id="Layer_1" data-name="Layer 1" xmlns="http://www.w3.org/2000/svg" viewBox="0 0 98.6 42.41"><defs><style>.cls-1,.cls-4{fill:#e36876;}.cls-2,.cls-5{fill:#fff;}.cls-3{fill:#83cbcf;}.cls-4{stroke:#fff;stroke-width:0.07px;}.cls-4,.cls-5{stroke-miterlimit:10;}.cls-5{stroke:#e36876;stroke-width:0.14px;}</style></defs><title>Artboard 18</title><path class="cls-1" d="M26,20.6a2.25,2.25,0,0,1-.79,1.85,3.48,3.48,0,0,1-2.25.64h-.8V26H20.88v-7.7H23.1a3.36,3.36,0,0,1,2.16.59A2.12,2.12,0,0,1,26,20.6ZM22.14,22h.67a2.4,2.4,0,0,0,1.42-.34,1.23,1.23,0,0,0,.45-1.05,1.2,1.2,0,0,0-.41-1A2,2,0,0,0,23,19.33h-.87Z"/><path class="cls-1" d="M33.56,18.27v5a3,3,0,0,1-.37,1.49,2.44,2.44,0,0,1-1.06,1,3.68,3.68,0,0,1-1.66.35,3.1,3.1,0,0,1-2.23-.76,2.75,2.75,0,0,1-.8-2.09v-5h1.26v4.87a2,2,0,0,0,.44,1.41,1.83,1.83,0,0,0,1.36.45q1.78,0,1.78-1.87V18.27Z"/><path class="cls-1" d="M38.86,26l-2.23-6.43h0q.09,1.43.09,2.69V26H35.53v-7.7h1.78l2.14,6.13h0l2.2-6.13h1.78V26H42.25V22.17q0-.57,0-1.5t.05-1.12h0L40,26Z"/><path class="cls-1" d="M50.59,20.6a2.25,2.25,0,0,1-.79,1.85,3.48,3.48,0,0,1-2.25.64h-.8V26H45.49v-7.7h2.22a3.36,3.36,0,0,1,2.16.59A2.12,2.12,0,0,1,50.59,20.6ZM46.75,22h.67a2.4,2.4,0,0,0,1.42-.34,1.23,1.23,0,0,0,.45-1.05,1.2,1.2,0,0,0-.41-1,2,2,0,0,0-1.26-.33h-.87Z"/><path class="cls-1" d="M66,26H64.78V22.5H61.23V26H60v-7.7h1.26v3.15h3.55V18.27H66Z"/><path class="cls-1" d="M72.86,26l-.77-2.14H69.14L68.39,26H67.06l2.88-7.74h1.37L74.19,26Zm-1.1-3.22L71,20.66q-.08-.21-.22-.66t-.19-.66a11.82,11.82,0,0,1-.42,1.42l-.7,2Z"/><path class="cls-1" d="M76.47,22.9V26H75.21v-7.7h2.18a3.58,3.58,0,0,1,2.21.56,2,2,0,0,1,.72,1.69,2.11,2.11,0,0,1-1.5,2L81,26H79.56L77.71,22.9Zm0-1h.87a2,2,0,0,0,1.28-.33,1.19,1.19,0,0,0,.4-1,1,1,0,0,0-.43-.94,2.34,2.34,0,0,0-1.29-.28h-.83Z"/><path class="cls-1" d="M85.26,21.8h2.83v3.87a8.2,8.2,0,0,1-1.34.32,9.46,9.46,0,0,1-1.38.09,3.47,3.47,0,0,1-2.7-1,4.17,4.17,0,0,1-.95-2.92,3.9,3.9,0,0,1,1.07-2.91,4,4,0,0,1,2.95-1.05,5.74,5.74,0,0,1,2.29.46l-.44,1a4.45,4.45,0,0,0-1.88-.43,2.53,2.53,0,0,0-1.95.77A3,3,0,0,0,83,22.14a3.16,3.16,0,0,0,.65,2.15,2.34,2.34,0,0,0,1.86.74,6.1,6.1,0,0,0,1.31-.15v-2h-1.6Z"/><path class="cls-1" d="M94.3,26H89.94v-7.7H94.3v1.06H91.2v2.1h2.9v1.05H91.2v2.42h3.1Z"/><path class="cls-1" d="M58.27,23.45l-.08.14a3,3,0,1,1-.08-3.1l.09.14.89-.69L59,19.81A4.2,4.2,0,0,0,55.58,18a4.13,4.13,0,1,0,3.57,6.22l.07-.12Z"/><circle class="cls-2" cx="11.66" cy="5.08" r="2.44"/><path class="cls-1" d="M14.54,21.37h0s0-.08-.18-.13V11a11.83,11.83,0,0,1-2.75.29A12.17,12.17,0,0,1,8.87,11V21.21c-.16,0-.23.1-.23.16h0v.35h0a6.92,6.92,0,0,0,2.94.38,6.46,6.46,0,0,0,2.94-.38h0ZM9.3,21V11.47a10.66,10.66,0,0,0,2.37.18,13.55,13.55,0,0,0,2.25-.15v9.58s0,.06-.06.06a5.62,5.62,0,0,1-2.25.32,5.21,5.21,0,0,1-2.25-.32l-.06-.06Z"/><path class="cls-2" d="M13.86,21.13s0,0,.06-.06V11.5a13.55,13.55,0,0,1-2.25.15,10.66,10.66,0,0,1-2.37-.18v9.6l.06.06a5.21,5.21,0,0,0,2.25.32A5.62,5.62,0,0,0,13.86,21.13Z"/><path class="cls-1" d="M14.68,10.46a.74.74,0,0,0-.27-.26,6.52,6.52,0,0,0-2.8-.42,9.85,9.85,0,0,0-2.4.24h0s-.6.13-.74.52a.13.13,0,0,0,0,.07h0v0h0c.09.3,1.45.52,3.15.52s3.16-.23,3.16-.56A.18.18,0,0,0,14.68,10.46Zm-3-.66a6.27,6.27,0,0,1,1.82.21,14.2,14.2,0,0,0-1.9-.15A9.64,9.64,0,0,0,9.81,10,5.9,5.9,0,0,1,11.67,9.8Zm0,.82a4.66,4.66,0,0,1-2-.28,7.19,7.19,0,0,1,2-.22,7.22,7.22,0,0,1,2,.22A4.81,4.81,0,0,1,11.67,10.62Z"/><path id="_Path_" data-name="&lt;Path&gt;" class="cls-3" d="M11.61,19.73c-1.14,0-2.08-.18-2.08-.44V20.7c0,.23.94.44,2.08.44s2.08-.18,2.08-.44V19.29C13.69,19.55,12.75,19.73,11.61,19.73Z"/><path id="_Path_2" data-name="&lt;Path&gt;" class="cls-3" d="M11.61,18c-1.14,0-2.08-.18-2.08-.44V19c0,.23.94.44,2.08.44s2.08-.18,2.08-.44V17.61C13.69,17.87,12.75,18,11.61,18Z"/><path id="_Path_3" data-name="&lt;Path&gt;" class="cls-3" d="M11.61,16.36c-1.14,0-2.08-.18-2.08-.44v1.41c0,.23.94.44,2.08.44s2.08-.18,2.08-.44V15.92C13.69,16.18,12.75,16.36,11.61,16.36Z"/><path id="_Path_4" data-name="&lt;Path&gt;" class="cls-3" d="M11.61,14.75c-1.14,0-2.08-.18-2.08-.44v1.26c0,.23.94.44,2.08.44s2.08-.18,2.08-.44V14.31C13.69,14.58,12.75,14.75,11.61,14.75Z"/><ellipse id="_Path_5" data-name="&lt;Path&gt;" class="cls-3" cx="11.61" cy="14.03" rx="2.08" ry="0.44"/><path class="cls-3" d="M13,4.51h-.75l.3-.81H11.34L11,4.75l-.22.59h.51L10.76,6.7C11.48,6,12.29,5.24,13,4.51Z"/><path class="cls-1" d="M13.78,6.28a2.44,2.44,0,1,1-.06-2.52l.5-.39A3.11,3.11,0,0,0,11.66,2a3.08,3.08,0,1,0,2.66,4.63Z"/><path class="cls-1" d="M9.9,22.1c0,1-.54,10.43-.54,12.49,0,1.61,0,2.45,0,2.93a.38.38,0,0,0,.34.35,20,20,0,0,0,2.07.11,16,16,0,0,0,1.92-.11.38.38,0,0,0,.34-.34c0-.4,0-1.19,0-2.92-.09-2.78-.61-10.87-.66-12.5a6.59,6.59,0,0,1-1.65.11A8.64,8.64,0,0,1,9.9,22.1Z"/><path class="cls-1" d="M13.91,9.64a1.39,1.39,0,0,0-1-.9V8.59h0s-.09-.09-.26-.12L12.61,8a2.77,2.77,0,0,1-1.91,0l-.08.43c-.18,0-.26.07-.26.12h0v.17a1.36,1.36,0,0,0-.92.89.09.09,0,0,0,0,0v.5c0,.2,1,.41,2.25.41s2.25-.2,2.25-.41v-.5A.09.09,0,0,0,13.91,9.64Zm-2.24-.58a2.79,2.79,0,0,1-1.21-.15A4.8,4.8,0,0,0,11.67,9a4.76,4.76,0,0,0,1.2-.12A2.75,2.75,0,0,1,11.67,9.06Z"/><path class="cls-1" d="M14.72,39l-.55-1A.14.14,0,0,0,14,38a18.29,18.29,0,0,1-2.27.14A23.07,23.07,0,0,1,9.3,38a.14.14,0,0,0-.13.07l-.56,1c-.3.08-.48.18-.48.28v.56c0,.31,1.59.55,3.55.55s3.55-.25,3.55-.55V39.3C15.22,39.19,15,39.1,14.72,39Z"/><circle class="cls-4" cx="11.59" cy="24.77" r="0.71"/><circle class="cls-5" cx="11.59" cy="24.77" r="0.56"/><path class="cls-1" d="M10,22.3a5,5,0,0,0-2.8,1.14l-.67.5C5.14,22.8,4.88,22.42,5.38,21.6v0a.46.46,0,0,0,.22,0l.53-.73.06-.38,1-1.46h0a1,1,0,0,0,.16-.55l0-.07.09-.09-.09-.82-.12-.06h0v0a1.05,1.05,0,0,0,.12-.15c.06-.06,0-.18,0-.23s-.15,0-.15,0-.12-.35-.15-.41,0-.06,0-.12a.32.32,0,0,0,0-.23A.51.51,0,0,1,7,16.13c0-.06-.12-.06-.12-.06l0-.06s.12-.15.09-.2-.11-.08-.13-.08l-.11-.3-.05,0,0,0s-.07,0-.17,0l-.14-.36a.05.05,0,0,0,0,0c0-.08-.3,0-.6.07s-.48.24-.49.32h0l.16.42c-.1,0-.16.09-.15.1h0l.13.33a.19.19,0,0,0,0,.13.84.84,0,0,0,.18.12s.12.32.12.35-.09,0-.18.09a.8.8,0,0,0-.2.53c0,.2.15.82.12.94a2.67,2.67,0,0,1-.7.7c-.15.06-.32.06-.32.15s.29,0,.41,0a5.91,5.91,0,0,0,.79-.7,3.87,3.87,0,0,0,0-1c0-.2.06-.32.09-.32h.12l.09.18a.22.22,0,0,0,0,.18c0,.09.2.12.2.12l.12.18,0,0,0,0-.06.15.26.58.09,0a.3.3,0,0,1,0,.28l0,0-.76,1.2-.32.2-.47.73a.47.47,0,0,0,.14.2l0,.07c-.44.64-.67,1.46,1.17,2.89-.12.09-.23.2-.41.35a3.53,3.53,0,0,0-.91,3.63A2.42,2.42,0,0,0,7,29.58a1.93,1.93,0,0,0,1.87-1.75c.32-1.7-1-2.75-2.08-3.6,0,0,.43-.33.47-.36a5.41,5.41,0,0,1,.5-.31A9.17,9.17,0,0,1,8.93,23a3.21,3.21,0,0,1,.74-.22h.28ZM8.47,27.86a1.56,1.56,0,0,1-1.55,1.23c-.64,0-2.25-.67-1.64-2.84a4.36,4.36,0,0,1,1.23-1.67C8.39,26,8.68,26.86,8.47,27.86Z"/></svg>