<svg id="Layer_1" data-name="Layer 1" xmlns="http://www.w3.org/2000/svg" viewBox="0 0 23.33 22.71"><defs><style>.cls-1{fill:#a4d9df;}</style></defs><title>Artboard 3 copy 3</title><path class="cls-1" d="M9,12.25h-.9c-.11,0-.11,0-.11-.11V9.95a.36.36,0,1,0-.72,0v2.7A.34.34,0,0,0,7.6,13H9a.37.37,0,0,0,.4-.36C9.33,12.4,9.18,12.25,9,12.25Z"/><path class="cls-1" d="M13.76,9.8a.33.33,0,0,0-.4-.25.38.38,0,0,0-.32.36V11.5h0l-.07-.07L11.63,9.7a.35.35,0,0,0-.43-.14.36.36,0,0,0-.25.36v2.81a.41.41,0,0,0,.43.29.38.38,0,0,0,.32-.36V11l.11.11c.43.58.83,1.15,1.26,1.73a.36.36,0,0,0,.43.14.35.35,0,0,0,.25-.36V9.8Z"/><path class="cls-1" d="M10.15,9.55a.39.39,0,0,0-.5.36v2.66a.27.27,0,0,0,0,.18.37.37,0,0,0,.43.22.35.35,0,0,0,.29-.36V9.95A.37.37,0,0,0,10.15,9.55Z"/><path class="cls-1" d="M11.67,1.34a10,10,0,1,0,10,10A10,10,0,0,0,11.67,1.34Zm6.09,12.75a6.69,6.69,0,0,1-1,1,29.63,29.63,0,0,1-3.35,2.59,9.83,9.83,0,0,1-1.69,1,1.9,1.9,0,0,1-.43.11.2.2,0,0,1-.22-.14,1.2,1.2,0,0,1,0-.5,4,4,0,0,0,.07-.65.65.65,0,0,0-.61-.68,7.45,7.45,0,0,1-3.46-1.26A6,6,0,0,1,4.9,13a5,5,0,0,1-.32-1.4,4.59,4.59,0,0,1,1-3.31,6.35,6.35,0,0,1,2.59-2,6.86,6.86,0,0,1,2.23-.61,8.27,8.27,0,0,1,1.33-.07A7.92,7.92,0,0,1,16.49,7.1a5.55,5.55,0,0,1,1.87,2.3,4.24,4.24,0,0,1,.36,1.51v.36A4.44,4.44,0,0,1,17.75,14.09Z"/><path class="cls-1" d="M16,12.25h-.94a.1.1,0,0,1-.11-.11v-.36c0-.14,0-.14.14-.14H16a.29.29,0,0,0,.32-.29.41.41,0,0,0-.22-.43.46.46,0,0,0-.22,0h-.86c-.07,0-.11,0-.11-.11v-.43a.1.1,0,0,1,.11-.11H16a.38.38,0,0,0,0-.76h-1.4a.34.34,0,0,0-.36.36v2.7a.36.36,0,0,0,.32.36H16a.41.41,0,0,0,.32-.22C16.46,12.5,16.31,12.25,16,12.25Z"/></svg>