<svg id="Layer_1" data-name="Layer 1" xmlns="http://www.w3.org/2000/svg" viewBox="0 0 23.33 22.71"><defs><style>.cls-1{fill:#a4d9df;}</style></defs><title>Artboard 3 copy</title><path class="cls-1" d="M11.68,1.45a9.91,9.91,0,0,0-.11,19.81,9.84,9.84,0,0,0,10-9.78,9.94,9.94,0,0,0-9.85-10m5.71,12.87c0,.22-.07.44-.07.73s-.07.29-.29.29H6.71c-.22,0-.36,0-.36-.29-.07-2.4-.07-4.76-.15-7.2,0-.44.15-.55.55-.55,1,0,2,.07,3,.07h7.45c.22,0,.29.07.29.29-.07,2.25-.07,4.47-.07,6.65"/><path class="cls-1" d="M7.8,8.32c1.2,1.2,2.4,2.47,3.67,3.67.36.36.44.44.8,0,.73-.91,1.64-1.64,2.47-2.54A7.56,7.56,0,0,0,15.79,8c-.07,0-.07-.07-.15-.07H7.87c-.07,0-.22-.07-.22.07s.07.29.15.29"/><path class="cls-1" d="M15.65,14.46c-.65-.65-1.34-1.42-2-2.07-.29-.29-.44-.22-.65,0s-.62.73-1,1.05a.41.41,0,0,1-.65,0,14.38,14.38,0,0,0-1.05-1.05c-.15-.22-.29-.22-.55,0-.65.65-1.34,1.34-2,2.07-.07.07-.07.15-.15.15s.07.15.15.22a2.12,2.12,0,0,0,.65.15H15.5c.15,0,.29.07.29-.07s-.07-.36-.15-.44"/><path class="cls-1" d="M9.32,11.84c.15-.22.22-.36,0-.62-.65-.65-1.34-1.42-2-2.14C7.25,9,7.18,8.86,7,8.94v4.83c0,.15.07.22.15.22s.15-.07.22-.15c.44-.36.8-.8,1.27-1.2a7.24,7.24,0,0,1,.73-.8"/><path class="cls-1" d="M16.63,12a25.27,25.27,0,0,0-.07-3.31c-.91.8-1.64,1.64-2.47,2.47-.07.07-.07.15,0,.29.73.8,1.42,1.64,2.14,2.33.07.07.15.22.29.22s.15-.22.15-.36c0-.51,0-1.13,0-1.64"/></svg>