<svg id="Layer_1" data-name="Layer 1" xmlns="http://www.w3.org/2000/svg" viewBox="0 0 19.67 18.17"><defs><style>.cls-1{fill:#fff;}</style></defs><title>Artboard 7 copy 5</title><path class="cls-1" d="M12.9,15.54V6.1q0-2,0-3.94a.6.6,0,0,0-.41-.64,1.29,1.29,0,0,0-.31,0l-4.66,0a.6.6,0,0,0-.66.66,6.19,6.19,0,0,1,0,.73A.25.25,0,0,1,6.79,3L5.53,4a1.05,1.05,0,0,0-.41.84c0,1.52,0,3,0,4.56a7.41,7.41,0,0,1-.55,2.82A8.3,8.3,0,0,0,4,14a1.27,1.27,0,0,0,.76,1.42,1.25,1.25,0,0,0,1.62-.77,2.55,2.55,0,0,0,.13-.71c0-.58.06-1.15.07-1.73,0-1.23,0-2.47,0-3.7,0-.08,0-.15,0-.24h.21c0,.06,0,.11,0,.17q0,3.49-.05,7a.25.25,0,0,1,0,.16H3.82v.9c0,.08,0,.16,0,.24h0v.05h12V15.54Zm-6-8.2h-.4a.44.44,0,0,0-.46.4,2.4,2.4,0,0,0,0,.41c0,.48,0,1,0,1.45,0,1.24,0,2.47,0,3.71a5.45,5.45,0,0,1-.14,1,.54.54,0,0,1-.56.44.5.5,0,0,1-.52-.45.84.84,0,0,1,0-.39c.16-.53.34-1,.51-1.57a6.78,6.78,0,0,0,.42-1.8c0-.69,0-1.39,0-2.08,0-.93,0-1.85,0-2.78,0-.08,0-.15,0-.25h.88c0-.42,0-.82,0-1.23a.3.3,0,0,1,.22-.33C6.87,5,6.86,6.16,6.85,7.34Zm4.45,3.4L8.43,12.46l1-1.43-1.21-.28,2-2.29,1.34.34L9.9,10.23Zm.76-5.44c0,.32-.13.45-.45.45l-3.47,0a.37.37,0,0,1-.42-.42q0-1.32,0-2.64c0-.3.14-.42.44-.42H9.91l1.74,0c.31,0,.44.13.43.44Q12.07,4,12.06,5.31Z"/></svg>