<svg id="Layer_1" data-name="Layer 1" xmlns="http://www.w3.org/2000/svg" viewBox="0 0 42.58 44.66"><defs><style>.cls-1{fill:#fff;}.cls-2{fill:#8ed1dd;}</style></defs><title>Artboard 23</title><path class="cls-1" d="M41.59,14.71V30c0,7.15-5.5,12.93-12.27,12.93H13.24C6.47,42.89,1,37.09,1,29.95V14.69C1,7.54,6.49,1.75,13.26,1.76H29.34C36.11,1.77,41.6,7.56,41.59,14.71Z"/><path class="cls-2" d="M25.88,20.71a1.62,1.62,0,0,1-1.62,1.62H15.77a1.62,1.62,0,0,1-1.62-1.62h0a1.62,1.62,0,0,1,1.62-1.62h8.49a1.62,1.62,0,0,1,1.62,1.62Z"/><path class="cls-2" d="M34.16,32.76l-5-5a11.73,11.73,0,1,0-2.57,2.51l5.07,5.07a1.83,1.83,0,0,0,2.54-2.54ZM10.36,20.69a9.39,9.39,0,1,1,9.39,9.4A9.39,9.39,0,0,1,10.36,20.69Z"/></svg>