<svg id="Layer_1" data-name="Layer 1" xmlns="http://www.w3.org/2000/svg" viewBox="0 0 19.67 18.17"><defs><style>.cls-1{fill:#e76876;}</style></defs><title>Artboard 7 copy 3</title><path class="cls-1" d="M17.77,14.68H1.9a.5.5,0,0,1-.5-.5V4a.5.5,0,0,1,.5-.5H17.77a.5.5,0,0,1,.5.5V14.18A.5.5,0,0,1,17.77,14.68Zm-15.37-1H17.27V4.49H2.4Z"/><path class="cls-1" d="M7.26,6.55a1,1,0,1,1-1-1,1,1,0,0,1,1,1"/><path class="cls-1" d="M8,9.86,7.44,8.09A.42.42,0,0,0,7,7.83H5.36a.4.4,0,0,0-.4.26L4.38,9.86Z"/><path class="cls-1" d="M15.49,12.07H4.27a.5.5,0,0,1,0-1H15.49a.5.5,0,1,1,0,1Z"/><path class="cls-1" d="M15.43,9.58h-6a.5.5,0,0,1,0-1h6a.5.5,0,0,1,0,1Z"/><path class="cls-1" d="M15.43,7.54h-6a.5.5,0,0,1,0-1h6a.5.5,0,0,1,0,1Z"/></svg>