<svg id="Layer_1" data-name="Layer 1" xmlns="http://www.w3.org/2000/svg" viewBox="0 0 42.58 44.66"><defs><style>.cls-1{fill:#fff;}.cls-2{fill:#8ed1dd;fill-rule:evenodd;}</style></defs><title>Artboard 23 copy 3</title><path class="cls-1" d="M41.59,14.7V30c0,7.14-5.49,12.94-12.27,12.94H13.25C6.48,42.89,1,37.1,1,30V14.7C1,7.55,6.48,1.76,13.25,1.76H29.32C36.1,1.76,41.59,7.55,41.59,14.7Z"/><path class="cls-2" d="M20.45,21.6c.6.29.64.42.72,0s-.8-1.46-1-1.12S19.85,21.31,20.45,21.6Z"/><path class="cls-2" d="M20.25,25.86c.46.23,1.9-1.43,1.46-1.92s-.9.23-1.37.23.16-1-.3-1.09-1.64,1.24-1.65,1.86,1.28.2,1.61.08S19.79,25.63,20.25,25.86Z"/><path class="cls-2" d="M25.62,26.62c.26.13.63.54,1,.23s-.76-.41-.52-.6,1.05-.74.78-1.19-.54,1-1.06.59-1-1.14-1.39-1-1.46-.32-1.71,0c-.38.49.44,1.1,1.12,1.38s.9.49.7,1.08.09,1.08-.41,1.19-.1-.43-.5-.69.17-.75-.31-.7a10.22,10.22,0,0,0-3.12,1.38c-1.07.72-1.56,1.23-1.62,1.91s-.64,2.08,0,2.08,2.65-1.16,3.23-.72.63,1.46,1.37,1.39,1.62-1.49,2.35-1.46.84-1,.7-1.46S24.92,27.4,25,26.89,25.36,26.49,25.62,26.62Z"/><path class="cls-2" d="M29.07,31.79c-.42.37-.55,1.15-1,1.48s-1.66.46-1.56,1,1.94-.58,2.56-1.12.73-.89.75-1.11A.44.44,0,0,0,29.07,31.79Z"/><path class="cls-2" d="M21,7.15A15.18,15.18,0,1,0,36.16,22.33,15.18,15.18,0,0,0,21,7.15Zm0,29.32a14.14,14.14,0,0,1-14.09-13,7.91,7.91,0,0,0,0-1.42c0-.28,0-.56,0-.84.24-.27.84-.36,1.23-.7s0-.59.28-1.13.55,0,1.39.17,1.42,2,1.8,2.76a1.49,1.49,0,0,0,1.37,1c.3-.07,0-.67-.12-1.57S13.62,20.25,14,20a.86.86,0,0,1,1.1.63c0,.46.81.9,1,1.3s.6,1.27.28,1.5S16,23,15.7,23.23s.07.56.66,1.7a3.92,3.92,0,0,0,3.24,1.47c.26-.22-.59-.44-1.2-.42s-.82-1-1-1.77a4,4,0,0,0-.67-1.5c-.21-.37-.34-.6,0-.83s.24,1.21.78.9a1.62,1.62,0,0,0,.66-1.68c-.16-.54.35-1,1-1.3s1.08.12,1.2-.21-1.13-2.61-.83-3,.82.44,1.07.72.47-.59.09-1,.2-.77.2-.77.2-1.13.68-1.15.57,1.35.77,1.9-.57.53-1,.81,0,1.23.2,1.1a.93.93,0,0,0,.23-.78c0-.33,1-.15,1.25-.59s-.42-2-.87-2.62-2.35-1-2.29-1.62.22-.31,1.24-.44,2,1.21,2.25,1.38.24-1.4.24-1.4a.86.86,0,0,0,.85-.78c0-.76-1.11-.93-2.17-1.34s-5.66-.17-6.33-.21c-.46,0-.47-.29-.44-.45a14.16,14.16,0,0,1,12.3.63c-.45.67-3.42,2.43-3,2.92s2.5-1.38,3.29-.95,1.48.16,1.28,1.22-1.21,3-1,3.64,1.22,2.86,1.47,2.6a.36.36,0,0,0,.11-.19c0-.08,0-.07,0,0a.94.94,0,0,0,.09.17c.24.35.38,1.47,1.2,1.69a7.27,7.27,0,0,1,1.57.5c.35.19,1.21,1.53,1.57,1.21s.09-.66.18-1.12-.52-.46-.81-.67.65-.89.22-1.15-1.09.91-1.55.5,0-1.91.73-2.14a1.72,1.72,0,0,1,1.39.11A14.14,14.14,0,0,1,21,36.47Z"/></svg>