<svg id="Layer_1" data-name="Layer 1" xmlns="http://www.w3.org/2000/svg" viewBox="0 0 19.67 18.17"><defs><style>.cls-1{fill:#fff;}</style></defs><title>Artboard 7 copy 6</title><g id="SbB4jD.tif"><path class="cls-1" d="M14.57,6.13h2.87V16.64H14.57Z"/><path class="cls-1" d="M6.34,7.79H9.22c0,.06,0,.11,0,.16q0,4.26,0,8.52c0,.13,0,.18-.17.18H6.5c-.12,0-.17,0-.17-.16q0-4.28,0-8.55S6.34,7.84,6.34,7.79Z"/><path class="cls-1" d="M9,4.35a.35.35,0,0,0,.22.46c.56.32,1.11.64,1.66,1a.32.32,0,0,0,.39,0,1,1,0,0,1,.93-.14.41.41,0,0,0,.46-.13q1-1,2-2A.41.41,0,0,0,14.84,3a1.09,1.09,0,0,1,.32-1.16,1.15,1.15,0,0,1,1.17-.3,1.19,1.19,0,0,1,.88,1.3,1.17,1.17,0,0,1-1.52,1,.4.4,0,0,0-.45.12l-1.9,1.88,0,0a.59.59,0,0,0-.23.7,1.2,1.2,0,1,1-2.39.13.36.36,0,0,0-.21-.37l-1.78-1a.16.16,0,0,0-.2,0,1.2,1.2,0,0,1-1.23.12.25.25,0,0,0-.28,0L5,7.19c-.12.1-.09.22-.07.34a1.22,1.22,0,0,1-2.09,1A1.21,1.21,0,0,1,2.69,7,1.19,1.19,0,0,1,4.1,6.61a.44.44,0,0,0,.5-.09L6.46,5a.35.35,0,0,0,.14-.38,1.19,1.19,0,0,1,.88-1.4,1.23,1.23,0,0,1,1.42.7A2.74,2.74,0,0,1,9,4.35Z"/><path class="cls-1" d="M10.45,13.41c0-1,0-2,0-3,0-.15,0-.2.19-.2h2.52c.14,0,.19,0,.19.19q0,3.05,0,6.11c0,.14,0,.19-.18.19H10.63c-.15,0-.18-.05-.18-.19C10.45,15.45,10.45,14.43,10.45,13.41Z"/><path class="cls-1" d="M5.12,16.65H2.4c-.15,0-.18,0-.18-.18q0-2.59,0-5.18c0-.14,0-.18.18-.18H5c.15,0,.18.05.18.19q0,2.59,0,5.18S5.12,16.58,5.12,16.65Z"/></g></svg>