<svg id="Layer_1" data-name="Layer 1" xmlns="http://www.w3.org/2000/svg" viewBox="0 0 19.67 18.17"><defs><style>.cls-1{fill:#e76876;}</style></defs><title>Artboard 7 copy 4</title><path class="cls-1" d="M.81,9A18.31,18.31,0,0,1,4,5.78,10.36,10.36,0,0,1,18.88,9a.15.15,0,0,1,0,.14A10.37,10.37,0,0,1,4,12.4,20,20,0,0,1,.81,9.19.16.16,0,0,1,.81,9ZM9.92,4.91A4.23,4.23,0,0,0,5.76,9.12,4.23,4.23,0,0,0,10,13.27a4.24,4.24,0,0,0,4.13-4.18A4.24,4.24,0,0,0,9.92,4.91Z"/><path class="cls-1" d="M10,12.34a3.25,3.25,0,1,1,3.22-3.26A3.23,3.23,0,0,1,10,12.34Zm1.38-3.27A1.41,1.41,0,0,0,10,7.68a1.4,1.4,0,1,0,0,2.8A1.42,1.42,0,0,0,11.34,9.07Z"/></svg>