<svg id="Layer_1" data-name="Layer 1" xmlns="http://www.w3.org/2000/svg" viewBox="0 0 42.58 44.66"><defs><style>.cls-1{fill:#fff;}.cls-2{fill:#8ed1dd;}</style></defs><title>Artboard 23 copy</title><path class="cls-1" d="M41.59,14.7V30c0,7.14-5.49,12.94-12.27,12.94H13.25C6.48,42.89,1,37.1,1,30V14.7C1,7.55,6.48,1.76,13.25,1.76H29.32C36.1,1.76,41.59,7.55,41.59,14.7Z"/><path class="cls-2" d="M21.62,24.89V22.31H24.2a1.62,1.62,0,1,0,0-3.23H21.62V16.5a1.61,1.61,0,1,0-3.22,0v2.58H15.82a1.61,1.61,0,1,0,0,3.23H18.4v2.58a1.61,1.61,0,1,0,3.22,0Z"/><path class="cls-2" d="M34.17,32.76l-5-5a11.74,11.74,0,1,0-2.57,2.51l5.07,5.07a1.83,1.83,0,0,0,2.54-2.54ZM10.36,20.7a9.39,9.39,0,1,1,9.39,9.39A9.39,9.39,0,0,1,10.36,20.7Z"/></svg>