<svg id="Layer_1" data-name="Layer 1" xmlns="http://www.w3.org/2000/svg" viewBox="0 0 42.58 44.66"><defs><style>.cls-1{fill:#fff;}.cls-2,.cls-3{fill:#8ed1dd;}.cls-2{fill-rule:evenodd;}</style></defs><title>Artboard 23 copy 2</title><path class="cls-1" d="M41.59,14.7V30c0,7.14-5.49,12.94-12.27,12.94H13.25C6.48,42.89,1,37.1,1,30V14.7C1,7.55,6.48,1.76,13.25,1.76H29.32C36.1,1.76,41.59,7.55,41.59,14.7Z"/><path class="cls-2" d="M21.29,7.34a15,15,0,1,0,15,15A15,15,0,0,0,21.29,7.34ZM21,35.89A13.45,13.45,0,1,1,34.24,22.44,13.36,13.36,0,0,1,21,35.89Z"/><ellipse class="cls-3" cx="20.98" cy="22.44" rx="11.02" ry="11.18"/></svg>