<svg id="Layer_1" data-name="Layer 1" xmlns="http://www.w3.org/2000/svg" viewBox="0 0 29.61 15.45"><defs><style>.cls-1{fill:#e76876;}</style></defs><title>Artboard 34 copy</title><path class="cls-1" d="M10.79,13.34H8.86L7,10.33A6.08,6.08,0,0,0,5.92,9,1.66,1.66,0,0,0,4.8,8.53H3.91l0,4.81H2.19V1.82H5.75A4.62,4.62,0,0,1,7.13,2a3.55,3.55,0,0,1,1.17.61,3,3,0,0,1,.81,1A3.12,3.12,0,0,1,9.41,5a2.44,2.44,0,0,1-.22,1.06,2.65,2.65,0,0,1-.59.81,3.23,3.23,0,0,1-.83.56,3.83,3.83,0,0,1-1,.31,2.1,2.1,0,0,1,1,.85q.46.67.92,1.4ZM3.91,3.26V7.08H5.49A2.4,2.4,0,0,0,7.1,6.57,1.9,1.9,0,0,0,7.71,5a1.56,1.56,0,0,0-.56-1.25,2.61,2.61,0,0,0-1.66-.49Z"/><path class="cls-1" d="M25.72,13.34V1.82h1.7V13.34Z"/><path class="cls-1" d="M17,1.4a6.32,6.32,0,1,0,6.32,6.32A6.33,6.33,0,0,0,17,1.4ZM17,12.2a4.47,4.47,0,1,1,4.47-4.47A4.48,4.48,0,0,1,17,12.2Z"/><path class="cls-1" d="M17.34,7.27c-.59-.22-.84-.37-.84-.6s.15-.39.6-.39a2.14,2.14,0,0,1,.7.12.29.29,0,0,0,.24,0,.3.3,0,0,0,.15-.19L18.24,6a.3.3,0,0,0-.2-.35,2.75,2.75,0,0,0-.75-.12V5a.16.16,0,0,0-.15-.16h-.37a.17.17,0,0,0-.16.16v.5a1.29,1.29,0,0,0-1.17,1.24c0,.68.51,1,1.25,1.27.52.17.74.34.74.61s-.27.43-.67.43a2.38,2.38,0,0,1-.85-.17.3.3,0,0,0-.39.2l-.06.23a.3.3,0,0,0,.18.35,3.16,3.16,0,0,0,.94.19v.51a.15.15,0,0,0,.16.15h.37a.15.15,0,0,0,.15-.15V9.86A1.33,1.33,0,0,0,18.5,8.57C18.5,7.95,18.17,7.57,17.34,7.27Z"/></svg>