<svg id="Layer_1" data-name="Layer 1" xmlns="http://www.w3.org/2000/svg" viewBox="0 0 19.62 20.58"><defs><style>.cls-1{fill:#ea6877;fill-rule:evenodd;}</style></defs><title>Artboard 27 copy 2</title><path class="cls-1" d="M14.46,16.44C14,15.19,13,13,12.17,11c-.67-1.59-1.32-3.12-1.72-4.08a1.14,1.14,0,0,1,0-1A2.83,2.83,0,0,0,9.24,2.22,2.5,2.5,0,0,0,8,1.89a.43.43,0,0,0-.4.59L7.85,3c.17.43.34.85.52,1.28a1.53,1.53,0,0,1-1.15.47l-.34-.84-.23-.56-.08-.24-.06-.17a.43.43,0,0,0-.33-.28.44.44,0,0,0-.41.14l-.31.36a.5.5,0,0,0-.07.11l-.28.66a.44.44,0,0,0,0,.21h0A2.78,2.78,0,0,0,6.9,7.39l.09,0a.86.86,0,0,1,.49.5l1.05,2.59L9,11.66c.22.54.79,1.88,1.35,3.18s1,2.34,1.21,2.84a1.71,1.71,0,0,0,.37.55l.26.18a1.52,1.52,0,0,0,.23.16,1.56,1.56,0,0,0,1.14,0,1.28,1.28,0,0,0,1-1.13h0A1.69,1.69,0,0,0,14.46,16.44Zm-1.05.69a.47.47,0,1,1-.26-.61A.49.49,0,0,1,13.4,17.13Z"/></svg>