<svg id="Layer_1" data-name="Layer 1" xmlns="http://www.w3.org/2000/svg" viewBox="0 0 20.57 21.46"><defs><style>.cls-1{fill:#fff;}.cls-2{fill:#a3d8de;}.cls-3{fill:#2280bf;}</style></defs><title>Artboard 32 copy</title><rect class="cls-1" x="0.81" y="1.02" width="18.95" height="19.43" rx="5.72" ry="5.72"/><path class="cls-2" d="M19,14V7.47a5.39,5.39,0,0,0-5.24-5.53H6.85A5.39,5.39,0,0,0,1.6,7.47V14a5.39,5.39,0,0,0,5.24,5.53h6.87A5.39,5.39,0,0,0,19,14Z"/><path class="cls-3" d="M8.64,14.62V10.16a1.57,1.57,0,0,0-.19-.81A1.35,1.35,0,0,0,8,8.86a2,2,0,0,0-.64-.24,3.49,3.49,0,0,0-.68-.07,1.82,1.82,0,0,0-.73.13A2.88,2.88,0,0,0,5.4,9,1.75,1.75,0,0,0,5,9.37l1,.78a1,1,0,0,0-.2.3,1.79,1.79,0,0,0-.13.39,2.71,2.71,0,0,0-.05.6v3.18H4.41V11.41a3.09,3.09,0,0,1,0-.53,2.26,2.26,0,0,1,.1-.4,1.89,1.89,0,0,1,.14-.33l-.47-.39-.31-.26a.7.7,0,0,1-.14-.13,3.81,3.81,0,0,1,.67-.91,3.62,3.62,0,0,1,.89-.63,2.78,2.78,0,0,1,1.3-.28,4.74,4.74,0,0,1,1.15.14,3.47,3.47,0,0,1,1,.42,2.38,2.38,0,0,1,.73.71,1.81,1.81,0,0,1,.28,1V13.6a.71.71,0,0,1-.12.4,2.85,2.85,0,0,1-.25.32,1.9,1.9,0,0,1-.35.3Z"/><path class="cls-3" d="M17,10.5,14.62,6.84,12.28,10.5h1.47v4.14h1.74V10.49Z"/></svg>