<svg id="Layer_1" data-name="Layer 1" xmlns="http://www.w3.org/2000/svg" viewBox="0 0 20.12 21.69"><defs><style>.cls-1{fill:#fff;}</style></defs><title>Artboard 31</title><path class="cls-1" d="M1.16,10.85V8.75a2.24,2.24,0,0,0,.16-.39A7.64,7.64,0,0,1,7.23,2.15L8,1.95h2.09a1.16,1.16,0,0,0,.29.16,7.71,7.71,0,0,1,5.47,11.26A.81.81,0,0,0,16,14.47c1,1,2,2.12,2.93,3.18v2.09H16.86c-1-1-2.12-1.88-3.11-2.88a.94.94,0,0,0-1.33-.19,7.64,7.64,0,0,1-10.08-2.9,21.55,21.55,0,0,1-1.19-2.93M3.38,9.73A5.61,5.61,0,0,0,9,15.35a5.71,5.71,0,0,0,5.6-5.63A5.61,5.61,0,0,0,9,4.17,5.55,5.55,0,0,0,3.38,9.73"/></svg>