<svg id="Layer_1" data-name="Layer 1" xmlns="http://www.w3.org/2000/svg" xmlns:xlink="http://www.w3.org/1999/xlink" viewBox="0 0 176 176"><defs><style>.cls-1{fill:#c2f0f2;}.cls-2{fill:#a7dce2;opacity:0.6;}.cls-3{fill:#fff;}.cls-4{fill:#92d5e1;}.cls-5{fill:#0d0e1b;}.cls-12,.cls-6{fill:none;stroke-linecap:round;}.cls-6{stroke:#fff;stroke-miterlimit:10;stroke-width:1.37px;}.cls-7{clip-path:url(#clip-path);}.cls-8{fill:#5374a4;}.cls-9{fill:#fdd9b2;}.cls-10{fill:#cdeaef;}.cls-11{fill:#462818;}.cls-12{stroke:#462818;stroke-linejoin:round;stroke-width:0.56px;}</style><clipPath id="clip-path"><path id="_Clipping_Path_" data-name="&lt;Clipping Path&gt;" class="cls-1" d="M89.15,10A36.63,36.63,0,1,0,125.7,46.9,36.61,36.61,0,0,0,89.15,10Z"/></clipPath></defs><title>Artboard 56 copy 2</title><path class="cls-2" d="M71.6,133.78V110.6H41.16c-11.93,1.91-11.64,23.18-11.64,23.18Z"/><path class="cls-3" d="M159.11,138.82c1.09.75,5.3,3.71,5.94,10.85h-7.82s-1.85-6-.81-7a27.32,27.32,0,0,0,2.69-3.83"/><path class="cls-2" d="M77.25,110.73v22.79h42.07S105.65,108.62,77.25,110.73Z"/><path class="cls-3" d="M21.42,123.48l-1.22,2.2s-4,6.94-5.32,19.06h4.68Z"/><path class="cls-4" d="M18.64,129.09v0h0Z"/><path class="cls-4" d="M165,148.8a15.16,15.16,0,0,0-1-3.86,17.33,17.33,0,0,1,1,4.25h-7.27c-.14-7.08,1.92-10,1.93-10-6.81-5.44-19.35-7.16-34.28-10.59,0,0-14.36-12.69-18.81-15.88-6-4.34-11.9-5.91-24.2-6.21-17.3-.42-52.71,0-52.71,0v2.8l3.85,1.06s-9.29,5.54-14.81,18.69v15.67H14.88s-4.21,3.86-4.21,7v3.51s2.81,2.46,3.16,3.86v2.45h2.94A15.91,15.91,0,1,1,48,165.78h74.78a15.92,15.92,0,1,1,31-2c0,1.2-.08,2-.08,2S167.05,165.78,165,148.8Zm-93.35-15H29.52s-.29-21.27,11.64-23.18H71.6Zm5.61-.26V110.73c28.4-2.11,42.07,22.79,42.07,22.79Z"/><path class="cls-5" d="M30.2,161a2,2,0,1,0,2-2,2,2,0,0,0-2,2"/><path class="cls-5" d="M18.16,161a14,14,0,1,0,14-14,14,14,0,0,0-14,14"/><path class="cls-6" d="M23.23,161a9,9,0,1,0,9-9A8.95,8.95,0,0,0,23.23,161Z"/><path class="cls-3" d="M37,158.22a5.79,5.79,0,0,1-.33-5.07,5.7,5.7,0,0,1-9.06,0A5.74,5.74,0,0,1,23.07,161a5.72,5.72,0,0,1,4.51,7.87,5.72,5.72,0,0,1,9.07,0,5.75,5.75,0,0,1,.34-5A5.83,5.83,0,0,1,41.22,161,5.73,5.73,0,0,1,37,158.22Z"/><path class="cls-5" d="M29.41,161a2.78,2.78,0,1,0,2.77-2.78A2.78,2.78,0,0,0,29.41,161Z"/><path class="cls-5" d="M124.08,161a14,14,0,1,0,14-14,14,14,0,0,0-14,14"/><path class="cls-6" d="M129.15,161a9,9,0,1,0,8.95-9A8.95,8.95,0,0,0,129.15,161Z"/><path class="cls-3" d="M143,158.22a5.79,5.79,0,0,1-.33-5.07,5.71,5.71,0,0,1-9.07,0,5.77,5.77,0,0,1-.34,5A5.83,5.83,0,0,1,129,161a5.7,5.7,0,0,1,4.18,2.8,5.78,5.78,0,0,1,.33,5.07,5.72,5.72,0,0,1,9.07,0,5.75,5.75,0,0,1,.34-5,5.83,5.83,0,0,1,4.23-2.82A5.73,5.73,0,0,1,143,158.22Z"/><path class="cls-5" d="M135.32,161a2.78,2.78,0,1,0,2.78-2.78A2.79,2.79,0,0,0,135.32,161Z"/><path class="cls-4" d="M89.06,89.73a43.12,43.12,0,1,1,43.12-43.12A43.16,43.16,0,0,1,89.06,89.73Z"/><path class="cls-4" d="M89.06,6A40.62,40.62,0,1,1,48.44,46.61,40.62,40.62,0,0,1,89.06,6m0-5a45.62,45.62,0,1,0,45.62,45.62A45.67,45.67,0,0,0,89.06,1Z"/><g id="_Clip_Group_" data-name="&lt;Clip Group&gt;"><path id="_Clipping_Path_2" data-name="&lt;Clipping Path&gt;" class="cls-1" d="M89.15,10A36.63,36.63,0,1,0,125.7,46.9,36.61,36.61,0,0,0,89.15,10Z"/><g class="cls-7"><g id="_Group_" data-name="&lt;Group&gt;"><path id="_Path_" data-name="&lt;Path&gt;" class="cls-8" d="M73.52,125.75s-1.34,13.49-1.84,20.39,3,28.25,3,30.27v8.75s-.5,2.35,3.87,2.35,3.54-3.36,3.54-3.36l.06-27.52L85,142.94l3.71-4s.66,4.38,1,7.74a78,78,0,0,1,0,10.93c-.17,2.7.22,13,.19,15.48s.48,16,.82,16.48a4.67,4.67,0,0,0,4.2,2.69c2.86,0,3.37-4,3.37-4v-9.76c0-4.37.84-14.46.84-17.15s5.9-18,5.38-26.83-1.62-10.65-1.62-10.65l-23.6-6.93Z"/><path id="_Path_2" data-name="&lt;Path&gt;" class="cls-9" d="M63.11,71.46S52,71.38,50.74,69.86,47.71,59,48,56.44a45.15,45.15,0,0,0,0-6.31,5.57,5.57,0,0,0-3.51-1.45c-2,0-2.27,6.55-2.27,6.55s-.25,19.43,4,20.18,17.57,2.11,17.57,2.11h4.88Z"/><path id="_Path_3" data-name="&lt;Path&gt;" class="cls-9" d="M110,89.15s2.7,12.07,2.73,15.1-1.37,20.61-1.37,20.61,1.41,9.59-1.88,9.59-4-4.8-4-4.8-3.78-1.67-2.27-3.36a5.15,5.15,0,0,1,3.53-1.68s-.38-13.18-.19-17.22-1.32-18.24-1.32-18.24Z"/><path id="_Path_4" data-name="&lt;Path&gt;" class="cls-3" d="M87.38,63.39s-3.09.67-9.15,1.68-4.77,1.32-7.69,2.18c-2.58.75-8.36,2.9-8.36,2.9s-1.43,6,1.59,7.37l2,2h6.73s.67,11.77.33,16.48,0,14.8-.33,18.16-.87,9.29,1.83,10.3,5.24-.2,9.27,1.14,19.59.67,19.59.67a20.78,20.78,0,0,0,.92-6.06c0-3.36-1.68-16.81-1.68-16.81l1.68-14.8s5.73,1.34,7.74,0,4.67-9,4.67-9-6.35-14.21-11.73-14.55a39.08,39.08,0,0,1-9.28-1.68Z"/><path id="_Path_5" data-name="&lt;Path&gt;" class="cls-10" d="M91.86,77.68h8.83s.5,8.33-4.42,8.33S91.86,77.68,91.86,77.68Z"/><path id="_Path_6" data-name="&lt;Path&gt;" class="cls-9" d="M42.74,51.07s.35-4.66,3.71-5,3.19-.84,4,1.18-2.19,3.11,0,3.82,1,1.7.15,2.22-2.49-.09-2.59,1.53H44.43Z"/><path id="_Path_7" data-name="&lt;Path&gt;" class="cls-9" d="M74.54,41.26s-1.69,16.15,5.38,17.16,7.73,2,7.73,5-1.69,7.7,2.68,7.7,5.08-4.57,5.4-13.08c.3-8.13,5-19.17-5-19.51S74.54,41.26,74.54,41.26Z"/><path id="_Path_8" data-name="&lt;Path&gt;" class="cls-11" d="M76.56,42s-5.1,1-4.93-3.19.37-5,2.73-6.73,2.36-3.53,5.73-4.2,4.18-1.85,8.28-1.52,9,1.42,11.39,4.88c2.07,2.95,7.13,7.4,4.74,13.79s-8.68,11.26-8.62,14.13l-2.51-6a7.23,7.23,0,0,0,1.35-5.72c-.51-3.7-4.88-2.52-4.88-2.52S86.31,39.81,76.56,42Z"/><path id="_Path_9" data-name="&lt;Path&gt;" class="cls-9" d="M87.6,63.09l-3.75,1s2.41,8.72,4.52,9.21,9.41-7.68,10.15-9.11c0,0-3.31-.3-2.91-3.55Z"/><path id="_Path_10" data-name="&lt;Path&gt;" class="cls-12" d="M77,53.1s2.88,3.95,6.89,0"/></g></g></g></svg>