<?xml version="1.0" encoding="utf-8"?>
<!-- Generator: Adobe Illustrator 21.0.0, SVG Export Plug-In . SVG Version: 6.00 Build 0)  -->
<svg version="1.1" id="Layer_1" xmlns="http://www.w3.org/2000/svg" xmlns:xlink="http://www.w3.org/1999/xlink" x="0px" y="0px"
	 viewBox="0 0 536 166" style="enable-background:new 0 0 536 166;" xml:space="preserve">
<style type="text/css">
	.st0{fill:#FFFFFF;}
	.st1{fill:#E76876;}
	.st2{fill:#E76876;stroke:#FFFFFF;stroke-width:0.36;stroke-miterlimit:10;}
	.st3{fill:#FFFFFF;stroke:#E76876;stroke-width:0.71;stroke-miterlimit:10;}
	.st4{fill:#87CFD3;}
	.st5{fill:#2280BF;}
	.st6{font-family:'ThaiSansNeue-Light';}
	.st7{font-size:47.1px;}
</style>
<title>Artboard 56</title>
<circle class="st0" cx="42.1" cy="11.8" r="8.8"/>
<path class="st1" d="M33.8,83c-5.5-0.2-12,3.2-16.8,6.5c-0.3,0.2-3.9,2.9-3.8,2.9C5.3,85.9,3.8,83.7,6.6,79c0,0,0-0.1,0.1-0.1
	c0.4,0.2,0.8,0.3,1.3,0.3l3-4.2l0.3-2.2l5.6-8.4H17c0.6-0.9,0.9-2,0.9-3.1l0.3-0.4l0.5-0.5l-0.5-4.7l-0.7-0.3h-0.2h0.1v-0.2
	c0.2-0.3,0.5-0.5,0.7-0.8c0.3-0.3,0-1-0.2-1.3c-0.2-0.2-0.8-0.2-0.8-0.2s-0.7-2-0.8-2.3s0-0.3,0.2-0.7c0.2-0.4,0.2-0.9,0-1.4
	c-0.3-0.2-0.5-0.5-0.7-0.8c0-0.3-0.7-0.3-0.7-0.3L14.8,47c0,0,0.7-0.8,0.5-1.2s-0.6-0.4-0.8-0.5l-0.6-1.7l-0.3,0.1
	c0.1-0.1,0.1-0.1,0.1-0.1s-0.4,0-1,0.2l-0.8-2.1c0-0.1,0-0.2,0-0.2c-0.2-0.4-1.7-0.2-3.4,0.4s-2.8,1.4-2.8,1.9l-0.2,0.1l0.9,2.4
	c-0.6,0.3-0.9,0.5-0.9,0.6s0,0,0.1,0l-0.2,0.1l0.7,1.9C6,49,6,49.2,6.1,49.5c0.3,0.3,0.6,0.5,1,0.7c0,0,0.7,1.8,0.7,2
	s-0.5,0.2-1,0.5c-0.7,0.8-1.2,1.9-1.2,3c0,1.2,0.8,4.7,0.7,5.4c-0.2,0.8-3.5,3.9-4,4c-0.8,0.3-1.8,0.3-1.8,0.8
	c0.2,0.5,1.7,0.2,2.3,0c1.6-1.2,3.1-2.5,4.5-4c0.5-0.7,0.2-4.7,0.2-5.9s0.3-1.9,0.5-1.9h0.7l0.5,1c-0.2,0.3-0.2,0.7-0.2,1
	c0.2,0.5,1.2,0.7,1.2,0.7l0.7,1l0.3-0.1l-0.1,0.1l-0.3,0.8l1.5,3.4l0.5,0.2c0.3,0.5,0.3,1.1,0,1.6l-0.1,0.1l-4.3,6.9L6.3,72
	l-2.7,4.2C3.8,76.6,4,77,4.4,77.3l-0.3,0.4c-2.5,3.7-3.9,8.4,6.7,16.6c-0.7,0.5-1.3,1.2-2.4,2c-6,5.4-7.5,15.4-5.2,20.8
	c2,4.4,6.7,7.7,12.9,7.7c5.9,0,9.9-4.5,10.7-10.1C28.8,105,21.2,99,15,94.1c0,0,2.4-1.9,2.7-2.1c0.9-0.7,1.9-1.3,2.9-1.8
	c2.1-1.2,4.2-2.2,6.5-3.1c1.4-0.6,2.8-1,4.2-1.2c0.9-0.1,1.8-0.2,2.6-0.2L33.8,83z M24.4,114.9c-0.9,4.1-4.6,7.1-8.9,7
	c-3.7,0-12.9-3.9-9.4-16.3c0.8-3,3.9-6.5,7-9.5C23.9,104.3,25.6,109.2,24.4,114.9L24.4,114.9z"/>
<path class="st1" d="M48.8,83.2l1.8,68.6c-3.1,1-6.3,1.5-9.6,1.4c-6.1,0-9-1.7-9-1.7L33.8,83c0,0,1.7,0.5,7.6,0.5
	C43.9,83.6,46.4,83.5,48.8,83.2z"/>
<path class="st1" d="M29.7,158.6l2.3-3.9c0.1-0.2,0.3-0.3,0.5-0.2c3,0.6,6.1,0.9,9.2,1c2.9-0.1,5.7-0.4,8.5-1c0.2,0,0.4,0.1,0.5,0.2
	l2.2,3.8c0.1,0.2,0.1,0.6-0.2,0.7c-0.1,0-0.2,0.1-0.3,0.1H30.1c-0.3,0-0.5-0.2-0.5-0.5C29.6,158.7,29.7,158.7,29.7,158.6z"/>
<rect x="28.1" y="159.4" class="st1" width="26.5" height="2.1"/>
<ellipse class="st1" cx="41.3" cy="161.5" rx="13.2" ry="2.1"/>
<ellipse class="st1" cx="41.3" cy="159.4" rx="13.2" ry="2.1"/>
<circle class="st2" cx="41.3" cy="96" r="3.7"/>
<circle class="st3" cx="41.3" cy="96" r="3"/>
<path class="st4" d="M47,9.7c-0.8,0-1.9,0-2.7,0l1.1-2.9h-4.4l-1.4,3.8c-0.2,0.7-0.5,1.4-0.8,2.1h1.8l-1.8,4.9
	C41.4,15,44.3,12.3,47,9.7z"/>
<path class="st1" d="M49.7,16.1c-2.4,4.2-7.8,5.7-12,3.3s-5.7-7.8-3.3-12c2.4-4.2,7.8-5.7,12-3.3c1.3,0.7,2.3,1.7,3.1,2.9l1.8-1.4
	c-2.1-3.1-5.5-5-9.3-5c-6.2,0-11.2,5-11.2,11.1c0,6.2,5,11.2,11.1,11.2c4,0,7.7-2.1,9.7-5.5L49.7,16.1z"/>
<path class="st1" d="M54.3,78.3L54.3,78.3c0.1-0.1-0.2-0.4-0.8-0.6V30.3c-3.9,1-8,1.4-12,1.4c-4,0.1-8.1-0.3-12-1.2v47.2
	c-0.7,0.2-1,0.5-1,0.7l0,0v1.6h0c0.5,0.9,6,1.8,12.8,1.8s12.3-0.7,12.8-1.8h0L54.3,78.3z M31.5,76.8V32.4c2,0.5,5.2,0.8,10.3,0.8
	c3.3,0.1,6.6-0.2,9.8-0.7V77c-0.1,0.1-0.1,0.3-0.2,0.3c-1.2,0.8-5.1,1.5-9.8,1.5s-8.5-0.5-9.8-1.5L31.5,77L31.5,76.8z"/>
<path class="st0" d="M51.3,77.2c0.1,0,0.1-0.1,0.2-0.3V32.6c-3.2,0.5-6.5,0.7-9.8,0.7c-5.1,0-8.3-0.3-10.3-0.8V77l0.2,0.3
	c1.3,1,5.1,1.5,9.8,1.5S50.2,78,51.3,77.2z"/>
<path id="_Path_" class="st4" d="M41.5,70.7c-5,0-9-0.8-9-2v6.5c0,1.1,4.1,2,9,2s9-0.8,9-2v-6.5C50.6,69.9,46.5,70.7,41.5,70.7z"/>
<path id="_Path_2" class="st4" d="M41.5,62.9c-5,0-9-0.8-9-2v6.6c0,1.1,4.1,2,9,2s9-0.8,9-2v-6.6C50.6,62.1,46.5,62.9,41.5,62.9z"/>
<path id="_Path_3" class="st4" d="M41.5,55.1c-5,0-9-0.8-9-2v6.5c0,1.1,4.1,2,9,2s9-0.8,9-2v-6.5C50.6,54.3,46.5,55.1,41.5,55.1z"/>
<path id="_Path_4" class="st4" d="M41.5,47.6c-5,0-9-0.8-9-2v5.9c0,1.1,4.1,2,9,2s9-0.8,9-2v-5.9C50.6,46.8,46.5,47.6,41.5,47.6z"/>
<ellipse id="_Path_5" class="st4" cx="41.5" cy="44.3" rx="9" ry="2"/>
<path id="_Compound_Path_" class="st1" d="M41.3,24.7c-6.6,0-11.9,1-11.9,2.4s5.3,2.4,11.9,2.4s11.9-1.2,11.9-2.4
	S47.9,24.7,41.3,24.7z M41.5,28.4c-4.7,0-8.5-0.6-8.5-1.8c0-0.9,3.8-1.8,8.5-1.8s8.5,0.8,8.5,1.8S46.2,28.4,41.5,28.4z"/>
<path id="_Compound_Path_2" class="st1" d="M41.3,25.8c-7.2,0-13,1-13,2.4s5.8,2.4,13,2.4s13-1,13-2.4S48.4,25.8,41.3,25.8z
	 M41.5,29.8c-5,0-9.3-0.8-9.3-1.8s4.2-1.8,9.3-1.8s9.3,0.9,9.3,1.8S46.6,29.8,41.5,29.8L41.5,29.8z"/>
<path id="_Path_6" class="st1" d="M32.3,27.1c0,0,0.7-1.1,9-1.1s9.9,1.7,9.9,1.7l0.7-1.4c-3.5-0.7-7.1-1.1-10.7-1.2
	c-3.3,0-6.6,0.5-9.9,1.4L32.3,27.1z"/>
<path id="_Path_7" class="st1" d="M32.3,24.3v2.2c0,0.9,4.2,1.8,9.3,1.8s9.3-0.9,9.3-1.8v-2.2H32.3z"/>
<ellipse id="_Path_8" class="st1" cx="41.5" cy="24.3" rx="9.3" ry="1.8"/>
<path id="_Path_9" class="st1" d="M31.4,25.7c0,0-2.9,0.6-3.1,2.7l4.4,1.5L31.4,25.7z"/>
<path id="_Path_10" class="st1" d="M33,28.1c0,0,12.4,1.7,18.3-0.5v1.5c0,0-15,2.2-19-0.2L33,28.1z"/>
<path class="st1" d="M52.7,26.5c0.6,0.4,1.1,0.9,1.5,1.5h-2.1L52.7,26.5z"/>
<path class="st1" d="M119.4,76.4c0,4.9-1.6,8.6-4.8,11.2s-7.7,3.9-13.6,3.9h-4.9V109h-7.6V62.3h13.4c5.8,0,10.2,1.2,13.1,3.6
	S119.4,71.8,119.4,76.4z M96.1,85.1h4.1c3.9,0,6.8-0.7,8.6-2s2.7-3.5,2.7-6.4c0-2.7-0.8-4.7-2.4-6s-4.2-2-7.7-2h-5.3V85.1z"/>
<path class="st1" d="M165.3,62v30.2c0.1,3.2-0.7,6.3-2.2,9.1c-1.5,2.6-3.7,4.7-6.4,6c-3.1,1.5-6.6,2.2-10.1,2.1
	c-5.8,0-10.3-1.5-13.5-4.6c-3.2-3.1-4.8-7.3-4.8-12.7V62h7.7v29.5c0,3.9,0.9,6.7,2.7,8.5s4.5,2.7,8.2,2.8c7.2,0,10.8-3.8,10.8-11.3
	V62H165.3z"/>
<path class="st1" d="M197.5,109l-13.6-39h-0.2c0.4,5.8,0.5,11.2,0.5,16.3V109h-6.9V62.3h10.8l13,37.1h0.2l13.4-37.1h10.8V109H218
	V85.9c0-2.3,0-5.4,0.2-9.1s0.2-6,0.3-6.8h-0.3l-14,39H197.5z"/>
<path class="st1" d="M268.6,76.4c0,4.9-1.6,8.6-4.8,11.2s-7.7,3.9-13.6,3.9h-4.9V109h-7.6V62.3h13.4c5.8,0,10.2,1.2,13.1,3.6
	S268.6,71.8,268.6,76.4z M245.3,85.1h4.1c3.9,0,6.8-0.7,8.6-2s2.8-3.5,2.8-6.4c0-2.7-0.8-4.7-2.5-6s-4.2-2-7.7-2h-5.3L245.3,85.1z"
	/>
<path class="st1" d="M364.2,109h-7.7V88H335v21h-7.6V62.3h7.6v19.1h21.5V62.3h7.7L364.2,109z"/>
<path class="st1" d="M407.2,109.1l-4.7-13h-17.9l-4.6,13h-8l17.5-46.9h8.3l17.5,46.9H407.2z M400.5,89.6l-4.4-12.7
	c-0.3-0.9-0.8-2.2-1.3-4s-1-3.2-1.2-4c-0.7,2.9-1.5,5.8-2.5,8.6l-4.2,12.2L400.5,89.6z"/>
<path class="st1" d="M427.4,90.4V109h-7.6V62.3H433c6,0,10.5,1.1,13.4,3.4s4.4,5.7,4.3,10.2c0,5.8-3,10-9.1,12.4l13.2,20.6h-8.7
	L435,90.4H427.4z M427.4,84h5.3c3.6,0,6.1-0.7,7.7-2c1.7-1.5,2.5-3.7,2.4-5.9c0-2.7-0.9-4.6-2.6-5.7c-1.7-1.1-4.3-1.7-7.8-1.7h-5V84
	z"/>
<path class="st1" d="M480.7,83.7h17.2v23.5c-2.6,0.9-5.3,1.6-8.1,2c-2.8,0.4-5.6,0.6-8.4,0.6c-7.1,0-12.5-2.1-16.4-6.3
	c-3.8-4.2-5.7-10.1-5.8-17.7c0-7.5,2.2-13.4,6.5-17.7c4.3-4.3,10.3-6.4,17.9-6.4c4.8,0,9.5,0.9,13.9,2.8l-2.7,6.4
	c-3.6-1.7-7.4-2.6-11.4-2.6c-5,0-8.9,1.6-11.8,4.7s-4.4,7.4-4.4,12.8c0,5.7,1.3,10,3.9,13s6.4,4.4,11.3,4.5c2.7,0,5.3-0.3,7.9-0.9
	v-12h-9.7L480.7,83.7z"/>
<path class="st1" d="M535.6,109h-26.4V62.3h26.4v6.4h-18.8v12.7h17.6v6.4h-17.6v14.7h18.8V109z"/>
<path class="st1" d="M315.8,93.6l-0.5,0.8c-4.8,8.5-15.6,11.5-24.1,6.6s-11.5-15.6-6.6-24.1c4.8-8.5,15.6-11.5,24.1-6.6
	c2.5,1.4,4.6,3.4,6.2,5.9l0.5,0.8l5.2-4.1l-0.4-0.7c-4.5-6.7-12.1-10.8-20.2-10.9c-13.4,0-24.3,10.9-24.3,24.3
	c0,13.4,10.9,24.3,24.3,24.3c8.6,0,16.6-4.6,21-12l0.4-0.7L315.8,93.6z"/>
<text transform="matrix(1 0 0 1 87.86 161.46)" class="st5 st6 st7">OPER</text>
<text transform="matrix(1 0 0 1 165.57 161.46)" class="st5 st6 st7">A</text>
<text transform="matrix(1 0 0 1 184.78 161.46)" class="st5 st6 st7">T</text>
</svg>
