<svg id="Layer_1" data-name="Layer 1" xmlns="http://www.w3.org/2000/svg" viewBox="0 0 97.25 96.87"><defs><style>.cls-1{fill:#fff;}.cls-2{fill:#b58e36;}.cls-3{fill:#824299;}.cls-4{fill:#804099;}</style></defs><title>pea</title><circle class="cls-1" cx="48.62" cy="48.44" r="42.83"/><path class="cls-2" d="M48.62,92.76A44.32,44.32,0,1,1,92.95,48.44,44.37,44.37,0,0,1,48.62,92.76Zm0-85.65A41.33,41.33,0,1,0,90,48.44,41.38,41.38,0,0,0,48.62,7.11Z"/><path class="cls-3" d="M64.5,26.87c3.59,7.19-8.09,17.37-26.06,23.06l2.7-.9c19.77-5.69,32.64-16.77,29.05-24-3.89-7.49-22.76-8.69-42.53-2.7l-2.7.9C43.53,18.19,60.9,19.69,64.5,26.87Z"/><path class="cls-2" d="M72,55.33c-18.87,6-34.74,3.89-39.53-4.19s6-20.07,24-27.55c-.9.3-1.8.6-3,.9-20.07,7.19-32,20.07-27,28.45s25.16,9.58,45.22,2.4C72.88,55.33,71.09,55.62,72,55.33Z"/><path class="cls-4" d="M30.35,77.49h-.3v.6h-.3v-1.5l.6.9Zm0,.6h0l-.3-.3v.3Z"/><path class="cls-4" d="M31.85,77.49h0a.29.29,0,0,1,.3.3h0v.3h-.6v.6h-.3v-1.5h.6Zm0,.6Z"/><path class="cls-4" d="M32.45,78.09h0a.29.29,0,0,1,.3-.3h.9V79h-1.2v-.9Zm.3.3h0l.3.3h0v-.3Z"/><path class="cls-4" d="M34.25,79l-.3-1.5h.3l.3,1.2h0l.3-1.2h.3l-.9,1.5Z"/><path class="cls-4" d="M35.45,77.49V79h-.3l.3-1.5Z"/><path class="cls-4" d="M36,77.49l.6,1.2h0v-1.2h.3V79h-.3l-.6-1.5h0V79h-.3l.3-1.5Z"/><path class="cls-4" d="M38.14,78.09h0c0,.3.3.3,0,0l.3.3v.3h-.9v-1.2c0-.3,0,0,.3,0h.6v.3l-.3.3Z"/><path class="cls-4" d="M39,77.49V79h-.3l.3-1.5Z"/><path class="cls-4" d="M39.94,77.49l.6,1.5h-.3v-.3h-.6V79h-.3l.6-1.5Zm0,.9v-.6h0v.6Z"/><path class="cls-4" d="M40.84,77.49v1.2h.6V79h-.9l.3-1.5Z"/><path class="cls-4" d="M43.23,77.49h0l-.6.3v.3h.6v.3h-.6v.3h.9V79h-1.2v-1.5Z"/><path class="cls-4" d="M43.83,77.49v1.2h.6V79h-.9l.3-1.5Z"/><path class="cls-4" d="M45.63,77.49h0l-.6.3v.3h.6v.3H45v.3h.9V79h-1.2v-1.5Z"/><path class="cls-4" d="M46.83,78.09h0c0,.3.3.3,0,0l.3.3v.3h-.9v-1.2c0-.3,0,0,.3,0h.6v.3l-.3.3Z"/><path class="cls-4" d="M47.43,77.79h0l1.2-.3v.3h-.3V79H48v-1.2Z"/><path class="cls-4" d="M49.22,77.49h0a.29.29,0,0,1,.3.3h0v.3h-.6v.6h-.3v-1.5h.6Zm0,.6Z"/><path class="cls-4" d="M50.42,77.49V79h-.3l.3-1.5Z"/><path class="cls-4" d="M51.62,78.09h0l.3.3v.3H51v-1.2c0-.3,0,0,.3,0h.6v.3l-.3.3Z"/><path class="cls-4" d="M52.22,77.49V79h-.3l.3-1.5Z"/><path class="cls-4" d="M52.52,77.79h0l1.2-.3v.3h-.6V79h0v-1.2Z"/><path class="cls-4" d="M53.71,77.49H54l.3.6.3-.6h.3l-.6.9V79H54v-.6Z"/><path class="cls-4" d="M56.41,77.49,57,79h-.3v-.3h-.6V79h-.3l.6-1.5Zm0,.9v-.6h0v.6Z"/><path class="cls-4" d="M58.21,79h-.6v-1.5h.3v.9h0c0,.6,0,.6.3.6v-1.5h.3v.9A.93.93,0,0,0,58.21,79Z"/><path class="cls-4" d="M58.51,77.79h0l1.2-.3v.3h-.6V79h-.3v-1.2Z"/><path class="cls-4" d="M60,77.49v.6h.6v-.6h.3V79h-.3v-.6H60V79h-.3l.3-1.5Z"/><path class="cls-4" d="M61.2,78.09h0a.29.29,0,0,1,.3-.3h.9V79H61.2v-.9Zm0,.3h0l.3.3h0v-.3Z"/><path class="cls-4" d="M63.3,77.49h0a.29.29,0,0,1,.3.3h0v.3H63v.6h-.3v-1.5h.6Zm0,.6Z"/><path class="cls-4" d="M64.2,77.49V79h-.3l.3-1.5Z"/><path class="cls-4" d="M64.5,77.79h0l1.2-.3v.3h-.6V79h0v-1.2Z"/><path class="cls-4" d="M65.69,77.49H66l.3.6.3-.6h.3l-.6.9V79H66v-.6Z"/><path class="cls-4" d="M29.76,62.51h6.89c1.2,0,3.59,0,4.49,2.4a6.67,6.67,0,0,1,0,4.19,4.23,4.23,0,0,1-4.49,2.4H32.75v4.79H29.46V62.51Zm3.29,6.59h3.59a2,2,0,0,0,1.8-1.2c0-.3.3-1.2,0-1.8a2,2,0,0,0-2.1-1.2H32.75V69.1Z"/><path class="cls-4" d="M52.82,62.51v2.4H44.73v3h7.49v2.4H44.73v3.59H54l-.6,2.4H41.74V62.51Z"/><path class="cls-4" d="M67.19,76.29H63.9l-1.2-2.7H57l-1.2,2.7H52.52l5.39-13.78H61.5ZM57.91,71.2H61.8l-2.1-5.39Z"/></svg>