<?xml version="1.0" encoding="utf-8"?>
<!-- Generator: Adobe Illustrator 21.0.0, SVG Export Plug-In . SVG Version: 6.00 Build 0)  -->
<svg version="1.1" id="Layer_1" xmlns="http://www.w3.org/2000/svg" xmlns:xlink="http://www.w3.org/1999/xlink" x="0px" y="0px"
	 viewBox="0 0 90 90" style="enable-background:new 0 0 90 90;" xml:space="preserve">
<style type="text/css">
	.st0{fill:#C2F0F2;}
	.st1{clip-path:url(#SVGID_2_);}
	.st2{fill:#FDD9B2;}
	.st3{fill:#FFFFFF;}
	.st4{fill:#CDEAEF;}
	.st5{fill:#462818;}
</style>
<title>หน้าสถานีของคุณ</title>
<g id="_Clip_Group_">
	<path class="st0" d="M45.2,0C20.4-0.1,0.1,20.1,0.1,44.9C0,69.7,20.1,90,45,90c24.7,0.1,45-19.8,45.1-44.6S70.3,0.3,45.5,0
		C45.3,0,45.3,0,45.2,0z"/>
	<g>
		<g>
			<g>
				<defs>
					<path id="SVGID_1_" d="M45.2,0C20.4-0.1,0.1,20.1,0.1,44.9C0,69.7,20.1,90,45,90c24.7,0.1,45-19.8,45.1-44.6S70.3,0.3,45.5,0
						C45.3,0,45.3,0,45.2,0z"/>
				</defs>
				<clipPath id="SVGID_2_">
					<use xlink:href="#SVGID_1_"  style="overflow:visible;"/>
				</clipPath>
				<g class="st1">
					<g id="_Group_">
						<g id="_Group_2">
							<path class="st2" d="M13.1,75.6c0,0-13.6-0.1-15.2-2c-1.6-1.8-3.7-13.3-3.5-16.4c0.1-2.6,0.1-5.2,0-7.7
								c-1.2-1.1-2.7-1.7-4.3-1.8c-2.5,0-2.8,8.1-2.8,8.1s-0.2,23.9,5,24.7S14,83,14,83h6L13.1,75.6z"/>
						</g>
						<g id="_Group_3">
							<path class="st2" d="M70.8,97.4c0,0,3.3,14.9,3.3,18.6s-1.6,25.3-1.6,25.3s1.7,11.8-2.3,11.8c-4.1,0-4.9-5.9-4.9-5.9
								s-4.7-2.1-2.8-4.2c1.1-1.2,2.7-2,4.3-2.1c0,0-0.5-16.2-0.2-21.1c0.2-4.9-1.6-22.4-1.6-22.4S70.8,97.4,70.8,97.4z"/>
						</g>
						<g id="_Group_4">
							<path class="st3" d="M43,65.7c0,0-3.8,0.9-11.3,2.1s-5.9,1.6-9.5,2.7c-3.2,1-10.3,3.6-10.3,3.6s-1.7,7.4,2,9.1l2.5,2.5h8.2
								c0,0,0.9,14.5,0.4,20.3c-0.5,5.8,0,18.2-0.4,22.4c-0.4,4.2-1.1,11.4,2.2,12.7c3.3,1.2,6.4-0.2,11.4,1.4s24.1,0.9,24.1,0.9
								c0.7-2.5,1.1-4.9,1.1-7.5c0-4.2-2.1-20.7-2.1-20.7L63.4,97c0,0,7,1.6,9.5,0s5.8-11.1,5.8-11.1s-7.6-17.6-14.3-18
								c-3.9-0.2-7.7-0.9-11.4-2.1L43,65.7L43,65.7z"/>
						</g>
						<g id="_Group_5">
							<path class="st4" d="M48.5,83.3h10.8c0,0,0.6,10.2-5.4,10.2S48.5,83.3,48.5,83.3z"/>
						</g>
						<g id="_Group_6">
							<path class="st2" d="M-11.9,50.6c0,0,0.4-5.8,4.5-6.1s3.9-1,4.9,1.5s-2.7,3.8,0,4.7s1.2,2.1,0.1,2.7s-2.8-0.1-3,1.8h-4.5
								L-11.9,50.6z"/>
						</g>
						<g id="_Group_7">
							<path class="st2" d="M27.1,38.5c0,0-2.1,19.9,6.6,21.1s9.5,2.5,9.5,6.1c0,3.7-2.1,9.5,3.3,9.5s6.3-5.7,6.6-16.1
								c0.4-10,6.1-23.6-6.1-24S27.1,38.5,27.1,38.5z"/>
						</g>
						<g id="_Group_8">
							<path class="st5" d="M29.7,39.4c0,0-6.3,1.2-6-3.9s0.5-6.1,3.3-8.2s3-4.3,7-5.2c4.1-0.9,5.2-2.3,10.2-1.8s11.1,1.7,14,6
								c2.6,3.7,8.7,9.1,5.8,17c-3,7.9-10.7,13.9-10.6,17.3l-3.1-7.4c1.5-2,2.1-4.5,1.6-7C51.3,41.5,46,43,46,43
								S41.7,36.7,29.7,39.4z"/>
						</g>
						<g id="_Group_9">
							<path class="st2" d="M43.3,65.3l-4.7,1.2c0,0,3,10.7,5.5,11.3s11.6-9.5,12.4-11.2c0,0-4.1-0.4-3.6-4.3L43.3,65.3z"/>
						</g>
						<g id="_Group_10">
							<path class="st5" d="M34.3,55.6h-0.4c-1.6-0.2-3.1-1-3.9-2.3c-0.1-0.1,0-0.4,0.1-0.5s0.4,0,0.5,0.1c0.9,1.1,2.1,1.8,3.4,2
								c1.7,0,3.3-0.7,4.4-2.1c0.1-0.1,0.4-0.1,0.5,0s0.1,0.4,0,0.5C37.7,54.6,36,55.5,34.3,55.6z"/>
						</g>
					</g>
				</g>
			</g>
		</g>
	</g>
</g>
</svg>
